<?xml version="1.0" encoding="utf-8"?>
<!-- Generator: Adobe Illustrator 19.1.0, SVG Export Plug-In . SVG Version: 6.00 Build 0)  -->
<svg version="1.1" id="Layer_1" xmlns="http://www.w3.org/2000/svg" xmlns:xlink="http://www.w3.org/1999/xlink" x="0px" y="0px"
	 viewBox="0 0 130.9 236" style="enable-background:new 0 0 130.9 236;" xml:space="preserve">
<style type="text/css">
	.st0{fill:none;stroke:#000000;stroke-miterlimit:10;}
</style>
<circle class="st0" cx="66.7" cy="13.6" r="11.4"/>
<circle class="st0" cx="13.8" cy="177.5" r="11.4"/>
<circle class="st0" cx="43.9" cy="221.7" r="11.4"/>
<circle class="st0" cx="117" cy="221.7" r="11.4"/>
<g>
	<path d="M70,19.5c-0.6,0.3-1.7,0.6-3.1,0.6c-3.3,0-5.8-2.1-5.8-5.9c0-3.6,2.5-6.1,6.1-6.1c1.5,0,2.4,0.3,2.8,0.5l-0.4,1.2
		c-0.6-0.3-1.4-0.5-2.4-0.5c-2.7,0-4.5,1.7-4.5,4.8c0,2.9,1.6,4.7,4.5,4.7c0.9,0,1.9-0.2,2.5-0.5L70,19.5z"/>
</g>
<g>
	<path d="M9.4,182.9c0-0.6,0.1-1.4,0.1-2.2v-10.1H11v5.3h0c0.5-0.9,1.5-1.5,2.9-1.5c2.1,0,3.5,1.7,3.5,4.3c0,3-1.9,4.5-3.8,4.5
		c-1.2,0-2.2-0.5-2.8-1.6h-0.1l-0.1,1.4H9.4z M11,179.6c0,0.2,0,0.4,0.1,0.6c0.3,1.1,1.2,1.8,2.3,1.8c1.6,0,2.5-1.3,2.5-3.2
		c0-1.7-0.9-3.1-2.5-3.1c-1,0-2,0.7-2.3,1.9c0,0.2-0.1,0.4-0.1,0.6V179.6z"/>
</g>
<g>
	<path d="M40.1,227.6l-3-11.7h1.6l1.4,5.9c0.3,1.5,0.7,2.9,0.9,4h0c0.2-1.2,0.6-2.5,1-4l1.6-5.9h1.6l1.4,5.9c0.3,1.4,0.6,2.8,0.8,4
		h0c0.2-1.3,0.6-2.6,0.9-4l1.5-5.9h1.5l-3.3,11.7h-1.6l-1.5-6.1c-0.4-1.5-0.6-2.6-0.8-3.8h0c-0.2,1.2-0.5,2.3-0.9,3.8l-1.7,6.1H40.1
		z"/>
</g>
<g>
	<path d="M114.2,217.2l1.2,1.8c0.3,0.5,0.6,0.9,0.8,1.4h0.1c0.3-0.5,0.6-0.9,0.8-1.4l1.2-1.8h1.6l-2.9,4l2.9,4.3h-1.7l-1.2-1.9
		c-0.3-0.5-0.6-1-0.9-1.5h0c-0.3,0.5-0.6,1-0.9,1.5l-1.2,1.9h-1.7l3-4.3l-2.8-4.1H114.2z"/>
</g>
<g>
	<path d="M65.5,179.8c-0.1-1.3-0.2-2.9-0.1-4h0c-0.3,1.1-0.7,2.3-1.2,3.6l-1.7,4.6h-0.9l-1.5-4.5c-0.4-1.3-0.8-2.5-1.1-3.6h0
		c0,1.2-0.1,2.7-0.2,4.1l-0.2,4h-1.2l0.7-9.4h1.5l1.6,4.5c0.4,1.2,0.7,2.2,0.9,3.2h0c0.2-0.9,0.6-2,1-3.2l1.7-4.5h1.5l0.6,9.4h-1.2
		L65.5,179.8z"/>
	<path d="M72.6,183.9l-0.1-0.8h0c-0.4,0.5-1.1,1-2.1,1c-1.4,0-2.1-1-2.1-1.9c0-1.6,1.4-2.5,4-2.5v-0.1c0-0.6-0.2-1.6-1.5-1.6
		c-0.6,0-1.3,0.2-1.8,0.5l-0.3-0.8c0.6-0.4,1.4-0.6,2.2-0.6c2.1,0,2.6,1.4,2.6,2.8v2.5c0,0.6,0,1.2,0.1,1.6H72.6z M72.4,180.5
		c-1.3,0-2.9,0.2-2.9,1.5c0,0.8,0.5,1.2,1.2,1.2c0.9,0,1.4-0.6,1.6-1.1c0-0.1,0.1-0.3,0.1-0.4V180.5z"/>
	<path d="M77,175.3v1.9h1.8v0.9H77v3.6c0,0.8,0.2,1.3,0.9,1.3c0.3,0,0.6,0,0.7-0.1l0.1,0.9c-0.2,0.1-0.6,0.2-1.1,0.2
		c-0.6,0-1-0.2-1.3-0.5c-0.3-0.4-0.5-1-0.5-1.8v-3.7h-1v-0.9h1v-1.6L77,175.3z"/>
	<path d="M88,179.8c-0.1-1.3-0.2-2.9-0.1-4h0c-0.3,1.1-0.7,2.3-1.2,3.6l-1.7,4.6h-0.9l-1.5-4.5c-0.4-1.3-0.8-2.5-1.1-3.6h0
		c0,1.2-0.1,2.7-0.2,4.1l-0.3,4h-1.2l0.7-9.4h1.5l1.6,4.5c0.4,1.2,0.7,2.2,0.9,3.2h0c0.2-0.9,0.6-2,1-3.2l1.7-4.5h1.5l0.6,9.4h-1.2
		L88,179.8z"/>
	<path d="M97,182.1c0,0.7,0,1.3,0.1,1.8h-1.1l-0.1-1.1h0c-0.3,0.5-1,1.3-2.2,1.3c-1.1,0-2.3-0.6-2.3-3v-3.9h1.2v3.7
		c0,1.3,0.4,2.1,1.5,2.1c0.8,0,1.4-0.6,1.6-1.1c0.1-0.2,0.1-0.4,0.1-0.6v-4.1H97V182.1z"/>
	<path d="M99,174.1h1.2v9.9H99V174.1z"/>
</g>
<g>
	<path d="M57,138.8l-1,3h-1.3l3.2-9.4h1.5l3.2,9.4h-1.3l-1-3H57z M60,137.9l-0.9-2.7c-0.2-0.6-0.3-1.2-0.5-1.7h0
		c-0.1,0.6-0.3,1.1-0.5,1.7l-0.9,2.7H60z"/>
	<path d="M69.6,131.9v8.1c0,0.6,0,1.3,0.1,1.7h-1.1l-0.1-1.2h0c-0.4,0.8-1.2,1.3-2.3,1.3c-1.6,0-2.9-1.4-2.9-3.4
		c0-2.2,1.4-3.6,3-3.6c1,0,1.7,0.5,2,1h0v-4H69.6z M68.3,137.8c0-0.2,0-0.4-0.1-0.5c-0.2-0.8-0.8-1.4-1.8-1.4c-1.3,0-2,1.1-2,2.6
		c0,1.4,0.7,2.5,2,2.5c0.8,0,1.6-0.5,1.8-1.5c0-0.2,0.1-0.3,0.1-0.5V137.8z"/>
	<path d="M77.4,131.9v8.1c0,0.6,0,1.3,0.1,1.7h-1.1l-0.1-1.2h0c-0.4,0.8-1.2,1.3-2.3,1.3c-1.6,0-2.9-1.4-2.9-3.4
		c0-2.2,1.4-3.6,3-3.6c1,0,1.7,0.5,2,1h0v-4H77.4z M76.2,137.8c0-0.2,0-0.4-0.1-0.5c-0.2-0.8-0.8-1.4-1.8-1.4c-1.3,0-2,1.1-2,2.6
		c0,1.4,0.7,2.5,2,2.5c0.8,0,1.6-0.5,1.8-1.5c0-0.2,0.1-0.3,0.1-0.5V137.8z"/>
</g>
<g>
	<path d="M52.6,91c0.6-0.1,1.5-0.2,2.3-0.2c1.3,0,2.1,0.2,2.7,0.8c0.5,0.4,0.7,1.1,0.7,1.8c0,1.2-0.8,2.1-1.8,2.4v0
		c0.7,0.3,1.2,0.9,1.4,1.9c0.3,1.3,0.5,2.2,0.7,2.6h-1.3c-0.2-0.3-0.4-1.1-0.6-2.2c-0.3-1.3-0.8-1.8-1.9-1.8h-1.1v4.1h-1.2V91z
		 M53.8,95.3h1.2c1.3,0,2.1-0.7,2.1-1.8c0-1.2-0.9-1.7-2.2-1.8c-0.6,0-1,0.1-1.2,0.1V95.3z"/>
	<path d="M60.8,97.1c0,1.7,1.1,2.3,2.3,2.3c0.9,0,1.4-0.2,1.9-0.3l0.2,0.9c-0.4,0.2-1.2,0.4-2.2,0.4c-2.1,0-3.3-1.4-3.3-3.4
		s1.2-3.6,3.2-3.6c2.2,0,2.8,1.9,2.8,3.2c0,0.2,0,0.4,0,0.6H60.8z M64.4,96.2c0-0.8-0.3-2-1.7-2c-1.2,0-1.8,1.1-1.9,2H64.4z"/>
	<path d="M67.1,90.9h1.2v8.4h4v1h-5.2V90.9z"/>
	<path d="M74.4,90.9v5.6c0,2.1,0.9,3,2.2,3c1.4,0,2.3-0.9,2.3-3v-5.6h1.2v5.5c0,2.9-1.5,4.1-3.5,4.1c-1.9,0-3.4-1.1-3.4-4v-5.5H74.4
		z"/>
</g>
<g>
	<path d="M60.8,56.7c0-0.8,0.5-1.3,1.3-1.3s1.2,0.5,1.2,1.3c0,0.8-0.5,1.3-1.3,1.3C61.3,58,60.8,57.5,60.8,56.7z"/>
	<path d="M65.1,56.7c0-0.8,0.5-1.3,1.3-1.3s1.2,0.5,1.2,1.3c0,0.8-0.5,1.3-1.3,1.3C65.7,58,65.1,57.5,65.1,56.7z"/>
	<path d="M69.5,56.7c0-0.8,0.5-1.3,1.3-1.3S72,56,72,56.7c0,0.8-0.5,1.3-1.3,1.3C70,58,69.5,57.5,69.5,56.7z"/>
</g>
<path class="st0" d="M85.7,104.3H44.7c-2.8,0-5-2.2-5-5v-7.4c0-2.8,2.2-5,5-5h41.1c2.8,0,5,2.2,5,5v7.4
	C90.7,102,88.5,104.3,85.7,104.3z"/>
<path class="st0" d="M86.6,146H45.5c-2.8,0-5-2.2-5-5v-7.4c0-2.8,2.2-5,5-5h41.1c2.8,0,5,2.2,5,5v7.4C91.6,143.7,89.3,146,86.6,146z
	"/>
<path class="st0" d="M99.1,187.4H58c-2.8,0-5-2.2-5-5V175c0-2.8,2.2-5,5-5h41.1c2.8,0,5,2.2,5,5v7.4
	C104.1,185.2,101.8,187.4,99.1,187.4z"/>
<polygon class="st0" points="45.9,48.4 87.4,48.4 89.6,50.7 85.7,53.1 89.6,55.4 85.6,57.8 89.6,59.2 85.6,61.2 89.6,63.7 
	87.4,66.1 45.9,66.1 43.7,63.4 47.6,61.2 43.7,59.4 47.7,57.8 43.7,55.1 47.4,52.9 43.7,50.1 "/>
<g>
	<g>
		<path class="st0" d="M48.1,211.1c1.6-3.3,9.1-12.7,14.3-17.8"/>
		<g>
			<polygon points="66,190.4 62.7,196.7 62.1,193.6 59.2,192.6 			"/>
		</g>
	</g>
</g>
<g>
	<g>
		<path class="st0" d="M111.3,211.6c-2.2-4.3-9-11.8-14-17.2"/>
		<g>
			<polygon points="94.1,191 100.6,194.1 97.5,194.7 96.6,197.7 			"/>
		</g>
	</g>
</g>
<g>
	<g>
		<line class="st0" x1="79.4" y1="170" x2="79.4" y2="152.6"/>
		<g>
			<polygon points="79.4,147.9 82.1,154.5 79.4,153 76.7,154.5 			"/>
		</g>
	</g>
</g>
<g>
	<g>
		<path class="st0" d="M18.7,167.2c2.1-1.3,9.6-3.1,15.4-4.6c5-1.3,11.9-1.9,17-10.8"/>
		<g>
			<polygon points="53,147.5 52.6,154.7 50.8,152.1 47.7,152.3 			"/>
		</g>
	</g>
</g>
<g>
	<g>
		<line class="st0" x1="67.6" y1="128.5" x2="67.6" y2="112"/>
		<g>
			<polygon points="67.6,107.2 70.3,113.9 67.6,112.3 64.8,113.9 			"/>
		</g>
	</g>
</g>
<g>
	<g>
		<line class="st0" x1="67.6" y1="86.8" x2="67.6" y2="70.8"/>
		<g>
			<polygon points="67.6,66.1 70.3,72.7 67.6,71.2 64.8,72.7 			"/>
		</g>
	</g>
</g>
<g>
	<g>
		<line class="st0" x1="67.6" y1="48.4" x2="67.6" y2="29.7"/>
		<g>
			<polygon points="67.6,25 70.3,31.7 67.6,30.1 64.8,31.7 			"/>
		</g>
	</g>
</g>
</svg>
