<?xml version="1.0" encoding="utf-8"?>
<!-- Generator: Adobe Illustrator 19.1.0, SVG Export Plug-In . SVG Version: 6.00 Build 0)  -->
<svg version="1.1" id="Layer_1" xmlns="http://www.w3.org/2000/svg" xmlns:xlink="http://www.w3.org/1999/xlink" x="0px" y="0px"
	 viewBox="0 0 434.7 137.3" style="enable-background:new 0 0 434.7 137.3;" xml:space="preserve">
<style type="text/css">
	.st0{fill:none;stroke:#000000;stroke-miterlimit:10;}
	.st1{fill:none;stroke:#000000;stroke-miterlimit:10;stroke-dasharray:2.1937,2.1937;}
	.st2{fill:none;stroke:#000000;stroke-miterlimit:10;stroke-dasharray:2.2239,2.2239;}
	.st3{fill:none;stroke:#000000;stroke-miterlimit:10;stroke-dasharray:2.2;}
	.st4{font-family:'MyriadPro-Regular';}
	.st5{font-size:10.7601px;}
	.st6{font-size:10.76px;}
	.st7{font-family:'MyriadPro-Bold';}
	.st8{font-size:6.6969px;}
	.st9{font-size:5px;}
	.st10{font-size:7px;}
	.st11{font-size:8px;}
	.st12{fill:none;stroke:#000000;stroke-miterlimit:10;stroke-dasharray:4.346,4.346;}
</style>
<path class="st0" d="M147,134H8.3c-2.7,0-5-2.2-5-5V8.7c0-2.8,2.3-5,5-5H147c2.8,0,5,2.2,5,5V129C152,131.8,149.8,134,147,134z"/>
<g>
	<path class="st1" d="M51.2,44.1H16.4c-2.7,0-5-2.2-5-5v-11c0-2.8,2.2-5,5-5h34.8c2.8,0,5,2.2,5,5v11C56.2,41.8,53.9,44.1,51.2,44.1
		z"/>
</g>
<g>
	<path class="st2" d="M141.1,45H97.8c-2.8,0-5-2.2-5-5v-10c0-2.8,2.2-5,5-5h43.3c2.8,0,5,2.2,5,5v10C146.1,42.8,143.8,45,141.1,45z"
		/>
</g>
<path class="st3" d="M141.1,127.1H13.7c-2.8,0-5-2.2-5-5V99.8c0-2.8,2.2-5,5-5h127.4c2.8,0,5,2.2,5,5v22.2
	C146.1,124.8,143.8,127.1,141.1,127.1z"/>
<path class="st0" d="M255.2,31.9h-34c-2.8,0-5-2.2-5-5V16.1c0-2.8,2.2-5,5-5h34c2.7,0,5,2.2,5,5v10.9
	C260.2,29.7,258,31.9,255.2,31.9z"/>
<path class="st0" d="M345.2,31.9h-42.2c-2.8,0-5-2.2-5-5v-9.1c0-2.8,2.2-5,5-5h42.2c2.8,0,5,2.2,5,5v9.1
	C350.2,29.7,347.9,31.9,345.2,31.9z"/>
<path class="st0" d="M279.9,130.1h-51c-2.8,0-5-2.2-5-5v-37c0-2.8,2.2-5,5-5h51c2.8,0,5,2.2,5,5v37
	C284.9,127.8,282.7,130.1,279.9,130.1z"/>
<path class="st0" d="M353.9,130.1h-51c-2.8,0-5-2.2-5-5v-37c0-2.8,2.2-5,5-5h51c2.8,0,5,2.2,5,5v37
	C358.9,127.8,356.7,130.1,353.9,130.1z"/>
<path class="st0" d="M426.9,130.1h-51c-2.8,0-5-2.2-5-5v-37c0-2.8,2.2-5,5-5h51c2.8,0,5,2.2,5,5v37
	C431.9,127.8,429.7,130.1,426.9,130.1z"/>
<path class="st0" d="M37.2,123.3H17.7c-1.1,0-2-0.9-2-2v-5.5c0-1.1,0.9-2,2-2h19.5c1.1,0,2,0.9,2,2v5.5
	C39.2,122.4,38.3,123.3,37.2,123.3z"/>
<path class="st0" d="M65,123.3H45.5c-1.1,0-2-0.9-2-2v-5.5c0-1.1,0.9-2,2-2H65c1.1,0,2,0.9,2,2v5.5C67,122.4,66.1,123.3,65,123.3z"
	/>
<path class="st0" d="M97,123.3H77.5c-1.1,0-2-0.9-2-2v-5.5c0-1.1,0.9-2,2-2H97c1.1,0,2,0.9,2,2v5.5C99,122.4,98.1,123.3,97,123.3z"
	/>
<path class="st0" d="M133.5,123.3H114c-1.1,0-2-0.9-2-2v-5.5c0-1.1,0.9-2,2-2h19.5c1.1,0,2,0.9,2,2v5.5
	C135.5,122.4,134.6,123.3,133.5,123.3z"/>
<path class="st0" d="M250.8,115.5h-19.5c-1.1,0-2-0.9-2-2v-5.3c0-1.1,0.9-2,2-2h19.5c1.1,0,2,0.9,2,2v5.3
	C252.8,114.6,251.9,115.5,250.8,115.5z"/>
<path class="st0" d="M277.5,115.5H258c-1.1,0-2-0.9-2-2v-5.3c0-1.1,0.9-2,2-2h19.5c1.1,0,2,0.9,2,2v5.3
	C279.5,114.6,278.6,115.5,277.5,115.5z"/>
<path class="st0" d="M277.5,128H258c-1.1,0-2-0.9-2-2v-5.3c0-1.1,0.9-2,2-2h19.5c1.1,0,2,0.9,2,2v5.3
	C279.5,127.1,278.6,128,277.5,128z"/>
<path class="st0" d="M250.8,128h-19.5c-1.1,0-2-0.9-2-2v-5.3c0-1.1,0.9-2,2-2h19.5c1.1,0,2,0.9,2,2v5.3
	C252.8,127.1,251.9,128,250.8,128z"/>
<text transform="matrix(1 0 0 1 42.4172 14.2933)" class="st4 st5">single process</text>
<text transform="matrix(1 0 0 1 20.6631 36.0833)" class="st4 st6">client</text>
<text transform="matrix(1 0 0 1 17.9966 106.4167)" class="st4 st6">worker</text>
<text transform="matrix(1 0 0 1 103.1667 37.3333)" class="st4 st6">master</text>
<text transform="matrix(1 0 0 1 225.819 19.5833)" class="st4 st6">client</text>
<text transform="matrix(1 0 0 1 220.4167 28.5833)" class="st4 st6">process</text>
<text transform="matrix(1 0 0 1 307.4167 20.762)" class="st4 st6">master</text>
<text transform="matrix(1 0 0 1 305.7917 29.0833)" class="st4 st6">process</text>
<text transform="matrix(1 0 0 1 237.5532 90.5833)" class="st4 st6">worker</text>
<text transform="matrix(1 0 0 1 232.333 100.501)" class="st4 st6">process 1</text>
<text transform="matrix(1 0 0 1 314.2199 90.5833)" class="st4 st6">worker</text>
<text transform="matrix(1 0 0 1 308.9997 100.501)" class="st4 st6">process 2</text>
<text transform="matrix(1 0 0 1 385.0532 90.5833)" class="st4 st6">worker</text>
<text transform="matrix(1 0 0 1 379.833 100.501)" class="st4 st6">process 3 </text>
<text transform="matrix(1 0 0 1 232.6364 113.5159)"><tspan x="0" y="0" class="st7 st8">GPU</tspan><tspan x="13" y="0" class="st7 st9">0</tspan></text>
<text transform="matrix(1 0 0 1 18.8299 120.5159)"><tspan x="0" y="0" class="st7 st8">GPU</tspan><tspan x="13" y="0" class="st7 st9">0</tspan></text>
<text transform="matrix(1 0 0 1 115.1632 120.5159)"><tspan x="0" y="0" class="st7 st8">CPU</tspan><tspan x="12.4" y="0" class="st7 st9">0</tspan></text>
<text transform="matrix(1 0 0 1 46.6632 120.5159)"><tspan x="0" y="0" class="st7 st8">GPU</tspan><tspan x="13" y="0" class="st7 st9">1</tspan></text>
<text transform="matrix(1 0 0 1 232.6364 126.0833)"><tspan x="0" y="0" class="st7 st8">GPU</tspan><tspan x="13" y="0" class="st7 st9">1</tspan></text>
<text transform="matrix(1 0 0 1 260.0114 126.0833)"><tspan x="0" y="0" class="st7 st8">CPU</tspan><tspan x="12.4" y="0" class="st7 st9">1</tspan></text>
<text transform="matrix(1 0 0 1 264.8333 112.0833)" class="st7 st10">...</text>
<text transform="matrix(1 0 0 1 83.63 119.4167)" class="st7 st10">...</text>
<path class="st0" d="M325.5,115.5H306c-1.1,0-2-0.9-2-2v-5.3c0-1.1,0.9-2,2-2h19.5c1.1,0,2,0.9,2,2v5.3
	C327.5,114.6,326.6,115.5,325.5,115.5z"/>
<path class="st0" d="M352.2,115.5h-19.5c-1.1,0-2-0.9-2-2v-5.3c0-1.1,0.9-2,2-2h19.5c1.1,0,2,0.9,2,2v5.3
	C354.2,114.6,353.3,115.5,352.2,115.5z"/>
<path class="st0" d="M352.2,128h-19.5c-1.1,0-2-0.9-2-2v-5.3c0-1.1,0.9-2,2-2h19.5c1.1,0,2,0.9,2,2v5.3
	C354.2,127.1,353.3,128,352.2,128z"/>
<path class="st0" d="M325.5,128H306c-1.1,0-2-0.9-2-2v-5.3c0-1.1,0.9-2,2-2h19.5c1.1,0,2,0.9,2,2v5.3
	C327.5,127.1,326.6,128,325.5,128z"/>
<text transform="matrix(1 0 0 1 307.3031 113.5159)"><tspan x="0" y="0" class="st7 st8">GPU</tspan><tspan x="13" y="0" class="st7 st9">0</tspan></text>
<text transform="matrix(1 0 0 1 307.3031 126.0833)"><tspan x="0" y="0" class="st7 st8">GPU</tspan><tspan x="13" y="0" class="st7 st9">1</tspan></text>
<text transform="matrix(1 0 0 1 334.6781 126.0833)"><tspan x="0" y="0" class="st7 st8">CPU</tspan><tspan x="12.4" y="0" class="st7 st9">1</tspan></text>
<text transform="matrix(1 0 0 1 339.4997 112.0833)" class="st7 st10">...</text>
<path class="st0" d="M397.8,115.5h-19.5c-1.1,0-2-0.9-2-2v-5.3c0-1.1,0.9-2,2-2h19.5c1.1,0,2,0.9,2,2v5.3
	C399.8,114.6,398.9,115.5,397.8,115.5z"/>
<path class="st0" d="M424.5,115.5H405c-1.1,0-2-0.9-2-2v-5.3c0-1.1,0.9-2,2-2h19.5c1.1,0,2,0.9,2,2v5.3
	C426.5,114.6,425.6,115.5,424.5,115.5z"/>
<path class="st0" d="M424.5,128H405c-1.1,0-2-0.9-2-2v-5.3c0-1.1,0.9-2,2-2h19.5c1.1,0,2,0.9,2,2v5.3
	C426.5,127.1,425.6,128,424.5,128z"/>
<path class="st0" d="M397.8,128h-19.5c-1.1,0-2-0.9-2-2v-5.3c0-1.1,0.9-2,2-2h19.5c1.1,0,2,0.9,2,2v5.3
	C399.8,127.1,398.9,128,397.8,128z"/>
<text transform="matrix(1 0 0 1 379.6328 113.5159)"><tspan x="0" y="0" class="st7 st8">GPU</tspan><tspan x="13" y="0" class="st7 st9">0</tspan></text>
<text transform="matrix(1 0 0 1 379.6328 126.0833)"><tspan x="0" y="0" class="st7 st8">GPU</tspan><tspan x="13" y="0" class="st7 st9">1</tspan></text>
<text transform="matrix(1 0 0 1 407.0078 126.0833)"><tspan x="0" y="0" class="st7 st8">CPU</tspan><tspan x="12.4" y="0" class="st7 st9">1</tspan></text>
<text transform="matrix(1 0 0 1 411.8294 112.0833)" class="st7 st10">...</text>
<g>
	<g>
		<line class="st0" x1="57.5" y1="34.3" x2="86.9" y2="34.3"/>
		<g>
			<polygon points="90.8,34.3 85.3,36.6 86.6,34.3 85.3,32.1 			"/>
		</g>
	</g>
</g>
<g>
	<g>
		<line class="st0" x1="262" y1="21.5" x2="291.4" y2="21.5"/>
		<g>
			<polygon points="295.3,21.5 289.8,23.8 291.1,21.5 289.8,19.2 			"/>
		</g>
	</g>
</g>
<g>
	<g>
		<path class="st0" d="M123.8,47.3c0,4-1.3,11.5-26.9,16.7c-24,4.8-39.3,8.5-51,23.4"/>
		<g>
			<polygon points="43.5,90.6 45,84.8 46,87.2 48.7,87.5 			"/>
		</g>
	</g>
</g>
<g>
	<g>
		<path class="st0" d="M328.4,35.1c0,5.5,0,19.8-22.6,24c-21,3.9-28.8,3.7-38.7,16.7"/>
		<g>
			<polygon points="264.8,79 266.2,73.1 267.3,75.6 269.9,75.8 			"/>
		</g>
	</g>
</g>
<g>
	<g>
		<path class="st0" d="M328.4,35.1c0,5.5,0,19.8,22.6,24c21,3.9,28.8,3.7,38.7,16.7"/>
		<g>
			<polygon points="392,79 386.8,75.8 389.5,75.6 390.5,73.2 			"/>
		</g>
	</g>
</g>
<g>
	<g>
		<line class="st0" x1="328.4" y1="77" x2="328.4" y2="35.1"/>
		<g>
			<polygon points="328.4,81 330.7,75.4 328.4,76.8 326.1,75.4 			"/>
		</g>
	</g>
</g>
<text transform="matrix(1 0 0 1 62.1667 44.0833)" class="st4 st11">session</text>
<text transform="matrix(1 0 0 1 69.1665 52.1668)" class="st4 st11">run</text>
<text transform="matrix(1 0 0 1 266.6667 32.0416)" class="st4 st11">session</text>
<text transform="matrix(1 0 0 1 273.6665 40.1251)" class="st4 st11">run</text>
<text transform="matrix(1 0 0 1 92.765 72.5002)" class="st4 st11">execute</text>
<text transform="matrix(1 0 0 1 89.3333 80.1663)" class="st4 st11">subgraph</text>
<text transform="matrix(1 0 0 1 381.5484 53.1963)" class="st4 st11">execute</text>
<text transform="matrix(1 0 0 1 378.1167 60.8625)" class="st4 st11">subgraph</text>
<g>
	<g>
		<line class="st0" x1="186.2" y1="3.7" x2="186.2" y2="5.8"/>
		<line class="st12" x1="186.2" y1="10.2" x2="186.2" y2="129.7"/>
		<line class="st0" x1="186.2" y1="131.8" x2="186.2" y2="134"/>
	</g>
</g>
</svg>
