<?xml version="1.0" encoding="utf-8"?>
<!-- Generator: Adobe Illustrator 19.1.0, SVG Export Plug-In . SVG Version: 6.00 Build 0)  -->
<svg version="1.1" id="Layer_1" xmlns="http://www.w3.org/2000/svg" xmlns:xlink="http://www.w3.org/1999/xlink" x="0px" y="0px"
	 viewBox="0 0 449 369.9" style="enable-background:new 0 0 449 369.9;" xml:space="preserve">
<style type="text/css">
	.st0{fill:none;stroke:#000000;stroke-miterlimit:10;}
	.st1{fill:none;stroke:#828282;stroke-miterlimit:10;}
	.st2{fill:#828282;}
	.st3{fill:none;stroke:#000000;stroke-width:2;stroke-miterlimit:10;}
	.st4{fill:none;stroke:#000000;stroke-width:2;stroke-miterlimit:10;stroke-dasharray:5.235,5.235;}
</style>
<path class="st0" d="M125.7,45.4h-24.3c-2.8,0-5-2.2-5-5V27.8c0-2.8,2.2-5,5-5h24.3c2.7,0,5,2.2,5,5v12.7
	C130.7,43.2,128.5,45.4,125.7,45.4z"/>
<path class="st0" d="M133.1,93.1H92.7c-2.8,0-5-2.2-5-5v-8.3c0-2.8,2.2-5,5-5h40.3c2.8,0,5,2.2,5,5v8.3
	C138.1,90.8,135.8,93.1,133.1,93.1z"/>
<path class="st0" d="M241.1,124.4h-22c-2.8,0-5-2.2-5-5v-2.7c0-2.8,2.2-5,5-5h22c2.8,0,5,2.2,5,5v2.7
	C246.1,122.2,243.8,124.4,241.1,124.4z"/>
<path class="st0" d="M250.1,129.1h-65.7c-2.8,0-5-2.2-5-5V64.8c0-2.8,2.2-5,5-5h65.7c2.8,0,5,2.2,5,5v59.3
	C255.1,126.8,252.8,129.1,250.1,129.1z"/>
<path class="st0" d="M150.7,154.4H72.4c-2.8,0-5-2.2-5-5V7.8c0-2.8,2.2-5,5-5h78.3c2.8,0,5,2.2,5,5v141.7
	C155.7,152.2,153.5,154.4,150.7,154.4z"/>
<path class="st0" d="M117.1,147.1h-11.3c-2.8,0-5-2.2-5-5v-12c0-2.7,2.2-5,5-5h11.3c2.8,0,5,2.2,5,5v12
	C122.1,144.8,119.8,147.1,117.1,147.1z"/>
<path class="st0" d="M58.7,94.4h-48c-1.6,0-3-1.3-3-3V79.1c0-1.7,1.3-3,3-3h48c1.6,0,3,1.3,3,3v12.3C61.7,93.1,60.4,94.4,58.7,94.4z
	"/>
<polygon class="st0" points="187.9,95.9 236.6,95.9 239.1,93.1 234.9,90.8 239.1,88.3 234.6,85.8 239.1,83.1 234.7,80.8 239.1,78.6 
	235.1,75.6 239.1,72.6 236.4,70.6 187.9,70.6 184.9,72.8 189.4,75.6 184.9,78.1 189.1,80.4 184.9,83.3 188.9,85.6 185.6,87.3 
	188.7,90.4 184.9,93.1 "/>
<path class="st0" d="M335.1,124.4h-22c-2.8,0-5-2.2-5-5v-2.7c0-2.8,2.2-5,5-5h22c2.8,0,5,2.2,5,5v2.7
	C340.1,122.2,337.8,124.4,335.1,124.4z"/>
<path class="st0" d="M344.1,129.1h-65.7c-2.8,0-5-2.2-5-5V64.8c0-2.8,2.2-5,5-5h65.7c2.8,0,5,2.2,5,5v59.3
	C349.1,126.8,346.8,129.1,344.1,129.1z"/>
<polygon class="st0" points="281.9,95.9 330.6,95.9 333.1,93.1 328.9,90.8 333.1,88.3 328.6,85.8 333.1,83.1 328.7,80.8 333.1,78.6 
	329.1,75.6 333.1,72.6 330.4,70.6 281.9,70.6 278.9,72.8 283.4,75.6 278.9,78.1 283.1,80.4 278.9,83.3 282.9,85.6 279.6,87.3 
	282.7,90.4 278.9,93.1 "/>
<path class="st0" d="M241.1,124.4h-22c-2.8,0-5-2.2-5-5v-2.7c0-2.8,2.2-5,5-5h22c2.8,0,5,2.2,5,5v2.7
	C246.1,122.2,243.8,124.4,241.1,124.4z"/>
<path class="st0" d="M250.1,129.1h-65.7c-2.8,0-5-2.2-5-5V64.8c0-2.8,2.2-5,5-5h65.7c2.8,0,5,2.2,5,5v59.3
	C255.1,126.8,252.8,129.1,250.1,129.1z"/>
<polygon class="st0" points="187.9,95.9 236.6,95.9 239.1,93.1 234.9,90.8 239.1,88.3 234.6,85.8 239.1,83.1 234.7,80.8 239.1,78.6 
	235.1,75.6 239.1,72.6 236.4,70.6 187.9,70.6 184.9,72.8 189.4,75.6 184.9,78.1 189.1,80.4 184.9,83.3 188.9,85.6 185.6,87.3 
	188.7,90.4 184.9,93.1 "/>
<path class="st0" d="M425.4,124.4h-22c-2.8,0-5-2.2-5-5v-2.7c0-2.8,2.2-5,5-5h22c2.8,0,5,2.2,5,5v2.7
	C430.4,122.2,428.2,124.4,425.4,124.4z"/>
<path class="st0" d="M434.4,129.1h-65.7c-2.8,0-5-2.2-5-5V64.8c0-2.8,2.2-5,5-5h65.7c2.8,0,5,2.2,5,5v59.3
	C439.4,126.8,437.2,129.1,434.4,129.1z"/>
<polygon class="st0" points="372.2,95.9 420.9,95.9 423.4,93.1 419.2,90.8 423.4,88.3 418.9,85.8 423.4,83.1 419.1,80.8 423.4,78.6 
	419.4,75.6 423.4,72.6 420.7,70.6 372.2,70.6 369.2,72.8 373.7,75.6 369.2,78.1 373.4,80.4 369.2,83.3 373.2,85.6 369.9,87.3 
	373.1,90.4 369.2,93.1 "/>
<path class="st0" d="M241.1,329.6h-22c-2.8,0-5-2.2-5-5v-2.7c0-2.8,2.2-5,5-5h22c2.8,0,5,2.2,5,5v2.7
	C246.1,327.3,243.8,329.6,241.1,329.6z"/>
<path class="st0" d="M250.1,334.3h-65.7c-2.8,0-5-2.2-5-5v-59.3c0-2.8,2.2-5,5-5h65.7c2.8,0,5,2.2,5,5v59.3
	C255.1,332,252.8,334.3,250.1,334.3z"/>
<polygon class="st0" points="187.9,301.1 236.6,301.1 239.1,298.3 234.9,295.9 239.1,293.4 234.6,290.9 239.1,288.3 234.7,285.9 
	239.1,283.8 235.1,280.8 239.1,277.8 236.4,275.8 187.9,275.8 184.9,277.9 189.4,280.8 184.9,283.3 189.1,285.6 184.9,288.4 
	188.9,290.8 185.6,292.4 188.7,295.6 184.9,298.3 "/>
<path class="st0" d="M335.1,329.6h-22c-2.8,0-5-2.2-5-5v-2.7c0-2.8,2.2-5,5-5h22c2.8,0,5,2.2,5,5v2.7
	C340.1,327.3,337.8,329.6,335.1,329.6z"/>
<path class="st0" d="M344.1,334.3h-65.7c-2.8,0-5-2.2-5-5v-59.3c0-2.8,2.2-5,5-5h65.7c2.8,0,5,2.2,5,5v59.3
	C349.1,332,346.8,334.3,344.1,334.3z"/>
<polygon class="st0" points="281.9,301.1 330.6,301.1 333.1,298.3 328.9,295.9 333.1,293.4 328.6,290.9 333.1,288.3 328.7,285.9 
	333.1,283.8 329.1,280.8 333.1,277.8 330.4,275.8 281.9,275.8 278.9,277.9 283.4,280.8 278.9,283.3 283.1,285.6 278.9,288.4 
	282.9,290.8 279.6,292.4 282.7,295.6 278.9,298.3 "/>
<path class="st0" d="M241.1,329.6h-22c-2.8,0-5-2.2-5-5v-2.7c0-2.8,2.2-5,5-5h22c2.8,0,5,2.2,5,5v2.7
	C246.1,327.3,243.8,329.6,241.1,329.6z"/>
<path class="st0" d="M250.1,334.3h-65.7c-2.8,0-5-2.2-5-5v-59.3c0-2.8,2.2-5,5-5h65.7c2.8,0,5,2.2,5,5v59.3
	C255.1,332,252.8,334.3,250.1,334.3z"/>
<polygon class="st0" points="187.9,301.1 236.6,301.1 239.1,298.3 234.9,295.9 239.1,293.4 234.6,290.9 239.1,288.3 234.7,285.9 
	239.1,283.8 235.1,280.8 239.1,277.8 236.4,275.8 187.9,275.8 184.9,277.9 189.4,280.8 184.9,283.3 189.1,285.6 184.9,288.4 
	188.9,290.8 185.6,292.4 188.7,295.6 184.9,298.3 "/>
<path class="st0" d="M425.4,329.6h-22c-2.8,0-5-2.2-5-5v-2.7c0-2.8,2.2-5,5-5h22c2.8,0,5,2.2,5,5v2.7
	C430.4,327.3,428.2,329.6,425.4,329.6z"/>
<path class="st0" d="M434.4,334.3h-65.7c-2.8,0-5-2.2-5-5v-59.3c0-2.8,2.2-5,5-5h65.7c2.8,0,5,2.2,5,5v59.3
	C439.4,332,437.2,334.3,434.4,334.3z"/>
<polygon class="st0" points="372.2,301.1 420.9,301.1 423.4,298.3 419.2,295.9 423.4,293.4 418.9,290.9 423.4,288.3 419.1,285.9 
	423.4,283.8 419.4,280.8 423.4,277.8 420.7,275.8 372.2,275.8 369.2,277.9 373.7,280.8 369.2,283.3 373.4,285.6 369.2,288.4 
	373.2,290.8 369.9,292.4 373.1,295.6 369.2,298.3 "/>
<path class="st0" d="M152.7,358.3H74.4c-2.8,0-5-2.2-5-5V190.1c0-2.8,2.2-5,5-5h78.3c2.8,0,5,2.2,5,5v163.2
	C157.7,356,155.5,358.3,152.7,358.3z"/>
<path class="st0" d="M133.7,218.8H93.4c-2.8,0-5-2.2-5-5v-8.3c0-2.8,2.2-5,5-5h40.3c2.8,0,5,2.2,5,5v8.3
	C138.7,216.6,136.5,218.8,133.7,218.8z"/>
<path class="st0" d="M133.7,242.8H93.4c-2.8,0-5-2.2-5-5v-8.3c0-2.8,2.2-5,5-5h40.3c2.8,0,5,2.2,5,5v8.3
	C138.7,240.5,136.5,242.8,133.7,242.8z"/>
<path class="st0" d="M133.8,264.9H93.4c-2.8,0-5-2.2-5-5v-8.3c0-2.8,2.2-5,5-5h40.3c2.8,0,5,2.2,5,5v8.3
	C138.8,262.7,136.5,264.9,133.8,264.9z"/>
<path class="st0" d="M56.4,220.5h-48c-1.7,0-3-1.3-3-3v-12.3c0-1.6,1.4-3,3-3h48c1.7,0,3,1.4,3,3v12.3
	C59.4,219.1,58,220.5,56.4,220.5z"/>
<path class="st0" d="M56.4,243.1h-48c-1.7,0-3-1.4-3-3v-12.3c0-1.7,1.4-3,3-3h48c1.7,0,3,1.3,3,3v12.3
	C59.4,241.8,58,243.1,56.4,243.1z"/>
<path class="st0" d="M56.4,266h-48c-1.7,0-3-1.4-3-3v-12.3c0-1.6,1.4-3,3-3h48c1.7,0,3,1.4,3,3V263C59.4,264.7,58,266,56.4,266z"/>
<g>
	<g>
		<path class="st0" d="M122.1,136.1c13,0,247.5,0,255.1,0c15.6,0,15.6-7,15.6-24.3c0-2.9,0-5.3,0-7.3"/>
		<g>
			<polygon points="392.7,99.4 395.8,106.9 392.7,105.1 389.7,106.9 			"/>
		</g>
	</g>
</g>
<g>
	<g>
		<path class="st0" d="M122.1,136.4c8.6,0,161-0.3,166-0.3c10.3,0,12.6-6,12.6-24.5c0-3.1,0-5.6,0-7.7"/>
		<g>
			<polygon points="300.6,98.9 303.7,106.4 300.6,104.6 297.6,106.4 			"/>
		</g>
	</g>
</g>
<g>
	<g>
		<path class="st0" d="M122.1,136.1c4,0,71.9,0,74.3,0c9.1,0,9.6-7,9.6-24.5c0-3.1,0-5.6,0-7.7"/>
		<g>
			<polygon points="205.9,98.9 209,106.4 205.9,104.6 202.9,106.4 			"/>
		</g>
	</g>
</g>
<g>
	<g>
		<line class="st0" x1="324.1" y1="111.8" x2="320.6" y2="103.6"/>
		<g>
			<polygon points="318.6,98.8 324.3,104.4 320.8,104 318.7,106.8 			"/>
		</g>
	</g>
</g>
<g>
	<g>
		<line class="st0" x1="231.1" y1="111.8" x2="227.6" y2="103.6"/>
		<g>
			<polygon points="225.6,98.8 231.3,104.4 227.8,104 225.7,106.8 			"/>
		</g>
	</g>
</g>
<g>
	<g>
		<line class="st0" x1="416.3" y1="111.8" x2="412.9" y2="103.6"/>
		<g>
			<polygon points="410.8,98.8 416.6,104.4 413.1,104 410.9,106.8 			"/>
		</g>
	</g>
</g>
<g>
	<g>
		<path class="st0" d="M123,336.4c4,0,71.9,0,74.3,0c11,0,9.6-4.3,9.6-20.8c0-3.1,0-5.6,0-7.7"/>
		<g>
			<polygon points="206.8,302.9 209.8,310.4 206.8,308.6 203.7,310.4 			"/>
		</g>
	</g>
</g>
<g>
	<g>
		<path class="st0" d="M122.7,341.8c8.6,0,161-0.3,166-0.3c9.9,0,12.6-5.2,12.6-24.5c0-3.1,0-5.6,0-7.7"/>
		<g>
			<polygon points="301.3,304.4 304.3,311.9 301.3,310.1 298.2,311.9 			"/>
		</g>
	</g>
</g>
<g>
	<g>
		<path class="st0" d="M123,347.1c13,0,247.5,0,255.1,0c15.6,0,15.6-6.5,15.6-24.3c0-6.7,0-11.2,0-14.2"/>
		<g>
			<polygon points="393.6,303.3 396.7,310.7 393.6,308.9 390.6,310.7 			"/>
		</g>
	</g>
</g>
<g>
	<g>
		<line class="st0" x1="324.4" y1="316.9" x2="321" y2="308.8"/>
		<g>
			<polygon points="318.9,303.9 324.7,309.6 321.2,309.2 319,312 			"/>
		</g>
	</g>
</g>
<g>
	<g>
		<line class="st0" x1="231.4" y1="316.9" x2="228" y2="308.8"/>
		<g>
			<polygon points="225.9,303.9 231.6,309.6 228.1,309.2 226,312 			"/>
		</g>
	</g>
</g>
<g>
	<g>
		<line class="st0" x1="416.7" y1="316.9" x2="413.3" y2="308.8"/>
		<g>
			<polygon points="411.2,303.9 416.9,309.6 413.4,309.2 411.3,312 			"/>
		</g>
	</g>
</g>
<path class="st0" d="M118.1,352.1h-11.3c-2.8,0-5-2.2-5-5v-12c0-2.8,2.2-5,5-5h11.3c2.8,0,5,2.2,5,5v12
	C123.1,349.9,120.8,352.1,118.1,352.1z"/>
<g>
	<g>
		<line class="st0" x1="112.9" y1="45.4" x2="112.9" y2="66.9"/>
		<g>
			<polygon points="112.9,73.9 108.8,64 112.9,66.3 117,64 			"/>
		</g>
	</g>
</g>
<g>
	<g>
		<line class="st0" x1="61.7" y1="84.6" x2="78.3" y2="84.6"/>
		<g>
			<polygon points="85.4,84.6 75.5,88.7 77.8,84.6 75.5,80.5 			"/>
		</g>
	</g>
</g>
<g>
	<g>
		<line class="st1" x1="111.6" y1="95.6" x2="111.6" y2="116.2"/>
		<g>
			<polygon class="st2" points="111.6,123.3 107.5,113.3 111.6,115.7 115.6,113.3 			"/>
		</g>
	</g>
</g>
<g>
	<g>
		<line class="st0" x1="59.4" y1="209.7" x2="80" y2="209.7"/>
		<g>
			<polygon points="87.1,209.7 77.1,213.7 79.5,209.7 77.1,205.6 			"/>
		</g>
	</g>
</g>
<g>
	<g>
		<line class="st0" x1="59.4" y1="233.6" x2="80" y2="233.6"/>
		<g>
			<polygon points="87.1,233.6 77.1,237.7 79.5,233.6 77.1,229.5 			"/>
		</g>
	</g>
</g>
<g>
	<g>
		<line class="st0" x1="59.4" y1="255.8" x2="80" y2="255.8"/>
		<g>
			<polygon points="87.1,255.8 77.1,259.8 79.5,255.8 77.1,251.7 			"/>
		</g>
	</g>
</g>
<g>
	<g>
		<path class="st0" d="M205.9,70.6c0-24.3-1.1-29.1-23.8-29.1h-42.4"/>
		<g>
			<polygon points="132.6,41.5 142.5,37.4 140.2,41.5 142.5,45.6 			"/>
		</g>
	</g>
</g>
<g>
	<g>
		<path class="st0" d="M299.7,70.6c0,0,0-17.1,0-24.3c0-8.2-0.7-12.2-16.8-12.2H139.6"/>
		<g>
			<polygon points="132.6,34.1 142.5,30 140.2,34.1 142.5,38.2 			"/>
		</g>
	</g>
</g>
<g>
	<g>
		<path class="st0" d="M392.7,70.6c0,0,0-18,0-26.7c0-19.7-8-17.2-23.5-17.2H139.6"/>
		<g>
			<polygon points="132.6,26.8 142.5,22.7 140.2,26.8 142.5,30.8 			"/>
		</g>
	</g>
</g>
<g>
	<g>
		<path class="st0" d="M206.8,275.8c0-18.4-1.1-17.5-23.8-17.5h-33.8"/>
		<g>
			<polygon points="142.1,258.3 152,254.2 149.7,258.3 152,262.3 			"/>
		</g>
	</g>
</g>
<g>
	<g>
		<path class="st0" d="M300.6,275.8c0,0,0-22.7,0-30c0-7-4-12.2-16.8-12.2H148.1"/>
		<g>
			<polygon points="141.1,233.6 151,229.5 148.7,233.6 151,237.7 			"/>
		</g>
	</g>
</g>
<g>
	<g>
		<path class="st0" d="M393.6,275.8c0,0,0-39.2,0-47.8c0-13.9-6.8-17.2-23.5-17.2h-221"/>
		<g>
			<polygon points="142.1,210.8 152,206.7 149.7,210.8 152,214.8 			"/>
		</g>
	</g>
</g>
<path class="st1" d="M89.2,216.6c-3.7,0.8-11.8,1.5-13.4,2.3c-1.6,0.8-4,1.7-4,7.3s0,5.6,0,5.6"/>
<line class="st1" x1="71.8" y1="236.3" x2="71.8" y2="253.9"/>
<g>
	<g>
		<path class="st1" d="M71.8,258.3v74.4c0,0,0,8.4,0,9.2s0.4,4.5,1.1,5.2c0.8,0.8,1.1,1.7,9.6,1.7c3.7,0,7.5,0,10.7,0"/>
		<g>
			<polygon class="st2" points="100.3,348.8 90.4,352.8 92.7,348.8 90.4,344.7 			"/>
		</g>
	</g>
</g>
<path class="st1" d="M89.2,240.5c-4.3,1.5-9.7,2.9-10.7,3.4s-3.3,1.6-3.3,4.9s0,5.1,0,5.1"/>
<g>
	<g>
		<path class="st1" d="M75.3,258.3v72.5c0,0-0.1,4.5,0,5.7c0.1,1.2-0.4,5.4,3.5,5.4h14.4"/>
		<g>
			<polygon class="st2" points="100.3,341.8 90.4,345.9 92.7,341.8 90.4,337.8 			"/>
		</g>
	</g>
</g>
<g>
	<g>
		<path class="st1" d="M89.8,263.4c0,0-6.3,2.5-7.6,3.1s-3.3,1.6-3.3,2.8s0,55,0,55s0,4.1,0,5.2s-0.5,4.9,4.1,4.9
			c2.3,0,6.5,0,10.2,0"/>
		<g>
			<polygon class="st2" points="100.3,334.4 90.4,338.4 92.7,334.4 90.4,330.3 			"/>
		</g>
	</g>
</g>
<g>
	<g>
		<line class="st3" x1="4.5" y1="173.1" x2="7.1" y2="173.1"/>
		<line class="st4" x1="12.4" y1="173.1" x2="439" y2="173.1"/>
		<line class="st3" x1="441.6" y1="173.1" x2="444.2" y2="173.1"/>
	</g>
</g>
<g>
	<path d="M25.3,89c-0.5,0.2-1.4,0.5-2.5,0.5c-2.7,0-4.8-1.7-4.8-4.9c0-3,2-5.1,5-5.1c1.2,0,2,0.3,2.3,0.4l-0.3,1
		c-0.5-0.2-1.1-0.4-1.9-0.4c-2.3,0-3.8,1.4-3.8,4c0,2.4,1.4,3.9,3.7,3.9c0.8,0,1.5-0.2,2-0.4L25.3,89z"/>
	<path d="M26.8,79.1H28v10.2h-1.3V79.1z"/>
	<path d="M31.6,80.4c0,0.4-0.3,0.8-0.8,0.8c-0.4,0-0.8-0.3-0.8-0.8c0-0.4,0.3-0.8,0.8-0.8C31.3,79.6,31.6,80,31.6,80.4z M30.2,89.3
		v-6.9h1.3v6.9H30.2z"/>
	<path d="M34.2,86c0,1.7,1.1,2.4,2.4,2.4c0.9,0,1.4-0.2,1.9-0.4l0.2,0.9c-0.4,0.2-1.2,0.4-2.3,0.4c-2.1,0-3.4-1.4-3.4-3.5
		s1.2-3.7,3.2-3.7c2.3,0,2.9,2,2.9,3.3c0,0.3,0,0.5,0,0.6H34.2z M37.9,85.1c0-0.8-0.3-2-1.7-2c-1.3,0-1.8,1.2-1.9,2H37.9z"/>
	<path d="M40.7,84.2c0-0.7,0-1.3-0.1-1.9h1.1l0.1,1.1h0c0.3-0.7,1.1-1.3,2.3-1.3c1,0,2.4,0.6,2.4,2.9v4.1h-1.3v-4c0-1.1-0.4-2-1.6-2
		c-0.8,0-1.5,0.6-1.7,1.3c-0.1,0.2-0.1,0.4-0.1,0.6v4.2h-1.3V84.2z"/>
	<path d="M50.1,80.4v2h1.8v1h-1.8V87c0,0.9,0.2,1.3,0.9,1.3c0.3,0,0.6,0,0.7-0.1l0.1,0.9c-0.2,0.1-0.6,0.2-1.1,0.2
		c-0.6,0-1.1-0.2-1.4-0.5c-0.4-0.4-0.5-1-0.5-1.8v-3.8h-1.1v-1h1.1v-1.7L50.1,80.4z"/>
</g>
<g>
	<path d="M104.4,36.2l-1,3h-1.3l3.3-9.6h1.5l3.3,9.6h-1.3l-1-3H104.4z M107.5,35.3l-0.9-2.8c-0.2-0.6-0.4-1.2-0.5-1.8h0
		c-0.1,0.6-0.3,1.2-0.5,1.7l-0.9,2.8H107.5z"/>
	<path d="M117.3,29.1v8.4c0,0.6,0,1.3,0.1,1.8h-1.1l-0.1-1.2h0c-0.4,0.8-1.2,1.4-2.4,1.4c-1.7,0-3-1.4-3-3.5c0-2.3,1.4-3.7,3.1-3.7
		c1.1,0,1.8,0.5,2.1,1.1h0v-4.1H117.3z M116.1,35.2c0-0.2,0-0.4-0.1-0.5c-0.2-0.8-0.9-1.5-1.8-1.5c-1.3,0-2.1,1.1-2.1,2.7
		c0,1.4,0.7,2.6,2,2.6c0.8,0,1.6-0.6,1.8-1.5c0-0.2,0.1-0.3,0.1-0.5V35.2z"/>
	<path d="M125.4,29.1v8.4c0,0.6,0,1.3,0.1,1.8h-1.1l-0.1-1.2h0c-0.4,0.8-1.2,1.4-2.4,1.4c-1.7,0-3-1.4-3-3.5c0-2.3,1.4-3.7,3.1-3.7
		c1.1,0,1.8,0.5,2.1,1.1h0v-4.1H125.4z M124.2,35.2c0-0.2,0-0.4-0.1-0.5c-0.2-0.8-0.9-1.5-1.8-1.5c-1.3,0-2.1,1.1-2.1,2.7
		c0,1.4,0.7,2.6,2,2.6c0.8,0,1.6-0.6,1.8-1.5c0-0.2,0.1-0.3,0.1-0.5V35.2z"/>
</g>
<g>
	<path d="M92.7,78.6v5.7c0,2.2,1,3.1,2.2,3.1c1.4,0,2.3-0.9,2.3-3.1v-5.7h1.3v5.6c0,3-1.6,4.2-3.6,4.2c-2,0-3.5-1.1-3.5-4.1v-5.7
		H92.7z"/>
	<path d="M100.6,83.6c0-0.9,0-1.6-0.1-2.3h1.1l0.1,1.2h0c0.5-0.8,1.3-1.3,2.5-1.3c1.7,0,2.9,1.4,2.9,3.5c0,2.5-1.5,3.7-3.1,3.7
		c-0.9,0-1.7-0.4-2.1-1.1h0v3.8h-1.2V83.6z M101.9,85.5c0,0.2,0,0.4,0.1,0.5c0.2,0.9,1,1.5,1.9,1.5c1.3,0,2.1-1.1,2.1-2.7
		c0-1.4-0.7-2.6-2.1-2.6c-0.9,0-1.7,0.6-1.9,1.6c0,0.2-0.1,0.3-0.1,0.5V85.5z"/>
	<path d="M114.7,78.1v8.4c0,0.6,0,1.3,0.1,1.8h-1.1l-0.1-1.2h0c-0.4,0.8-1.2,1.4-2.4,1.4c-1.7,0-3-1.4-3-3.5c0-2.3,1.4-3.7,3.1-3.7
		c1.1,0,1.8,0.5,2.1,1.1h0v-4.1H114.7z M113.5,84.2c0-0.2,0-0.4-0.1-0.5c-0.2-0.8-0.9-1.5-1.8-1.5c-1.3,0-2.1,1.1-2.1,2.7
		c0,1.4,0.7,2.6,2,2.6c0.8,0,1.6-0.6,1.8-1.5c0-0.2,0.1-0.3,0.1-0.5V84.2z"/>
	<path d="M120.7,88.3l-0.1-0.9h0c-0.4,0.5-1.1,1-2.1,1c-1.4,0-2.1-1-2.1-2c0-1.7,1.5-2.6,4.2-2.6v-0.1c0-0.6-0.2-1.6-1.6-1.6
		c-0.6,0-1.3,0.2-1.8,0.5l-0.3-0.8c0.6-0.4,1.4-0.6,2.3-0.6c2.1,0,2.6,1.4,2.6,2.8v2.6c0,0.6,0,1.2,0.1,1.7H120.7z M120.5,84.7
		c-1.4,0-2.9,0.2-2.9,1.6c0,0.8,0.5,1.2,1.2,1.2c0.9,0,1.5-0.6,1.7-1.2c0-0.1,0.1-0.3,0.1-0.4V84.7z"/>
	<path d="M125.2,79.4v2h1.8v1h-1.8V86c0,0.9,0.2,1.3,0.9,1.3c0.3,0,0.6,0,0.7-0.1l0.1,0.9c-0.2,0.1-0.6,0.2-1.1,0.2
		c-0.6,0-1.1-0.2-1.4-0.5c-0.4-0.4-0.5-1-0.5-1.8v-3.8h-1.1v-1h1.1v-1.7L125.2,79.4z"/>
	<path d="M129,85c0,1.7,1.1,2.4,2.4,2.4c0.9,0,1.4-0.2,1.9-0.4l0.2,0.9c-0.4,0.2-1.2,0.4-2.3,0.4c-2.1,0-3.4-1.4-3.4-3.5
		c0-2.1,1.2-3.7,3.2-3.7c2.3,0,2.9,2,2.9,3.3c0,0.3,0,0.5,0,0.6H129z M132.7,84.1c0-0.8-0.3-2-1.7-2c-1.3,0-1.8,1.2-1.9,2H132.7z"/>
</g>
<g>
	<path d="M107.7,132c0.6-0.1,1.4-0.2,2.4-0.2c1.2,0,2.1,0.3,2.7,0.8c0.5,0.5,0.8,1.2,0.8,2c0,0.9-0.3,1.6-0.7,2.1
		c-0.7,0.7-1.7,1.1-2.9,1.1c-0.4,0-0.7,0-1-0.1v3.9h-1.2V132z M108.9,136.6c0.3,0.1,0.6,0.1,1,0.1c1.5,0,2.4-0.7,2.4-2.1
		c0-1.3-0.9-1.9-2.3-1.9c-0.5,0-1,0-1.2,0.1V136.6z"/>
</g>
<g>
	<path d="M163.7,23.6l3.4-8.9h1.4l3.3,8.9v0.7h-8.1V23.6z M170.4,23.2l-2-5.3c-0.2-0.7-0.5-1.5-0.7-2.1h0c-0.1,0.5-0.4,1.3-0.6,2
		l-2,5.5H170.4z"/>
	<path d="M173.3,14.7c0.6-0.1,1.4-0.2,2.4-0.2c1.2,0,2.1,0.3,2.7,0.8c0.5,0.5,0.8,1.2,0.8,2c0,0.9-0.3,1.6-0.7,2.1
		c-0.7,0.7-1.7,1.1-2.9,1.1c-0.4,0-0.7,0-1-0.1v3.9h-1.2V14.7z M174.5,19.4c0.3,0.1,0.6,0.1,1,0.1c1.5,0,2.4-0.7,2.4-2.1
		c0-1.3-0.9-1.9-2.3-1.9c-0.5,0-1,0-1.2,0.1V19.4z"/>
</g>
<g>
	<path d="M76,6.7c0.4-0.1,0.8-0.1,1.4-0.1c0.7,0,1.3,0.2,1.6,0.5c0.3,0.3,0.5,0.7,0.5,1.2c0,0.5-0.2,0.9-0.4,1.2
		c-0.4,0.4-1,0.6-1.7,0.6c-0.2,0-0.4,0-0.6-0.1v2.3H76V6.7z M76.7,9.5c0.2,0,0.4,0.1,0.6,0.1c0.9,0,1.4-0.4,1.4-1.2
		c0-0.8-0.5-1.1-1.3-1.1c-0.3,0-0.6,0-0.7,0.1V9.5z"/>
	<path d="M82.5,12.4l-0.1-0.5h0c-0.2,0.3-0.7,0.6-1.3,0.6c-0.8,0-1.3-0.6-1.3-1.2c0-1,0.9-1.5,2.5-1.5V9.7c0-0.3-0.1-1-0.9-1
		c-0.4,0-0.8,0.1-1.1,0.3l-0.2-0.5c0.3-0.2,0.8-0.4,1.3-0.4c1.3,0,1.6,0.9,1.6,1.7v1.5c0,0.4,0,0.7,0.1,1H82.5z M82.4,10.3
		c-0.8,0-1.7,0.1-1.7,0.9c0,0.5,0.3,0.7,0.7,0.7c0.5,0,0.9-0.3,1-0.7c0-0.1,0-0.2,0-0.2V10.3z"/>
	<path d="M84.3,9.6c0-0.5,0-0.9,0-1.3h0.7l0,0.8h0c0.2-0.6,0.6-0.9,1.1-0.9c0.1,0,0.1,0,0.2,0v0.7c-0.1,0-0.2,0-0.3,0
		c-0.5,0-0.9,0.4-1,1c0,0.1,0,0.2,0,0.3v2.2h-0.7V9.6z"/>
	<path d="M89.3,12.4l-0.1-0.5h0c-0.2,0.3-0.7,0.6-1.3,0.6c-0.8,0-1.3-0.6-1.3-1.2c0-1,0.9-1.5,2.5-1.5V9.7c0-0.3-0.1-1-0.9-1
		c-0.4,0-0.8,0.1-1.1,0.3L87,8.5c0.3-0.2,0.8-0.4,1.3-0.4c1.3,0,1.6,0.9,1.6,1.7v1.5c0,0.4,0,0.7,0.1,1H89.3z M89.2,10.3
		c-0.8,0-1.7,0.1-1.7,0.9c0,0.5,0.3,0.7,0.7,0.7c0.5,0,0.9-0.3,1-0.7c0-0.1,0-0.2,0-0.2V10.3z"/>
	<path d="M91.1,9.4c0-0.4,0-0.8,0-1.1h0.7l0,0.7h0c0.2-0.4,0.6-0.8,1.3-0.8c0.6,0,1,0.3,1.2,0.8h0c0.1-0.2,0.3-0.4,0.5-0.5
		c0.2-0.2,0.5-0.3,0.9-0.3c0.5,0,1.3,0.4,1.3,1.8v2.4h-0.7v-2.3c0-0.8-0.3-1.3-0.9-1.3c-0.4,0-0.8,0.3-0.9,0.7
		c0,0.1-0.1,0.2-0.1,0.4v2.5h-0.7V9.9c0-0.7-0.3-1.1-0.9-1.1c-0.5,0-0.8,0.4-0.9,0.7c0,0.1-0.1,0.2-0.1,0.4v2.5h-0.7V9.4z"/>
	<path d="M98.6,10.5c0,1,0.7,1.4,1.4,1.4c0.5,0,0.9-0.1,1.1-0.2l0.1,0.5c-0.3,0.1-0.7,0.3-1.4,0.3c-1.3,0-2-0.8-2-2.1
		c0-1.2,0.7-2.2,1.9-2.2c1.3,0,1.7,1.2,1.7,1.9c0,0.2,0,0.3,0,0.3H98.6z M100.8,9.9c0-0.5-0.2-1.2-1-1.2c-0.8,0-1.1,0.7-1.1,1.2
		H100.8z"/>
	<path d="M103.4,7.1v1.2h1.1v0.6h-1.1v2.2c0,0.5,0.1,0.8,0.6,0.8c0.2,0,0.3,0,0.4-0.1l0,0.6c-0.1,0.1-0.4,0.1-0.7,0.1
		c-0.3,0-0.6-0.1-0.8-0.3c-0.2-0.2-0.3-0.6-0.3-1.1V8.8H102V8.3h0.6v-1L103.4,7.1z"/>
	<path d="M105.6,10.5c0,1,0.7,1.4,1.4,1.4c0.5,0,0.9-0.1,1.1-0.2l0.1,0.5c-0.3,0.1-0.7,0.3-1.4,0.3c-1.3,0-2-0.8-2-2.1
		c0-1.2,0.7-2.2,1.9-2.2c1.3,0,1.7,1.2,1.7,1.9c0,0.2,0,0.3,0,0.3H105.6z M107.8,9.9c0-0.5-0.2-1.2-1-1.2c-0.8,0-1.1,0.7-1.1,1.2
		H107.8z"/>
	<path d="M109.5,9.6c0-0.5,0-0.9,0-1.3h0.7l0,0.8h0c0.2-0.6,0.6-0.9,1.1-0.9c0.1,0,0.1,0,0.2,0v0.7c-0.1,0-0.2,0-0.3,0
		c-0.5,0-0.9,0.4-1,1c0,0.1,0,0.2,0,0.3v2.2h-0.7V9.6z"/>
	<path d="M114.1,6.7c0.4-0.1,1-0.1,1.6-0.1c1.1,0,1.8,0.2,2.3,0.7c0.5,0.5,0.8,1.1,0.8,2.1c0,0.9-0.3,1.7-0.8,2.2
		c-0.5,0.5-1.4,0.8-2.5,0.8c-0.5,0-1,0-1.3-0.1V6.7z M114.8,11.8c0.2,0,0.5,0,0.7,0c1.6,0,2.4-0.9,2.4-2.4c0-1.3-0.8-2.2-2.3-2.2
		c-0.4,0-0.7,0-0.9,0.1V11.8z"/>
	<path d="M120.1,10.5c0,1,0.7,1.4,1.4,1.4c0.5,0,0.9-0.1,1.1-0.2l0.1,0.5c-0.3,0.1-0.7,0.3-1.4,0.3c-1.3,0-2-0.8-2-2.1
		c0-1.2,0.7-2.2,1.9-2.2c1.3,0,1.7,1.2,1.7,1.9c0,0.2,0,0.3,0,0.3H120.1z M122.3,9.9c0-0.5-0.2-1.2-1-1.2c-0.8,0-1.1,0.7-1.1,1.2
		H122.3z"/>
	<path d="M124.3,8.3l0.8,2.3c0.1,0.4,0.2,0.7,0.3,1.1h0c0.1-0.3,0.2-0.7,0.3-1.1l0.8-2.3h0.8l-1.6,4.1H125l-1.6-4.1H124.3z"/>
	<path d="M128.9,7.1c0,0.3-0.2,0.5-0.5,0.5c-0.3,0-0.4-0.2-0.4-0.5c0-0.3,0.2-0.5,0.5-0.5C128.7,6.7,128.9,6.9,128.9,7.1z M128,12.4
		V8.3h0.7v4.1H128z"/>
	<path d="M133,12.2c-0.2,0.1-0.6,0.2-1.2,0.2c-1.2,0-2-0.8-2-2.1c0-1.3,0.9-2.2,2.2-2.2c0.4,0,0.8,0.1,1,0.2L132.8,9
		c-0.2-0.1-0.5-0.2-0.9-0.2c-0.9,0-1.5,0.7-1.5,1.6c0,1,0.6,1.5,1.4,1.5c0.4,0,0.7-0.1,0.9-0.2L133,12.2z"/>
	<path d="M134.2,10.5c0,1,0.7,1.4,1.4,1.4c0.5,0,0.9-0.1,1.1-0.2l0.1,0.5c-0.3,0.1-0.7,0.3-1.4,0.3c-1.3,0-2-0.8-2-2.1
		c0-1.2,0.7-2.2,1.9-2.2c1.3,0,1.7,1.2,1.7,1.9c0,0.2,0,0.3,0,0.3H134.2z M136.4,9.9c0-0.5-0.2-1.2-1-1.2c-0.8,0-1.1,0.7-1.1,1.2
		H136.4z"/>
	<path d="M139.6,6.5c-0.6,0.8-1.1,1.9-1.1,3.5c0,1.5,0.5,2.6,1.1,3.4h-0.6c-0.5-0.7-1.1-1.8-1.1-3.4c0-1.7,0.6-2.8,1.1-3.5H139.6z"
		/>
	<path d="M140.3,11.6c0.2,0.1,0.6,0.3,1,0.3c0.5,0,0.8-0.3,0.8-0.6c0-0.4-0.2-0.6-0.8-0.8c-0.7-0.3-1.1-0.7-1.1-1.2
		c0-0.7,0.5-1.2,1.4-1.2c0.4,0,0.8,0.1,1,0.3L142.5,9c-0.2-0.1-0.5-0.2-0.8-0.2c-0.4,0-0.7,0.3-0.7,0.6c0,0.3,0.2,0.5,0.8,0.7
		c0.7,0.3,1.1,0.6,1.1,1.2c0,0.7-0.6,1.2-1.5,1.2c-0.4,0-0.9-0.1-1.2-0.3L140.3,11.6z"/>
	<path d="M143.3,13.4c0.6-0.8,1.1-1.9,1.1-3.5c0-1.5-0.5-2.6-1.1-3.4h0.6c0.5,0.7,1.1,1.8,1.1,3.5c0,1.7-0.6,2.7-1.1,3.5H143.3z"/>
</g>
<g>
	<path d="M287.9,82.2c0-0.7,0-1.3-0.1-1.9h1.1l0.1,1.1h0c0.4-0.7,1-1.3,2.2-1.3c0.9,0,1.7,0.6,2,1.4h0c0.2-0.4,0.5-0.7,0.8-0.9
		c0.4-0.3,0.9-0.5,1.5-0.5c0.9,0,2.3,0.6,2.3,3v4.1h-1.2v-3.9c0-1.3-0.5-2.1-1.5-2.1c-0.7,0-1.3,0.5-1.5,1.1
		c-0.1,0.2-0.1,0.4-0.1,0.6v4.3h-1.2v-4.2c0-1.1-0.5-1.9-1.4-1.9c-0.8,0-1.4,0.6-1.6,1.3c-0.1,0.2-0.1,0.4-0.1,0.6v4.2h-1.2V82.2z"
		/>
	<path d="M306.1,83.7c0,2.6-1.8,3.7-3.4,3.7c-1.9,0-3.3-1.4-3.3-3.6c0-2.3,1.5-3.7,3.4-3.7C304.7,80.2,306.1,81.6,306.1,83.7z
		 M300.6,83.8c0,1.5,0.9,2.7,2.1,2.7c1.2,0,2.1-1.1,2.1-2.7c0-1.2-0.6-2.7-2.1-2.7S300.6,82.5,300.6,83.8z"/>
	<path d="M313.6,77.1v8.4c0,0.6,0,1.3,0.1,1.8h-1.1l-0.1-1.2h0c-0.4,0.8-1.2,1.4-2.4,1.4c-1.7,0-3-1.4-3-3.5c0-2.3,1.4-3.7,3.1-3.7
		c1.1,0,1.8,0.5,2.1,1.1h0v-4.1H313.6z M312.4,83.2c0-0.2,0-0.4-0.1-0.5c-0.2-0.8-0.9-1.5-1.8-1.5c-1.3,0-2.1,1.1-2.1,2.7
		c0,1.4,0.7,2.6,2,2.6c0.8,0,1.6-0.6,1.8-1.5c0-0.2,0.1-0.3,0.1-0.5V83.2z"/>
	<path d="M316.4,84c0,1.7,1.1,2.4,2.4,2.4c0.9,0,1.4-0.2,1.9-0.4l0.2,0.9c-0.4,0.2-1.2,0.4-2.3,0.4c-2.1,0-3.4-1.4-3.4-3.5
		c0-2.1,1.2-3.7,3.2-3.7c2.3,0,2.9,2,2.9,3.3c0,0.3,0,0.5,0,0.6H316.4z M320.1,83.1c0-0.8-0.3-2-1.7-2c-1.3,0-1.8,1.2-1.9,2H320.1z"
		/>
	<path d="M322.9,77.1h1.3v10.2h-1.3V77.1z"/>
</g>
<g>
	<path d="M313.1,61.6c0.4-0.1,1-0.1,1.6-0.1c1.1,0,1.8,0.2,2.3,0.7c0.5,0.5,0.8,1.1,0.8,2.1c0,0.9-0.3,1.7-0.8,2.2
		c-0.5,0.5-1.4,0.8-2.5,0.8c-0.5,0-1,0-1.3-0.1V61.6z M313.9,66.7c0.2,0,0.5,0,0.7,0c1.6,0,2.4-0.9,2.4-2.4c0-1.3-0.8-2.2-2.3-2.2
		c-0.4,0-0.7,0-0.9,0.1V66.7z"/>
	<path d="M319.2,65.3c0,1,0.7,1.4,1.4,1.4c0.5,0,0.9-0.1,1.1-0.2l0.1,0.5c-0.3,0.1-0.7,0.3-1.4,0.3c-1.3,0-2-0.8-2-2.1
		c0-1.2,0.7-2.2,1.9-2.2c1.3,0,1.7,1.2,1.7,1.9c0,0.2,0,0.3,0,0.3H319.2z M321.4,64.8c0-0.5-0.2-1.2-1-1.2c-0.8,0-1.1,0.7-1.1,1.2
		H321.4z"/>
	<path d="M323.3,63.2l0.8,2.3c0.1,0.4,0.2,0.7,0.3,1.1h0c0.1-0.3,0.2-0.7,0.3-1.1l0.8-2.3h0.8l-1.6,4.1h-0.7l-1.6-4.1H323.3z"/>
	<path d="M327.9,62c0,0.3-0.2,0.5-0.5,0.5c-0.3,0-0.4-0.2-0.4-0.5c0-0.3,0.2-0.5,0.5-0.5C327.8,61.5,327.9,61.7,327.9,62z
		 M327.1,67.3v-4.1h0.7v4.1H327.1z"/>
	<path d="M332,67.1c-0.2,0.1-0.6,0.2-1.2,0.2c-1.2,0-2-0.8-2-2.1c0-1.3,0.9-2.2,2.2-2.2c0.4,0,0.8,0.1,1,0.2l-0.2,0.6
		c-0.2-0.1-0.5-0.2-0.9-0.2c-0.9,0-1.5,0.7-1.5,1.6c0,1,0.6,1.5,1.4,1.5c0.4,0,0.7-0.1,0.9-0.2L332,67.1z"/>
	<path d="M333.3,65.3c0,1,0.7,1.4,1.4,1.4c0.5,0,0.9-0.1,1.1-0.2l0.1,0.5c-0.3,0.1-0.7,0.3-1.4,0.3c-1.3,0-2-0.8-2-2.1
		c0-1.2,0.7-2.2,1.9-2.2c1.3,0,1.7,1.2,1.7,1.9c0,0.2,0,0.3,0,0.3H333.3z M335.4,64.8c0-0.5-0.2-1.2-1-1.2c-0.8,0-1.1,0.7-1.1,1.2
		H335.4z"/>
	<path d="M338.9,61.6c0.3-0.1,0.8-0.1,1.3-0.1c0.7,0,1.2,0.1,1.6,0.4c0.3,0.2,0.5,0.6,0.5,1c0,0.6-0.4,1-1,1.3v0
		c0.5,0.1,1.2,0.6,1.2,1.4c0,0.5-0.2,0.9-0.5,1.1c-0.4,0.4-1,0.5-2,0.5c-0.5,0-0.9,0-1.1-0.1V61.6z M339.7,64h0.7
		c0.8,0,1.2-0.4,1.2-1c0-0.7-0.5-0.9-1.3-0.9c-0.3,0-0.5,0-0.7,0.1V64z M339.7,66.7c0.1,0,0.4,0,0.6,0c0.8,0,1.5-0.3,1.5-1.1
		c0-0.8-0.7-1.1-1.5-1.1h-0.6V66.7z"/>
</g>
<g>
	<path d="M314.2,114.4c0,0.3-0.2,0.5-0.6,0.5c-0.3,0-0.5-0.2-0.5-0.5c0-0.3,0.2-0.6,0.6-0.6C314,113.8,314.2,114.1,314.2,114.4z
		 M313.2,120.6v-4.9h0.9v4.9H313.2z"/>
	<path d="M315.6,117.1c0-0.5,0-0.9,0-1.3h0.8l0,0.8h0c0.2-0.5,0.8-0.9,1.6-0.9c0.7,0,1.7,0.4,1.7,2.1v2.9h-0.9v-2.8
		c0-0.8-0.3-1.4-1.1-1.4c-0.6,0-1,0.4-1.2,0.9c0,0.1-0.1,0.3-0.1,0.4v2.9h-0.9V117.1z"/>
	<path d="M321.1,117.3c0-0.6,0-1.1,0-1.6h0.8l0,0.8h0c0.4-0.6,0.9-0.9,1.7-0.9c1.2,0,2.1,1,2.1,2.5c0,1.7-1.1,2.6-2.2,2.6
		c-0.6,0-1.2-0.3-1.5-0.8h0v2.6h-0.9V117.3z M322,118.6c0,0.1,0,0.3,0,0.4c0.2,0.6,0.7,1,1.3,1c0.9,0,1.5-0.8,1.5-1.9
		c0-1-0.5-1.8-1.4-1.8c-0.6,0-1.2,0.4-1.3,1.1c0,0.1-0.1,0.2-0.1,0.4V118.6z"/>
	<path d="M330.9,119.3c0,0.5,0,0.9,0,1.3h-0.8l0-0.8h0c-0.2,0.4-0.7,0.9-1.6,0.9c-0.8,0-1.7-0.4-1.7-2.1v-2.8h0.9v2.7
		c0,0.9,0.3,1.5,1.1,1.5c0.6,0,1-0.4,1.2-0.8c0-0.1,0.1-0.3,0.1-0.5v-3h0.9V119.3z"/>
	<path d="M333.5,114.4v1.4h1.3v0.7h-1.3v2.6c0,0.6,0.2,0.9,0.7,0.9c0.2,0,0.4,0,0.5-0.1l0,0.7c-0.2,0.1-0.4,0.1-0.8,0.1
		c-0.4,0-0.7-0.1-1-0.4c-0.3-0.3-0.3-0.7-0.3-1.3v-2.7h-0.8v-0.7h0.8v-1.2L333.5,114.4z"/>
</g>
<g>
	<path d="M193.9,82.2c0-0.7,0-1.3-0.1-1.9h1.1l0.1,1.1h0c0.4-0.7,1-1.3,2.2-1.3c0.9,0,1.7,0.6,2,1.4h0c0.2-0.4,0.5-0.7,0.8-0.9
		c0.4-0.3,0.9-0.5,1.5-0.5c0.9,0,2.3,0.6,2.3,3v4.1h-1.2v-3.9c0-1.3-0.5-2.1-1.5-2.1c-0.7,0-1.3,0.5-1.5,1.1
		c-0.1,0.2-0.1,0.4-0.1,0.6v4.3h-1.2v-4.2c0-1.1-0.5-1.9-1.4-1.9c-0.8,0-1.4,0.6-1.6,1.3c-0.1,0.2-0.1,0.4-0.1,0.6v4.2h-1.2V82.2z"
		/>
	<path d="M212.1,83.7c0,2.6-1.8,3.7-3.4,3.7c-1.9,0-3.3-1.4-3.3-3.6c0-2.3,1.5-3.7,3.4-3.7C210.7,80.2,212.1,81.6,212.1,83.7z
		 M206.6,83.8c0,1.5,0.9,2.7,2.1,2.7c1.2,0,2.1-1.1,2.1-2.7c0-1.2-0.6-2.7-2.1-2.7C207.2,81.1,206.6,82.5,206.6,83.8z"/>
	<path d="M219.6,77.1v8.4c0,0.6,0,1.3,0.1,1.8h-1.1l-0.1-1.2h0c-0.4,0.8-1.2,1.4-2.4,1.4c-1.7,0-3-1.4-3-3.5c0-2.3,1.4-3.7,3.1-3.7
		c1.1,0,1.8,0.5,2.1,1.1h0v-4.1H219.6z M218.4,83.2c0-0.2,0-0.4-0.1-0.5c-0.2-0.8-0.9-1.5-1.8-1.5c-1.3,0-2.1,1.1-2.1,2.7
		c0,1.4,0.7,2.6,2,2.6c0.8,0,1.6-0.6,1.8-1.5c0-0.2,0.1-0.3,0.1-0.5V83.2z"/>
	<path d="M222.4,84c0,1.7,1.1,2.4,2.4,2.4c0.9,0,1.4-0.2,1.9-0.4l0.2,0.9c-0.4,0.2-1.2,0.4-2.3,0.4c-2.1,0-3.4-1.4-3.4-3.5
		c0-2.1,1.2-3.7,3.2-3.7c2.3,0,2.9,2,2.9,3.3c0,0.3,0,0.5,0,0.6H222.4z M226.1,83.1c0-0.8-0.3-2-1.7-2c-1.3,0-1.8,1.2-1.9,2H226.1z"
		/>
	<path d="M228.9,77.1h1.3v10.2h-1.3V77.1z"/>
</g>
<g>
	<path d="M219.1,61.6c0.4-0.1,1-0.1,1.6-0.1c1.1,0,1.8,0.2,2.3,0.7c0.5,0.5,0.8,1.1,0.8,2.1c0,0.9-0.3,1.7-0.8,2.2
		c-0.5,0.5-1.4,0.8-2.5,0.8c-0.5,0-1,0-1.3-0.1V61.6z M219.9,66.7c0.2,0,0.5,0,0.7,0c1.6,0,2.4-0.9,2.4-2.4c0-1.3-0.8-2.2-2.3-2.2
		c-0.4,0-0.7,0-0.9,0.1V66.7z"/>
	<path d="M225.2,65.3c0,1,0.7,1.4,1.4,1.4c0.5,0,0.9-0.1,1.1-0.2l0.1,0.5c-0.3,0.1-0.7,0.3-1.4,0.3c-1.3,0-2-0.8-2-2.1
		c0-1.2,0.7-2.2,1.9-2.2c1.3,0,1.7,1.2,1.7,1.9c0,0.2,0,0.3,0,0.3H225.2z M227.4,64.8c0-0.5-0.2-1.2-1-1.2c-0.8,0-1.1,0.7-1.1,1.2
		H227.4z"/>
	<path d="M229.3,63.2l0.8,2.3c0.1,0.4,0.2,0.7,0.3,1.1h0c0.1-0.3,0.2-0.7,0.3-1.1l0.8-2.3h0.8l-1.6,4.1h-0.7l-1.6-4.1H229.3z"/>
	<path d="M233.9,62c0,0.3-0.2,0.5-0.5,0.5c-0.3,0-0.4-0.2-0.4-0.5c0-0.3,0.2-0.5,0.5-0.5C233.8,61.5,233.9,61.7,233.9,62z
		 M233.1,67.3v-4.1h0.7v4.1H233.1z"/>
	<path d="M238,67.1c-0.2,0.1-0.6,0.2-1.2,0.2c-1.2,0-2-0.8-2-2.1c0-1.3,0.9-2.2,2.2-2.2c0.4,0,0.8,0.1,1,0.2l-0.2,0.6
		c-0.2-0.1-0.5-0.2-0.9-0.2c-0.9,0-1.5,0.7-1.5,1.6c0,1,0.6,1.5,1.4,1.5c0.4,0,0.7-0.1,0.9-0.2L238,67.1z"/>
	<path d="M239.3,65.3c0,1,0.7,1.4,1.4,1.4c0.5,0,0.9-0.1,1.1-0.2l0.1,0.5c-0.3,0.1-0.7,0.3-1.4,0.3c-1.3,0-2-0.8-2-2.1
		c0-1.2,0.7-2.2,1.9-2.2c1.3,0,1.7,1.2,1.7,1.9c0,0.2,0,0.3,0,0.3H239.3z M241.4,64.8c0-0.5-0.2-1.2-1-1.2c-0.8,0-1.1,0.7-1.1,1.2
		H241.4z"/>
	<path d="M245.8,65.5l-0.6,1.8h-0.8l1.9-5.7h0.9l2,5.7h-0.8l-0.6-1.8H245.8z M247.7,64.9l-0.6-1.6c-0.1-0.4-0.2-0.7-0.3-1h0
		c-0.1,0.3-0.2,0.7-0.3,1l-0.6,1.7H247.7z"/>
</g>
<g>
	<path d="M220.2,114.4c0,0.3-0.2,0.5-0.6,0.5c-0.3,0-0.5-0.2-0.5-0.5c0-0.3,0.2-0.6,0.6-0.6C220,113.8,220.2,114.1,220.2,114.4z
		 M219.2,120.6v-4.9h0.9v4.9H219.2z"/>
	<path d="M221.6,117.1c0-0.5,0-0.9,0-1.3h0.8l0,0.8h0c0.2-0.5,0.8-0.9,1.6-0.9c0.7,0,1.7,0.4,1.7,2.1v2.9h-0.9v-2.8
		c0-0.8-0.3-1.4-1.1-1.4c-0.6,0-1,0.4-1.2,0.9c0,0.1-0.1,0.3-0.1,0.4v2.9h-0.9V117.1z"/>
	<path d="M227.1,117.3c0-0.6,0-1.1,0-1.6h0.8l0,0.8h0c0.4-0.6,0.9-0.9,1.7-0.9c1.2,0,2.1,1,2.1,2.5c0,1.7-1.1,2.6-2.2,2.6
		c-0.6,0-1.2-0.3-1.5-0.8h0v2.6h-0.9V117.3z M228,118.6c0,0.1,0,0.3,0,0.4c0.2,0.6,0.7,1,1.3,1c0.9,0,1.5-0.8,1.5-1.9
		c0-1-0.5-1.8-1.4-1.8c-0.6,0-1.2,0.4-1.3,1.1c0,0.1-0.1,0.2-0.1,0.4V118.6z"/>
	<path d="M236.9,119.3c0,0.5,0,0.9,0,1.3h-0.8l0-0.8h0c-0.2,0.4-0.7,0.9-1.6,0.9c-0.8,0-1.7-0.4-1.7-2.1v-2.8h0.9v2.7
		c0,0.9,0.3,1.5,1.1,1.5c0.6,0,1-0.4,1.2-0.8c0-0.1,0.1-0.3,0.1-0.5v-3h0.9V119.3z"/>
	<path d="M239.5,114.4v1.4h1.3v0.7h-1.3v2.6c0,0.6,0.2,0.9,0.7,0.9c0.2,0,0.4,0,0.5-0.1l0,0.7c-0.2,0.1-0.4,0.1-0.8,0.1
		c-0.4,0-0.7-0.1-1-0.4c-0.3-0.3-0.3-0.7-0.3-1.3v-2.7h-0.8v-0.7h0.8v-1.2L239.5,114.4z"/>
</g>
<g>
	<path d="M378.2,82.2c0-0.7,0-1.3-0.1-1.9h1.1l0.1,1.1h0c0.4-0.7,1-1.3,2.2-1.3c0.9,0,1.7,0.6,2,1.4h0c0.2-0.4,0.5-0.7,0.8-0.9
		c0.4-0.3,0.9-0.5,1.5-0.5c0.9,0,2.3,0.6,2.3,3v4.1h-1.2v-3.9c0-1.3-0.5-2.1-1.5-2.1c-0.7,0-1.3,0.5-1.5,1.1
		c-0.1,0.2-0.1,0.4-0.1,0.6v4.3h-1.2v-4.2c0-1.1-0.5-1.9-1.4-1.9c-0.8,0-1.4,0.6-1.6,1.3c-0.1,0.2-0.1,0.4-0.1,0.6v4.2h-1.2V82.2z"
		/>
	<path d="M396.4,83.7c0,2.6-1.8,3.7-3.5,3.7c-1.9,0-3.3-1.4-3.3-3.6c0-2.3,1.5-3.7,3.4-3.7C395.1,80.2,396.4,81.6,396.4,83.7z
		 M390.9,83.8c0,1.5,0.9,2.7,2.1,2.7c1.2,0,2.1-1.1,2.1-2.7c0-1.2-0.6-2.7-2.1-2.7C391.5,81.1,390.9,82.5,390.9,83.8z"/>
	<path d="M404,77.1v8.4c0,0.6,0,1.3,0.1,1.8h-1.1l-0.1-1.2h0c-0.4,0.8-1.2,1.4-2.4,1.4c-1.7,0-3-1.4-3-3.5c0-2.3,1.4-3.7,3.1-3.7
		c1.1,0,1.8,0.5,2.1,1.1h0v-4.1H404z M402.7,83.2c0-0.2,0-0.4-0.1-0.5c-0.2-0.8-0.9-1.5-1.8-1.5c-1.3,0-2.1,1.1-2.1,2.7
		c0,1.4,0.7,2.6,2,2.6c0.8,0,1.6-0.6,1.8-1.5c0-0.2,0.1-0.3,0.1-0.5V83.2z"/>
	<path d="M406.8,84c0,1.7,1.1,2.4,2.4,2.4c0.9,0,1.4-0.2,1.9-0.4l0.2,0.9c-0.4,0.2-1.2,0.4-2.3,0.4c-2.1,0-3.4-1.4-3.4-3.5
		c0-2.1,1.2-3.7,3.2-3.7c2.3,0,2.9,2,2.9,3.3c0,0.3,0,0.5,0,0.6H406.8z M410.5,83.1c0-0.8-0.3-2-1.7-2c-1.3,0-1.8,1.2-1.9,2H410.5z"
		/>
	<path d="M413.2,77.1h1.3v10.2h-1.3V77.1z"/>
</g>
<g>
	<path d="M403.5,61.6c0.4-0.1,1-0.1,1.6-0.1c1.1,0,1.8,0.2,2.3,0.7c0.5,0.5,0.8,1.1,0.8,2.1c0,0.9-0.3,1.7-0.8,2.2
		c-0.5,0.5-1.4,0.8-2.5,0.8c-0.5,0-1,0-1.3-0.1V61.6z M404.2,66.7c0.2,0,0.5,0,0.7,0c1.6,0,2.4-0.9,2.4-2.4c0-1.3-0.8-2.2-2.3-2.2
		c-0.4,0-0.7,0-0.9,0.1V66.7z"/>
	<path d="M409.5,65.3c0,1,0.7,1.4,1.4,1.4c0.5,0,0.9-0.1,1.1-0.2l0.1,0.5c-0.3,0.1-0.7,0.3-1.4,0.3c-1.3,0-2-0.8-2-2.1
		c0-1.2,0.7-2.2,1.9-2.2c1.3,0,1.7,1.2,1.7,1.9c0,0.2,0,0.3,0,0.3H409.5z M411.7,64.8c0-0.5-0.2-1.2-1-1.2c-0.8,0-1.1,0.7-1.1,1.2
		H411.7z"/>
	<path d="M413.7,63.2l0.8,2.3c0.1,0.4,0.2,0.7,0.3,1.1h0c0.1-0.3,0.2-0.7,0.3-1.1l0.8-2.3h0.8l-1.6,4.1h-0.7l-1.6-4.1H413.7z"/>
	<path d="M418.3,62c0,0.3-0.2,0.5-0.5,0.5c-0.3,0-0.4-0.2-0.4-0.5c0-0.3,0.2-0.5,0.5-0.5C418.1,61.5,418.3,61.7,418.3,62z
		 M417.4,67.3v-4.1h0.7v4.1H417.4z"/>
	<path d="M422.4,67.1c-0.2,0.1-0.6,0.2-1.2,0.2c-1.2,0-2-0.8-2-2.1c0-1.3,0.9-2.2,2.2-2.2c0.4,0,0.8,0.1,1,0.2l-0.2,0.6
		c-0.2-0.1-0.5-0.2-0.9-0.2c-0.9,0-1.5,0.7-1.5,1.6c0,1,0.6,1.5,1.4,1.5c0.4,0,0.7-0.1,0.9-0.2L422.4,67.1z"/>
	<path d="M423.6,65.3c0,1,0.7,1.4,1.4,1.4c0.5,0,0.9-0.1,1.1-0.2l0.1,0.5c-0.3,0.1-0.7,0.3-1.4,0.3c-1.3,0-2-0.8-2-2.1
		c0-1.2,0.7-2.2,1.9-2.2c1.3,0,1.7,1.2,1.7,1.9c0,0.2,0,0.3,0,0.3H423.6z M425.8,64.8c0-0.5-0.2-1.2-1-1.2c-0.8,0-1.1,0.7-1.1,1.2
		H425.8z"/>
	<path d="M433.2,67.1c-0.3,0.1-0.8,0.3-1.5,0.3c-1.6,0-2.8-1-2.8-2.9c0-1.8,1.2-3,3-3c0.7,0,1.2,0.2,1.4,0.3l-0.2,0.6
		c-0.3-0.1-0.7-0.2-1.2-0.2c-1.3,0-2.2,0.9-2.2,2.4c0,1.4,0.8,2.3,2.2,2.3c0.4,0,0.9-0.1,1.2-0.2L433.2,67.1z"/>
</g>
<g>
	<path d="M404.5,114.4c0,0.3-0.2,0.5-0.6,0.5c-0.3,0-0.5-0.2-0.5-0.5c0-0.3,0.2-0.6,0.6-0.6C404.3,113.8,404.5,114.1,404.5,114.4z
		 M403.6,120.6v-4.9h0.9v4.9H403.6z"/>
	<path d="M405.9,117.1c0-0.5,0-0.9,0-1.3h0.8l0,0.8h0c0.2-0.5,0.8-0.9,1.6-0.9c0.7,0,1.7,0.4,1.7,2.1v2.9h-0.9v-2.8
		c0-0.8-0.3-1.4-1.1-1.4c-0.6,0-1,0.4-1.2,0.9c0,0.1-0.1,0.3-0.1,0.4v2.9h-0.9V117.1z"/>
	<path d="M411.5,117.3c0-0.6,0-1.1,0-1.6h0.8l0,0.8h0c0.4-0.6,0.9-0.9,1.7-0.9c1.2,0,2.1,1,2.1,2.5c0,1.7-1.1,2.6-2.2,2.6
		c-0.6,0-1.2-0.3-1.5-0.8h0v2.6h-0.9V117.3z M412.3,118.6c0,0.1,0,0.3,0,0.4c0.2,0.6,0.7,1,1.3,1c0.9,0,1.5-0.8,1.5-1.9
		c0-1-0.5-1.8-1.4-1.8c-0.6,0-1.2,0.4-1.3,1.1c0,0.1-0.1,0.2-0.1,0.4V118.6z"/>
	<path d="M421.3,119.3c0,0.5,0,0.9,0,1.3h-0.8l0-0.8h0c-0.2,0.4-0.7,0.9-1.6,0.9c-0.8,0-1.7-0.4-1.7-2.1v-2.8h0.9v2.7
		c0,0.9,0.3,1.5,1.1,1.5c0.6,0,1-0.4,1.2-0.8c0-0.1,0.1-0.3,0.1-0.5v-3h0.9V119.3z"/>
	<path d="M423.8,114.4v1.4h1.3v0.7h-1.3v2.6c0,0.6,0.2,0.9,0.7,0.9c0.2,0,0.4,0,0.5-0.1l0,0.7c-0.2,0.1-0.4,0.1-0.8,0.1
		c-0.4,0-0.7-0.1-1-0.4c-0.3-0.3-0.3-0.7-0.3-1.3v-2.7h-0.8v-0.7h0.8v-1.2L423.8,114.4z"/>
</g>
<g>
	<path d="M287.9,287.4c0-0.7,0-1.3-0.1-1.9h1.1l0.1,1.1h0c0.4-0.7,1-1.3,2.2-1.3c0.9,0,1.7,0.6,2,1.4h0c0.2-0.4,0.5-0.7,0.8-0.9
		c0.4-0.3,0.9-0.5,1.5-0.5c0.9,0,2.3,0.6,2.3,3v4.1h-1.2v-3.9c0-1.3-0.5-2.1-1.5-2.1c-0.7,0-1.3,0.5-1.5,1.1
		c-0.1,0.2-0.1,0.4-0.1,0.6v4.3h-1.2v-4.2c0-1.1-0.5-1.9-1.4-1.9c-0.8,0-1.4,0.6-1.6,1.3c-0.1,0.2-0.1,0.4-0.1,0.6v4.2h-1.2V287.4z"
		/>
	<path d="M306.1,288.9c0,2.6-1.8,3.7-3.4,3.7c-1.9,0-3.3-1.4-3.3-3.6c0-2.3,1.5-3.7,3.4-3.7C304.7,285.3,306.1,286.8,306.1,288.9z
		 M300.6,289c0,1.5,0.9,2.7,2.1,2.7c1.2,0,2.1-1.1,2.1-2.7c0-1.2-0.6-2.7-2.1-2.7S300.6,287.7,300.6,289z"/>
	<path d="M313.6,282.3v8.4c0,0.6,0,1.3,0.1,1.8h-1.1l-0.1-1.2h0c-0.4,0.8-1.2,1.4-2.4,1.4c-1.7,0-3-1.4-3-3.5c0-2.3,1.4-3.7,3.1-3.7
		c1.1,0,1.8,0.5,2.1,1.1h0v-4.1H313.6z M312.4,288.3c0-0.2,0-0.4-0.1-0.5c-0.2-0.8-0.9-1.5-1.8-1.5c-1.3,0-2.1,1.1-2.1,2.7
		c0,1.4,0.7,2.6,2,2.6c0.8,0,1.6-0.6,1.8-1.5c0-0.2,0.1-0.3,0.1-0.5V288.3z"/>
	<path d="M316.4,289.2c0,1.7,1.1,2.4,2.4,2.4c0.9,0,1.4-0.2,1.9-0.4l0.2,0.9c-0.4,0.2-1.2,0.4-2.3,0.4c-2.1,0-3.4-1.4-3.4-3.5
		s1.2-3.7,3.2-3.7c2.3,0,2.9,2,2.9,3.3c0,0.3,0,0.5,0,0.6H316.4z M320.1,288.3c0-0.8-0.3-2-1.7-2c-1.3,0-1.8,1.2-1.9,2H320.1z"/>
	<path d="M322.9,282.3h1.3v10.2h-1.3V282.3z"/>
</g>
<g>
	<path d="M313.1,266.8c0.4-0.1,1-0.1,1.6-0.1c1.1,0,1.8,0.2,2.3,0.7c0.5,0.5,0.8,1.1,0.8,2.1c0,0.9-0.3,1.7-0.8,2.2
		c-0.5,0.5-1.4,0.8-2.5,0.8c-0.5,0-1,0-1.3-0.1V266.8z M313.9,271.8c0.2,0,0.5,0,0.7,0c1.6,0,2.4-0.9,2.4-2.4c0-1.3-0.8-2.2-2.3-2.2
		c-0.4,0-0.7,0-0.9,0.1V271.8z"/>
	<path d="M319.2,270.5c0,1,0.7,1.4,1.4,1.4c0.5,0,0.9-0.1,1.1-0.2l0.1,0.5c-0.3,0.1-0.7,0.3-1.4,0.3c-1.3,0-2-0.8-2-2.1
		s0.7-2.2,1.9-2.2c1.3,0,1.7,1.2,1.7,1.9c0,0.2,0,0.3,0,0.3H319.2z M321.4,270c0-0.5-0.2-1.2-1-1.2c-0.8,0-1.1,0.7-1.1,1.2H321.4z"
		/>
	<path d="M323.3,268.3l0.8,2.3c0.1,0.4,0.2,0.7,0.3,1.1h0c0.1-0.3,0.2-0.7,0.3-1.1l0.8-2.3h0.8l-1.6,4.1h-0.7l-1.6-4.1H323.3z"/>
	<path d="M327.9,267.2c0,0.3-0.2,0.5-0.5,0.5c-0.3,0-0.4-0.2-0.4-0.5c0-0.3,0.2-0.5,0.5-0.5C327.8,266.7,327.9,266.9,327.9,267.2z
		 M327.1,272.4v-4.1h0.7v4.1H327.1z"/>
	<path d="M332,272.3c-0.2,0.1-0.6,0.2-1.2,0.2c-1.2,0-2-0.8-2-2.1c0-1.3,0.9-2.2,2.2-2.2c0.4,0,0.8,0.1,1,0.2l-0.2,0.6
		c-0.2-0.1-0.5-0.2-0.9-0.2c-0.9,0-1.5,0.7-1.5,1.6c0,1,0.6,1.5,1.4,1.5c0.4,0,0.7-0.1,0.9-0.2L332,272.3z"/>
	<path d="M333.3,270.5c0,1,0.7,1.4,1.4,1.4c0.5,0,0.9-0.1,1.1-0.2l0.1,0.5c-0.3,0.1-0.7,0.3-1.4,0.3c-1.3,0-2-0.8-2-2.1
		s0.7-2.2,1.9-2.2c1.3,0,1.7,1.2,1.7,1.9c0,0.2,0,0.3,0,0.3H333.3z M335.4,270c0-0.5-0.2-1.2-1-1.2c-0.8,0-1.1,0.7-1.1,1.2H335.4z"
		/>
	<path d="M338.9,266.8c0.3-0.1,0.8-0.1,1.3-0.1c0.7,0,1.2,0.1,1.6,0.4c0.3,0.2,0.5,0.6,0.5,1c0,0.6-0.4,1-1,1.3v0
		c0.5,0.1,1.2,0.6,1.2,1.4c0,0.5-0.2,0.9-0.5,1.1c-0.4,0.4-1,0.5-2,0.5c-0.5,0-0.9,0-1.1-0.1V266.8z M339.7,269.1h0.7
		c0.8,0,1.2-0.4,1.2-1c0-0.7-0.5-0.9-1.3-0.9c-0.3,0-0.5,0-0.7,0.1V269.1z M339.7,271.9c0.1,0,0.4,0,0.6,0c0.8,0,1.5-0.3,1.5-1.1
		c0-0.8-0.7-1.1-1.5-1.1h-0.6V271.9z"/>
</g>
<g>
	<path d="M314.2,319.6c0,0.3-0.2,0.5-0.6,0.5c-0.3,0-0.5-0.2-0.5-0.5c0-0.3,0.2-0.6,0.6-0.6C314,319,314.2,319.2,314.2,319.6z
		 M313.2,325.8v-4.9h0.9v4.9H313.2z"/>
	<path d="M315.6,322.2c0-0.5,0-0.9,0-1.3h0.8l0,0.8h0c0.2-0.5,0.8-0.9,1.6-0.9c0.7,0,1.7,0.4,1.7,2.1v2.9h-0.9V323
		c0-0.8-0.3-1.4-1.1-1.4c-0.6,0-1,0.4-1.2,0.9c0,0.1-0.1,0.3-0.1,0.4v2.9h-0.9V322.2z"/>
	<path d="M321.1,322.5c0-0.6,0-1.1,0-1.6h0.8l0,0.8h0c0.4-0.6,0.9-0.9,1.7-0.9c1.2,0,2.1,1,2.1,2.5c0,1.7-1.1,2.6-2.2,2.6
		c-0.6,0-1.2-0.3-1.5-0.8h0v2.6h-0.9V322.5z M322,323.8c0,0.1,0,0.3,0,0.4c0.2,0.6,0.7,1,1.3,1c0.9,0,1.5-0.8,1.5-1.9
		c0-1-0.5-1.8-1.4-1.8c-0.6,0-1.2,0.4-1.3,1.1c0,0.1-0.1,0.2-0.1,0.4V323.8z"/>
	<path d="M330.9,324.5c0,0.5,0,0.9,0,1.3h-0.8l0-0.8h0c-0.2,0.4-0.7,0.9-1.6,0.9c-0.8,0-1.7-0.4-1.7-2.1v-2.8h0.9v2.7
		c0,0.9,0.3,1.5,1.1,1.5c0.6,0,1-0.4,1.2-0.8c0-0.1,0.1-0.3,0.1-0.5v-3h0.9V324.5z"/>
	<path d="M333.5,319.5v1.4h1.3v0.7h-1.3v2.6c0,0.6,0.2,0.9,0.7,0.9c0.2,0,0.4,0,0.5-0.1l0,0.7c-0.2,0.1-0.4,0.1-0.8,0.1
		c-0.4,0-0.7-0.1-1-0.4c-0.3-0.3-0.3-0.7-0.3-1.3v-2.7h-0.8v-0.7h0.8v-1.2L333.5,319.5z"/>
</g>
<g>
	<path d="M193.9,287.4c0-0.7,0-1.3-0.1-1.9h1.1l0.1,1.1h0c0.4-0.7,1-1.3,2.2-1.3c0.9,0,1.7,0.6,2,1.4h0c0.2-0.4,0.5-0.7,0.8-0.9
		c0.4-0.3,0.9-0.5,1.5-0.5c0.9,0,2.3,0.6,2.3,3v4.1h-1.2v-3.9c0-1.3-0.5-2.1-1.5-2.1c-0.7,0-1.3,0.5-1.5,1.1
		c-0.1,0.2-0.1,0.4-0.1,0.6v4.3h-1.2v-4.2c0-1.1-0.5-1.9-1.4-1.9c-0.8,0-1.4,0.6-1.6,1.3c-0.1,0.2-0.1,0.4-0.1,0.6v4.2h-1.2V287.4z"
		/>
	<path d="M212.1,288.9c0,2.6-1.8,3.7-3.4,3.7c-1.9,0-3.3-1.4-3.3-3.6c0-2.3,1.5-3.7,3.4-3.7C210.7,285.3,212.1,286.8,212.1,288.9z
		 M206.6,289c0,1.5,0.9,2.7,2.1,2.7c1.2,0,2.1-1.1,2.1-2.7c0-1.2-0.6-2.7-2.1-2.7C207.2,286.3,206.6,287.7,206.6,289z"/>
	<path d="M219.6,282.3v8.4c0,0.6,0,1.3,0.1,1.8h-1.1l-0.1-1.2h0c-0.4,0.8-1.2,1.4-2.4,1.4c-1.7,0-3-1.4-3-3.5c0-2.3,1.4-3.7,3.1-3.7
		c1.1,0,1.8,0.5,2.1,1.1h0v-4.1H219.6z M218.4,288.3c0-0.2,0-0.4-0.1-0.5c-0.2-0.8-0.9-1.5-1.8-1.5c-1.3,0-2.1,1.1-2.1,2.7
		c0,1.4,0.7,2.6,2,2.6c0.8,0,1.6-0.6,1.8-1.5c0-0.2,0.1-0.3,0.1-0.5V288.3z"/>
	<path d="M222.4,289.2c0,1.7,1.1,2.4,2.4,2.4c0.9,0,1.4-0.2,1.9-0.4l0.2,0.9c-0.4,0.2-1.2,0.4-2.3,0.4c-2.1,0-3.4-1.4-3.4-3.5
		s1.2-3.7,3.2-3.7c2.3,0,2.9,2,2.9,3.3c0,0.3,0,0.5,0,0.6H222.4z M226.1,288.3c0-0.8-0.3-2-1.7-2c-1.3,0-1.8,1.2-1.9,2H226.1z"/>
	<path d="M228.9,282.3h1.3v10.2h-1.3V282.3z"/>
</g>
<g>
	<path d="M219.1,266.8c0.4-0.1,1-0.1,1.6-0.1c1.1,0,1.8,0.2,2.3,0.7c0.5,0.5,0.8,1.1,0.8,2.1c0,0.9-0.3,1.7-0.8,2.2
		c-0.5,0.5-1.4,0.8-2.5,0.8c-0.5,0-1,0-1.3-0.1V266.8z M219.9,271.8c0.2,0,0.5,0,0.7,0c1.6,0,2.4-0.9,2.4-2.4c0-1.3-0.8-2.2-2.3-2.2
		c-0.4,0-0.7,0-0.9,0.1V271.8z"/>
	<path d="M225.2,270.5c0,1,0.7,1.4,1.4,1.4c0.5,0,0.9-0.1,1.1-0.2l0.1,0.5c-0.3,0.1-0.7,0.3-1.4,0.3c-1.3,0-2-0.8-2-2.1
		s0.7-2.2,1.9-2.2c1.3,0,1.7,1.2,1.7,1.9c0,0.2,0,0.3,0,0.3H225.2z M227.4,270c0-0.5-0.2-1.2-1-1.2c-0.8,0-1.1,0.7-1.1,1.2H227.4z"
		/>
	<path d="M229.3,268.3l0.8,2.3c0.1,0.4,0.2,0.7,0.3,1.1h0c0.1-0.3,0.2-0.7,0.3-1.1l0.8-2.3h0.8l-1.6,4.1h-0.7l-1.6-4.1H229.3z"/>
	<path d="M233.9,267.2c0,0.3-0.2,0.5-0.5,0.5c-0.3,0-0.4-0.2-0.4-0.5c0-0.3,0.2-0.5,0.5-0.5C233.8,266.7,233.9,266.9,233.9,267.2z
		 M233.1,272.4v-4.1h0.7v4.1H233.1z"/>
	<path d="M238,272.3c-0.2,0.1-0.6,0.2-1.2,0.2c-1.2,0-2-0.8-2-2.1c0-1.3,0.9-2.2,2.2-2.2c0.4,0,0.8,0.1,1,0.2l-0.2,0.6
		c-0.2-0.1-0.5-0.2-0.9-0.2c-0.9,0-1.5,0.7-1.5,1.6c0,1,0.6,1.5,1.4,1.5c0.4,0,0.7-0.1,0.9-0.2L238,272.3z"/>
	<path d="M239.3,270.5c0,1,0.7,1.4,1.4,1.4c0.5,0,0.9-0.1,1.1-0.2l0.1,0.5c-0.3,0.1-0.7,0.3-1.4,0.3c-1.3,0-2-0.8-2-2.1
		s0.7-2.2,1.9-2.2c1.3,0,1.7,1.2,1.7,1.9c0,0.2,0,0.3,0,0.3H239.3z M241.4,270c0-0.5-0.2-1.2-1-1.2c-0.8,0-1.1,0.7-1.1,1.2H241.4z"
		/>
	<path d="M245.8,270.6l-0.6,1.8h-0.8l1.9-5.7h0.9l2,5.7h-0.8l-0.6-1.8H245.8z M247.7,270l-0.6-1.6c-0.1-0.4-0.2-0.7-0.3-1h0
		c-0.1,0.3-0.2,0.7-0.3,1L246,270H247.7z"/>
</g>
<g>
	<path d="M220.2,319.6c0,0.3-0.2,0.5-0.6,0.5c-0.3,0-0.5-0.2-0.5-0.5c0-0.3,0.2-0.6,0.6-0.6C220,319,220.2,319.2,220.2,319.6z
		 M219.2,325.8v-4.9h0.9v4.9H219.2z"/>
	<path d="M221.6,322.2c0-0.5,0-0.9,0-1.3h0.8l0,0.8h0c0.2-0.5,0.8-0.9,1.6-0.9c0.7,0,1.7,0.4,1.7,2.1v2.9h-0.9V323
		c0-0.8-0.3-1.4-1.1-1.4c-0.6,0-1,0.4-1.2,0.9c0,0.1-0.1,0.3-0.1,0.4v2.9h-0.9V322.2z"/>
	<path d="M227.1,322.5c0-0.6,0-1.1,0-1.6h0.8l0,0.8h0c0.4-0.6,0.9-0.9,1.7-0.9c1.2,0,2.1,1,2.1,2.5c0,1.7-1.1,2.6-2.2,2.6
		c-0.6,0-1.2-0.3-1.5-0.8h0v2.6h-0.9V322.5z M228,323.8c0,0.1,0,0.3,0,0.4c0.2,0.6,0.7,1,1.3,1c0.9,0,1.5-0.8,1.5-1.9
		c0-1-0.5-1.8-1.4-1.8c-0.6,0-1.2,0.4-1.3,1.1c0,0.1-0.1,0.2-0.1,0.4V323.8z"/>
	<path d="M236.9,324.5c0,0.5,0,0.9,0,1.3h-0.8l0-0.8h0c-0.2,0.4-0.7,0.9-1.6,0.9c-0.8,0-1.7-0.4-1.7-2.1v-2.8h0.9v2.7
		c0,0.9,0.3,1.5,1.1,1.5c0.6,0,1-0.4,1.2-0.8c0-0.1,0.1-0.3,0.1-0.5v-3h0.9V324.5z"/>
	<path d="M239.5,319.5v1.4h1.3v0.7h-1.3v2.6c0,0.6,0.2,0.9,0.7,0.9c0.2,0,0.4,0,0.5-0.1l0,0.7c-0.2,0.1-0.4,0.1-0.8,0.1
		c-0.4,0-0.7-0.1-1-0.4c-0.3-0.3-0.3-0.7-0.3-1.3v-2.7h-0.8v-0.7h0.8v-1.2L239.5,319.5z"/>
</g>
<g>
	<path d="M378.2,287.4c0-0.7,0-1.3-0.1-1.9h1.1l0.1,1.1h0c0.4-0.7,1-1.3,2.2-1.3c0.9,0,1.7,0.6,2,1.4h0c0.2-0.4,0.5-0.7,0.8-0.9
		c0.4-0.3,0.9-0.5,1.5-0.5c0.9,0,2.3,0.6,2.3,3v4.1h-1.2v-3.9c0-1.3-0.5-2.1-1.5-2.1c-0.7,0-1.3,0.5-1.5,1.1
		c-0.1,0.2-0.1,0.4-0.1,0.6v4.3h-1.2v-4.2c0-1.1-0.5-1.9-1.4-1.9c-0.8,0-1.4,0.6-1.6,1.3c-0.1,0.2-0.1,0.4-0.1,0.6v4.2h-1.2V287.4z"
		/>
	<path d="M396.4,288.9c0,2.6-1.8,3.7-3.5,3.7c-1.9,0-3.3-1.4-3.3-3.6c0-2.3,1.5-3.7,3.4-3.7C395.1,285.3,396.4,286.8,396.4,288.9z
		 M390.9,289c0,1.5,0.9,2.7,2.1,2.7c1.2,0,2.1-1.1,2.1-2.7c0-1.2-0.6-2.7-2.1-2.7C391.5,286.3,390.9,287.7,390.9,289z"/>
	<path d="M404,282.3v8.4c0,0.6,0,1.3,0.1,1.8h-1.1l-0.1-1.2h0c-0.4,0.8-1.2,1.4-2.4,1.4c-1.7,0-3-1.4-3-3.5c0-2.3,1.4-3.7,3.1-3.7
		c1.1,0,1.8,0.5,2.1,1.1h0v-4.1H404z M402.7,288.3c0-0.2,0-0.4-0.1-0.5c-0.2-0.8-0.9-1.5-1.8-1.5c-1.3,0-2.1,1.1-2.1,2.7
		c0,1.4,0.7,2.6,2,2.6c0.8,0,1.6-0.6,1.8-1.5c0-0.2,0.1-0.3,0.1-0.5V288.3z"/>
	<path d="M406.8,289.2c0,1.7,1.1,2.4,2.4,2.4c0.9,0,1.4-0.2,1.9-0.4l0.2,0.9c-0.4,0.2-1.2,0.4-2.3,0.4c-2.1,0-3.4-1.4-3.4-3.5
		s1.2-3.7,3.2-3.7c2.3,0,2.9,2,2.9,3.3c0,0.3,0,0.5,0,0.6H406.8z M410.5,288.3c0-0.8-0.3-2-1.7-2c-1.3,0-1.8,1.2-1.9,2H410.5z"/>
	<path d="M413.2,282.3h1.3v10.2h-1.3V282.3z"/>
</g>
<g>
	<path d="M403.5,266.8c0.4-0.1,1-0.1,1.6-0.1c1.1,0,1.8,0.2,2.3,0.7c0.5,0.5,0.8,1.1,0.8,2.1c0,0.9-0.3,1.7-0.8,2.2
		c-0.5,0.5-1.4,0.8-2.5,0.8c-0.5,0-1,0-1.3-0.1V266.8z M404.2,271.8c0.2,0,0.5,0,0.7,0c1.6,0,2.4-0.9,2.4-2.4c0-1.3-0.8-2.2-2.3-2.2
		c-0.4,0-0.7,0-0.9,0.1V271.8z"/>
	<path d="M409.5,270.5c0,1,0.7,1.4,1.4,1.4c0.5,0,0.9-0.1,1.1-0.2l0.1,0.5c-0.3,0.1-0.7,0.3-1.4,0.3c-1.3,0-2-0.8-2-2.1
		s0.7-2.2,1.9-2.2c1.3,0,1.7,1.2,1.7,1.9c0,0.2,0,0.3,0,0.3H409.5z M411.7,270c0-0.5-0.2-1.2-1-1.2c-0.8,0-1.1,0.7-1.1,1.2H411.7z"
		/>
	<path d="M413.7,268.3l0.8,2.3c0.1,0.4,0.2,0.7,0.3,1.1h0c0.1-0.3,0.2-0.7,0.3-1.1l0.8-2.3h0.8l-1.6,4.1h-0.7l-1.6-4.1H413.7z"/>
	<path d="M418.3,267.2c0,0.3-0.2,0.5-0.5,0.5c-0.3,0-0.4-0.2-0.4-0.5c0-0.3,0.2-0.5,0.5-0.5C418.1,266.7,418.3,266.9,418.3,267.2z
		 M417.4,272.4v-4.1h0.7v4.1H417.4z"/>
	<path d="M422.4,272.3c-0.2,0.1-0.6,0.2-1.2,0.2c-1.2,0-2-0.8-2-2.1c0-1.3,0.9-2.2,2.2-2.2c0.4,0,0.8,0.1,1,0.2l-0.2,0.6
		c-0.2-0.1-0.5-0.2-0.9-0.2c-0.9,0-1.5,0.7-1.5,1.6c0,1,0.6,1.5,1.4,1.5c0.4,0,0.7-0.1,0.9-0.2L422.4,272.3z"/>
	<path d="M423.6,270.5c0,1,0.7,1.4,1.4,1.4c0.5,0,0.9-0.1,1.1-0.2l0.1,0.5c-0.3,0.1-0.7,0.3-1.4,0.3c-1.3,0-2-0.8-2-2.1
		s0.7-2.2,1.9-2.2c1.3,0,1.7,1.2,1.7,1.9c0,0.2,0,0.3,0,0.3H423.6z M425.8,270c0-0.5-0.2-1.2-1-1.2c-0.8,0-1.1,0.7-1.1,1.2H425.8z"
		/>
	<path d="M433.2,272.2c-0.3,0.1-0.8,0.3-1.5,0.3c-1.6,0-2.8-1-2.8-2.9c0-1.8,1.2-3,3-3c0.7,0,1.2,0.2,1.4,0.3l-0.2,0.6
		c-0.3-0.1-0.7-0.2-1.2-0.2c-1.3,0-2.2,0.9-2.2,2.4c0,1.4,0.8,2.3,2.2,2.3c0.4,0,0.9-0.1,1.2-0.2L433.2,272.2z"/>
</g>
<g>
	<path d="M404.5,319.6c0,0.3-0.2,0.5-0.6,0.5c-0.3,0-0.5-0.2-0.5-0.5c0-0.3,0.2-0.6,0.6-0.6C404.3,319,404.5,319.2,404.5,319.6z
		 M403.6,325.8v-4.9h0.9v4.9H403.6z"/>
	<path d="M405.9,322.2c0-0.5,0-0.9,0-1.3h0.8l0,0.8h0c0.2-0.5,0.8-0.9,1.6-0.9c0.7,0,1.7,0.4,1.7,2.1v2.9h-0.9V323
		c0-0.8-0.3-1.4-1.1-1.4c-0.6,0-1,0.4-1.2,0.9c0,0.1-0.1,0.3-0.1,0.4v2.9h-0.9V322.2z"/>
	<path d="M411.5,322.5c0-0.6,0-1.1,0-1.6h0.8l0,0.8h0c0.4-0.6,0.9-0.9,1.7-0.9c1.2,0,2.1,1,2.1,2.5c0,1.7-1.1,2.6-2.2,2.6
		c-0.6,0-1.2-0.3-1.5-0.8h0v2.6h-0.9V322.5z M412.3,323.8c0,0.1,0,0.3,0,0.4c0.2,0.6,0.7,1,1.3,1c0.9,0,1.5-0.8,1.5-1.9
		c0-1-0.5-1.8-1.4-1.8c-0.6,0-1.2,0.4-1.3,1.1c0,0.1-0.1,0.2-0.1,0.4V323.8z"/>
	<path d="M421.3,324.5c0,0.5,0,0.9,0,1.3h-0.8l0-0.8h0c-0.2,0.4-0.7,0.9-1.6,0.9c-0.8,0-1.7-0.4-1.7-2.1v-2.8h0.9v2.7
		c0,0.9,0.3,1.5,1.1,1.5c0.6,0,1-0.4,1.2-0.8c0-0.1,0.1-0.3,0.1-0.5v-3h0.9V324.5z"/>
	<path d="M423.8,319.5v1.4h1.3v0.7h-1.3v2.6c0,0.6,0.2,0.9,0.7,0.9c0.2,0,0.4,0,0.5-0.1l0,0.7c-0.2,0.1-0.4,0.1-0.8,0.1
		c-0.4,0-0.7-0.1-1-0.4c-0.3-0.3-0.3-0.7-0.3-1.3v-2.7h-0.8v-0.7h0.8v-1.2L423.8,319.5z"/>
</g>
<g>
	<path d="M93.3,204.4v5.7c0,2.2,1,3.1,2.2,3.1c1.4,0,2.3-0.9,2.3-3.1v-5.7h1.3v5.6c0,3-1.6,4.2-3.6,4.2c-2,0-3.5-1.1-3.5-4.1v-5.7
		H93.3z"/>
	<path d="M101.3,209.4c0-0.9,0-1.6-0.1-2.3h1.1l0.1,1.2h0c0.5-0.8,1.3-1.3,2.5-1.3c1.7,0,2.9,1.4,2.9,3.5c0,2.5-1.5,3.7-3.1,3.7
		c-0.9,0-1.7-0.4-2.1-1.1h0v3.8h-1.2V209.4z M102.5,211.2c0,0.2,0,0.4,0.1,0.5c0.2,0.9,1,1.5,1.9,1.5c1.3,0,2.1-1.1,2.1-2.7
		c0-1.4-0.7-2.6-2.1-2.6c-0.9,0-1.7,0.6-1.9,1.6c0,0.2-0.1,0.3-0.1,0.5V211.2z"/>
	<path d="M115.4,203.9v8.4c0,0.6,0,1.3,0.1,1.8h-1.1l-0.1-1.2h0c-0.4,0.8-1.2,1.4-2.4,1.4c-1.7,0-3-1.4-3-3.5c0-2.3,1.4-3.7,3.1-3.7
		c1.1,0,1.8,0.5,2.1,1.1h0v-4.1H115.4z M114.2,209.9c0-0.2,0-0.4-0.1-0.5c-0.2-0.8-0.9-1.5-1.8-1.5c-1.3,0-2.1,1.1-2.1,2.7
		c0,1.4,0.7,2.6,2,2.6c0.8,0,1.6-0.6,1.8-1.5c0-0.2,0.1-0.3,0.1-0.5V209.9z"/>
	<path d="M121.3,214l-0.1-0.9h0c-0.4,0.5-1.1,1-2.1,1c-1.4,0-2.1-1-2.1-2c0-1.7,1.5-2.6,4.2-2.6v-0.1c0-0.6-0.2-1.6-1.6-1.6
		c-0.6,0-1.3,0.2-1.8,0.5l-0.3-0.8c0.6-0.4,1.4-0.6,2.3-0.6c2.1,0,2.6,1.4,2.6,2.8v2.6c0,0.6,0,1.2,0.1,1.7H121.3z M121.2,210.5
		c-1.4,0-2.9,0.2-2.9,1.6c0,0.8,0.5,1.2,1.2,1.2c0.9,0,1.5-0.6,1.7-1.2c0-0.1,0.1-0.3,0.1-0.4V210.5z"/>
	<path d="M125.9,205.1v2h1.8v1h-1.8v3.7c0,0.9,0.2,1.3,0.9,1.3c0.3,0,0.6,0,0.7-0.1l0.1,0.9c-0.2,0.1-0.6,0.2-1.1,0.2
		c-0.6,0-1.1-0.2-1.4-0.5c-0.4-0.4-0.5-1-0.5-1.8v-3.8h-1.1v-1h1.1v-1.7L125.9,205.1z"/>
	<path d="M129.7,210.8c0,1.7,1.1,2.4,2.4,2.4c0.9,0,1.4-0.2,1.9-0.4l0.2,0.9c-0.4,0.2-1.2,0.4-2.3,0.4c-2.1,0-3.4-1.4-3.4-3.5
		s1.2-3.7,3.2-3.7c2.3,0,2.9,2,2.9,3.3c0,0.3,0,0.5,0,0.6H129.7z M133.4,209.9c0-0.8-0.3-2-1.7-2c-1.3,0-1.8,1.2-1.9,2H133.4z"/>
</g>
<g>
	<path d="M93.3,228.3v5.7c0,2.2,1,3.1,2.2,3.1c1.4,0,2.3-0.9,2.3-3.1v-5.7h1.3v5.6c0,3-1.6,4.2-3.6,4.2c-2,0-3.5-1.1-3.5-4.1v-5.7
		H93.3z"/>
	<path d="M101.3,233.3c0-0.9,0-1.6-0.1-2.3h1.1l0.1,1.2h0c0.5-0.8,1.3-1.3,2.5-1.3c1.7,0,2.9,1.4,2.9,3.5c0,2.5-1.5,3.7-3.1,3.7
		c-0.9,0-1.7-0.4-2.1-1.1h0v3.8h-1.2V233.3z M102.5,235.1c0,0.2,0,0.4,0.1,0.5c0.2,0.9,1,1.5,1.9,1.5c1.3,0,2.1-1.1,2.1-2.7
		c0-1.4-0.7-2.6-2.1-2.6c-0.9,0-1.7,0.6-1.9,1.6c0,0.2-0.1,0.3-0.1,0.5V235.1z"/>
	<path d="M115.4,227.8v8.4c0,0.6,0,1.3,0.1,1.8h-1.1l-0.1-1.2h0c-0.4,0.8-1.2,1.4-2.4,1.4c-1.7,0-3-1.4-3-3.5c0-2.3,1.4-3.7,3.1-3.7
		c1.1,0,1.8,0.5,2.1,1.1h0v-4.1H115.4z M114.2,233.8c0-0.2,0-0.4-0.1-0.5c-0.2-0.8-0.9-1.5-1.8-1.5c-1.3,0-2.1,1.1-2.1,2.7
		c0,1.4,0.7,2.6,2,2.6c0.8,0,1.6-0.6,1.8-1.5c0-0.2,0.1-0.3,0.1-0.5V233.8z"/>
	<path d="M121.3,237.9l-0.1-0.9h0c-0.4,0.5-1.1,1-2.1,1c-1.4,0-2.1-1-2.1-2c0-1.7,1.5-2.6,4.2-2.6v-0.1c0-0.6-0.2-1.6-1.6-1.6
		c-0.6,0-1.3,0.2-1.8,0.5l-0.3-0.8c0.6-0.4,1.4-0.6,2.3-0.6c2.1,0,2.6,1.4,2.6,2.8v2.6c0,0.6,0,1.2,0.1,1.7H121.3z M121.2,234.4
		c-1.4,0-2.9,0.2-2.9,1.6c0,0.8,0.5,1.2,1.2,1.2c0.9,0,1.5-0.6,1.7-1.2c0-0.1,0.1-0.3,0.1-0.4V234.4z"/>
	<path d="M125.9,229v2h1.8v1h-1.8v3.7c0,0.9,0.2,1.3,0.9,1.3c0.3,0,0.6,0,0.7-0.1l0.1,0.9c-0.2,0.1-0.6,0.2-1.1,0.2
		c-0.6,0-1.1-0.2-1.4-0.5c-0.4-0.4-0.5-1-0.5-1.8V232h-1.1v-1h1.1v-1.7L125.9,229z"/>
	<path d="M129.7,234.7c0,1.7,1.1,2.4,2.4,2.4c0.9,0,1.4-0.2,1.9-0.4l0.2,0.9c-0.4,0.2-1.2,0.4-2.3,0.4c-2.1,0-3.4-1.4-3.4-3.5
		c0-2.1,1.2-3.7,3.2-3.7c2.3,0,2.9,2,2.9,3.3c0,0.3,0,0.5,0,0.6H129.7z M133.4,233.8c0-0.8-0.3-2-1.7-2c-1.3,0-1.8,1.2-1.9,2H133.4z
		"/>
</g>
<g>
	<path d="M93.4,250.5v5.7c0,2.2,1,3.1,2.2,3.1c1.4,0,2.3-0.9,2.3-3.1v-5.7h1.3v5.6c0,3-1.6,4.2-3.6,4.2c-2,0-3.5-1.1-3.5-4.1v-5.7
		H93.4z"/>
	<path d="M101.3,255.4c0-0.9,0-1.6-0.1-2.3h1.1l0.1,1.2h0c0.5-0.8,1.3-1.3,2.5-1.3c1.7,0,2.9,1.4,2.9,3.5c0,2.5-1.5,3.7-3.1,3.7
		c-0.9,0-1.7-0.4-2.1-1.1h0v3.8h-1.2V255.4z M102.6,257.3c0,0.2,0,0.4,0.1,0.5c0.2,0.9,1,1.5,1.9,1.5c1.3,0,2.1-1.1,2.1-2.7
		c0-1.4-0.7-2.6-2.1-2.6c-0.9,0-1.7,0.6-1.9,1.6c0,0.2-0.1,0.3-0.1,0.5V257.3z"/>
	<path d="M115.5,250v8.4c0,0.6,0,1.3,0.1,1.8h-1.1l-0.1-1.2h0c-0.4,0.8-1.2,1.4-2.4,1.4c-1.7,0-3-1.4-3-3.5c0-2.3,1.4-3.7,3.1-3.7
		c1.1,0,1.8,0.5,2.1,1.1h0V250H115.5z M114.2,256c0-0.2,0-0.4-0.1-0.5c-0.2-0.8-0.9-1.5-1.8-1.5c-1.3,0-2.1,1.1-2.1,2.7
		c0,1.4,0.7,2.6,2,2.6c0.8,0,1.6-0.6,1.8-1.5c0-0.2,0.1-0.3,0.1-0.5V256z"/>
	<path d="M121.4,260.1l-0.1-0.9h0c-0.4,0.5-1.1,1-2.1,1c-1.4,0-2.1-1-2.1-2c0-1.7,1.5-2.6,4.2-2.6v-0.1c0-0.6-0.2-1.6-1.6-1.6
		c-0.6,0-1.3,0.2-1.8,0.5l-0.3-0.8c0.6-0.4,1.4-0.6,2.3-0.6c2.1,0,2.6,1.4,2.6,2.8v2.6c0,0.6,0,1.2,0.1,1.7H121.4z M121.2,256.6
		c-1.4,0-2.9,0.2-2.9,1.6c0,0.8,0.5,1.2,1.2,1.2c0.9,0,1.5-0.6,1.7-1.2c0-0.1,0.1-0.3,0.1-0.4V256.6z"/>
	<path d="M125.9,251.2v2h1.8v1h-1.8v3.7c0,0.9,0.2,1.3,0.9,1.3c0.3,0,0.6,0,0.7-0.1l0.1,0.9c-0.2,0.1-0.6,0.2-1.1,0.2
		c-0.6,0-1.1-0.2-1.4-0.5c-0.4-0.4-0.5-1-0.5-1.8v-3.8h-1.1v-1h1.1v-1.7L125.9,251.2z"/>
	<path d="M129.7,256.9c0,1.7,1.1,2.4,2.4,2.4c0.9,0,1.4-0.2,1.9-0.4l0.2,0.9c-0.4,0.2-1.2,0.4-2.3,0.4c-2.1,0-3.4-1.4-3.4-3.5
		c0-2.1,1.2-3.7,3.2-3.7c2.3,0,2.9,2,2.9,3.3c0,0.3,0,0.5,0,0.6H129.7z M133.4,256c0-0.8-0.3-2-1.7-2c-1.3,0-1.8,1.2-1.9,2H133.4z"
		/>
</g>
<g>
	<path d="M16.4,215c-0.5,0.2-1.4,0.5-2.5,0.5c-2.7,0-4.8-1.7-4.8-4.9c0-3,2-5.1,5-5.1c1.2,0,2,0.3,2.3,0.4l-0.3,1
		c-0.5-0.2-1.1-0.4-1.9-0.4c-2.3,0-3.8,1.4-3.8,4c0,2.4,1.4,3.9,3.7,3.9c0.8,0,1.5-0.2,2-0.4L16.4,215z"/>
	<path d="M17.9,205.2h1.3v10.2h-1.3V205.2z"/>
	<path d="M22.7,206.5c0,0.4-0.3,0.8-0.8,0.8c-0.4,0-0.8-0.3-0.8-0.8c0-0.4,0.3-0.8,0.8-0.8C22.4,205.7,22.7,206,22.7,206.5z
		 M21.3,215.3v-6.9h1.3v6.9H21.3z"/>
	<path d="M25.3,212.1c0,1.7,1.1,2.4,2.4,2.4c0.9,0,1.4-0.2,1.9-0.4l0.2,0.9c-0.4,0.2-1.2,0.4-2.3,0.4c-2.1,0-3.4-1.4-3.4-3.5
		s1.2-3.7,3.2-3.7c2.3,0,2.9,2,2.9,3.3c0,0.3,0,0.5,0,0.6H25.3z M29,211.2c0-0.8-0.3-2-1.7-2c-1.3,0-1.8,1.2-1.9,2H29z"/>
	<path d="M31.8,210.3c0-0.7,0-1.3-0.1-1.9h1.1l0.1,1.1h0c0.3-0.7,1.1-1.3,2.3-1.3c1,0,2.4,0.6,2.4,2.9v4.1h-1.3v-4
		c0-1.1-0.4-2-1.6-2c-0.8,0-1.5,0.6-1.7,1.3c-0.1,0.2-0.1,0.4-0.1,0.6v4.2h-1.3V210.3z"/>
	<path d="M41.2,206.4v2H43v1h-1.8v3.7c0,0.9,0.2,1.3,0.9,1.3c0.3,0,0.6,0,0.7-0.1l0.1,0.9c-0.2,0.1-0.6,0.2-1.1,0.2
		c-0.6,0-1.1-0.2-1.4-0.5c-0.4-0.4-0.5-1-0.5-1.8v-3.8h-1.1v-1H40v-1.7L41.2,206.4z"/>
	<path d="M47.4,213.9c0.4,0.2,1.2,0.6,2.1,0.6c1.6,0,2.1-1,2.1-1.8c0-1.3-1.2-1.9-2.4-1.9h-0.7v-0.9h0.7c0.9,0,2.1-0.5,2.1-1.6
		c0-0.7-0.5-1.4-1.6-1.4c-0.7,0-1.5,0.3-1.9,0.6l-0.3-0.9c0.5-0.4,1.4-0.7,2.4-0.7c1.8,0,2.7,1.1,2.7,2.2c0,1-0.6,1.8-1.7,2.2v0
		c1.1,0.2,2.1,1.1,2.1,2.4c0,1.5-1.2,2.8-3.4,2.8c-1,0-2-0.3-2.4-0.6L47.4,213.9z"/>
</g>
<g>
	<path d="M16.4,237.7c-0.5,0.2-1.4,0.5-2.5,0.5c-2.7,0-4.8-1.7-4.8-4.9c0-3,2-5.1,5-5.1c1.2,0,2,0.3,2.3,0.4l-0.3,1
		c-0.5-0.2-1.1-0.4-1.9-0.4c-2.3,0-3.8,1.4-3.8,4c0,2.4,1.4,3.9,3.7,3.9c0.8,0,1.5-0.2,2-0.4L16.4,237.7z"/>
	<path d="M17.9,227.8h1.3V238h-1.3V227.8z"/>
	<path d="M22.7,229.1c0,0.4-0.3,0.8-0.8,0.8c-0.4,0-0.8-0.3-0.8-0.8c0-0.4,0.3-0.8,0.8-0.8C22.4,228.3,22.7,228.7,22.7,229.1z
		 M21.3,238v-6.9h1.3v6.9H21.3z"/>
	<path d="M25.3,234.8c0,1.7,1.1,2.4,2.4,2.4c0.9,0,1.4-0.2,1.9-0.4l0.2,0.9c-0.4,0.2-1.2,0.4-2.3,0.4c-2.1,0-3.4-1.4-3.4-3.5
		s1.2-3.7,3.2-3.7c2.3,0,2.9,2,2.9,3.3c0,0.3,0,0.5,0,0.6H25.3z M29,233.9c0-0.8-0.3-2-1.7-2c-1.3,0-1.8,1.2-1.9,2H29z"/>
	<path d="M31.8,232.9c0-0.7,0-1.3-0.1-1.9h1.1l0.1,1.1h0c0.3-0.7,1.1-1.3,2.3-1.3c1,0,2.4,0.6,2.4,2.9v4.1h-1.3v-4
		c0-1.1-0.4-2-1.6-2c-0.8,0-1.5,0.6-1.7,1.3c-0.1,0.2-0.1,0.4-0.1,0.6v4.2h-1.3V232.9z"/>
	<path d="M41.2,229.1v2H43v1h-1.8v3.7c0,0.9,0.2,1.3,0.9,1.3c0.3,0,0.6,0,0.7-0.1l0.1,0.9c-0.2,0.1-0.6,0.2-1.1,0.2
		c-0.6,0-1.1-0.2-1.4-0.5c-0.4-0.4-0.5-1-0.5-1.8V232h-1.1v-1H40v-1.7L41.2,229.1z"/>
	<path d="M47.1,238v-0.8l1-1c2.4-2.3,3.4-3.5,3.5-4.9c0-0.9-0.5-1.8-1.8-1.8c-0.8,0-1.5,0.4-2,0.8l-0.4-0.9c0.6-0.5,1.6-0.9,2.6-0.9
		c2,0,2.8,1.4,2.8,2.7c0,1.7-1.2,3.1-3.2,5l-0.7,0.7v0H53v1H47.1z"/>
</g>
<g>
	<path d="M16.4,260.6c-0.5,0.2-1.4,0.5-2.5,0.5c-2.7,0-4.8-1.7-4.8-4.9c0-3,2-5.1,5-5.1c1.2,0,2,0.3,2.3,0.4l-0.3,1
		c-0.5-0.2-1.1-0.4-1.9-0.4c-2.3,0-3.8,1.4-3.8,4c0,2.4,1.4,3.9,3.7,3.9c0.8,0,1.5-0.2,2-0.4L16.4,260.6z"/>
	<path d="M17.9,250.7h1.3v10.2h-1.3V250.7z"/>
	<path d="M22.7,252c0,0.4-0.3,0.8-0.8,0.8c-0.4,0-0.8-0.3-0.8-0.8c0-0.4,0.3-0.8,0.8-0.8C22.4,251.2,22.7,251.5,22.7,252z
		 M21.3,260.9v-6.9h1.3v6.9H21.3z"/>
	<path d="M25.3,257.6c0,1.7,1.1,2.4,2.4,2.4c0.9,0,1.4-0.2,1.9-0.4l0.2,0.9c-0.4,0.2-1.2,0.4-2.3,0.4c-2.1,0-3.4-1.4-3.4-3.5
		c0-2.1,1.2-3.7,3.2-3.7c2.3,0,2.9,2,2.9,3.3c0,0.3,0,0.5,0,0.6H25.3z M29,256.7c0-0.8-0.3-2-1.7-2c-1.3,0-1.8,1.2-1.9,2H29z"/>
	<path d="M31.8,255.8c0-0.7,0-1.3-0.1-1.9h1.1l0.1,1.1h0c0.3-0.7,1.1-1.3,2.3-1.3c1,0,2.4,0.6,2.4,2.9v4.1h-1.3v-4
		c0-1.1-0.4-2-1.6-2c-0.8,0-1.5,0.6-1.7,1.3c-0.1,0.2-0.1,0.4-0.1,0.6v4.2h-1.3V255.8z"/>
	<path d="M41.2,251.9v2H43v1h-1.8v3.7c0,0.9,0.2,1.3,0.9,1.3c0.3,0,0.6,0,0.7-0.1l0.1,0.9c-0.2,0.1-0.6,0.2-1.1,0.2
		c-0.6,0-1.1-0.2-1.4-0.5c-0.4-0.4-0.5-1-0.5-1.8v-3.8h-1.1v-1H40v-1.7L41.2,251.9z"/>
	<path d="M49.8,252.7L49.8,252.7l-1.6,0.9l-0.2-1l2-1.1H51v9.3h-1.2V252.7z"/>
</g>
<g>
	<path d="M108.7,337.6c0.6-0.1,1.4-0.2,2.4-0.2c1.2,0,2.1,0.3,2.7,0.8c0.5,0.5,0.8,1.2,0.8,2c0,0.9-0.3,1.6-0.7,2.1
		c-0.7,0.7-1.7,1.1-2.9,1.1c-0.4,0-0.7,0-1-0.1v3.9h-1.2V337.6z M109.9,342.2c0.3,0.1,0.6,0.1,1,0.1c1.5,0,2.4-0.7,2.4-2.1
		c0-1.3-0.9-1.9-2.3-1.9c-0.5,0-1,0-1.2,0.1V342.2z"/>
</g>
<g>
	<path d="M161.7,208l3.4-8.9h1.4l3.3,8.9v0.7h-8.1V208z M168.4,207.6l-2-5.3c-0.2-0.7-0.5-1.5-0.7-2.1h0c-0.1,0.5-0.4,1.3-0.6,2
		l-2,5.5H168.4z"/>
	<path d="M171.3,199.1c0.6-0.1,1.4-0.2,2.4-0.2c1.2,0,2.1,0.3,2.7,0.8c0.5,0.5,0.8,1.2,0.8,2c0,0.9-0.3,1.6-0.7,2.1
		c-0.7,0.7-1.7,1.1-2.9,1.1c-0.4,0-0.7,0-1-0.1v3.9h-1.2V199.1z M172.5,203.8c0.3,0.1,0.6,0.1,1,0.1c1.5,0,2.4-0.7,2.4-2.1
		c0-1.3-0.9-1.9-2.3-1.9c-0.5,0-1,0-1.2,0.1V203.8z"/>
</g>
<g>
	<path d="M161.7,230.7l3.4-8.9h1.4l3.3,8.9v0.7h-8.1V230.7z M168.4,230.4l-2-5.3c-0.2-0.7-0.5-1.5-0.7-2.1h0c-0.1,0.5-0.4,1.3-0.6,2
		l-2,5.5H168.4z"/>
	<path d="M171.3,221.9c0.6-0.1,1.4-0.2,2.4-0.2c1.2,0,2.1,0.3,2.7,0.8c0.5,0.5,0.8,1.2,0.8,2c0,0.9-0.3,1.6-0.7,2.1
		c-0.7,0.7-1.7,1.1-2.9,1.1c-0.4,0-0.7,0-1-0.1v3.9h-1.2V221.9z M172.5,226.5c0.3,0.1,0.6,0.1,1,0.1c1.5,0,2.4-0.7,2.4-2.1
		c0-1.3-0.9-1.9-2.3-1.9c-0.5,0-1,0-1.2,0.1V226.5z"/>
</g>
<g>
	<path d="M161.7,255.9l3.4-8.9h1.4l3.3,8.9v0.7h-8.1V255.9z M168.4,255.5l-2-5.3c-0.2-0.7-0.5-1.5-0.7-2.1h0c-0.1,0.5-0.4,1.3-0.6,2
		l-2,5.5H168.4z"/>
	<path d="M171.3,247.1c0.6-0.1,1.4-0.2,2.4-0.2c1.2,0,2.1,0.3,2.7,0.8c0.5,0.5,0.8,1.2,0.8,2c0,0.9-0.3,1.6-0.7,2.1
		c-0.7,0.7-1.7,1.1-2.9,1.1c-0.4,0-0.7,0-1-0.1v3.9h-1.2V247.1z M172.5,251.7c0.3,0.1,0.6,0.1,1,0.1c1.5,0,2.4-0.7,2.4-2.1
		c0-1.3-0.9-1.9-2.3-1.9c-0.5,0-1,0-1.2,0.1V251.7z"/>
</g>
<g>
	<path d="M77.1,187.9c0.4-0.1,0.8-0.1,1.4-0.1c0.7,0,1.3,0.2,1.6,0.5c0.3,0.3,0.5,0.7,0.5,1.2c0,0.5-0.2,0.9-0.4,1.2
		c-0.4,0.4-1,0.6-1.7,0.6c-0.2,0-0.4,0-0.6-0.1v2.3h-0.7V187.9z M77.8,190.7c0.2,0,0.4,0.1,0.6,0.1c0.9,0,1.4-0.4,1.4-1.2
		c0-0.8-0.5-1.1-1.3-1.1c-0.3,0-0.6,0-0.7,0.1V190.7z"/>
	<path d="M83.6,193.6l-0.1-0.5h0c-0.2,0.3-0.7,0.6-1.3,0.6c-0.8,0-1.3-0.6-1.3-1.2c0-1,0.9-1.5,2.5-1.5v-0.1c0-0.3-0.1-1-0.9-1
		c-0.4,0-0.8,0.1-1.1,0.3l-0.2-0.5c0.3-0.2,0.8-0.4,1.3-0.4c1.3,0,1.6,0.9,1.6,1.7v1.5c0,0.4,0,0.7,0.1,1H83.6z M83.5,191.5
		c-0.8,0-1.7,0.1-1.7,0.9c0,0.5,0.3,0.7,0.7,0.7c0.5,0,0.9-0.3,1-0.7c0-0.1,0-0.2,0-0.2V191.5z"/>
	<path d="M85.4,190.8c0-0.5,0-0.9,0-1.3H86l0,0.8h0c0.2-0.6,0.6-0.9,1.1-0.9c0.1,0,0.1,0,0.2,0v0.7c-0.1,0-0.2,0-0.3,0
		c-0.5,0-0.9,0.4-1,1c0,0.1,0,0.2,0,0.3v2.2h-0.7V190.8z"/>
	<path d="M90.4,193.6l-0.1-0.5h0c-0.2,0.3-0.7,0.6-1.3,0.6c-0.8,0-1.3-0.6-1.3-1.2c0-1,0.9-1.5,2.5-1.5v-0.1c0-0.3-0.1-1-0.9-1
		c-0.4,0-0.8,0.1-1.1,0.3l-0.2-0.5c0.3-0.2,0.8-0.4,1.3-0.4c1.3,0,1.6,0.9,1.6,1.7v1.5c0,0.4,0,0.7,0.1,1H90.4z M90.3,191.5
		c-0.8,0-1.7,0.1-1.7,0.9c0,0.5,0.3,0.7,0.7,0.7c0.5,0,0.9-0.3,1-0.7c0-0.1,0-0.2,0-0.2V191.5z"/>
	<path d="M92.2,190.6c0-0.4,0-0.8,0-1.1h0.7l0,0.7h0c0.2-0.4,0.6-0.8,1.3-0.8c0.6,0,1,0.3,1.2,0.8h0c0.1-0.2,0.3-0.4,0.5-0.5
		c0.2-0.2,0.5-0.3,0.9-0.3c0.5,0,1.3,0.4,1.3,1.8v2.4h-0.7v-2.3c0-0.8-0.3-1.3-0.9-1.3c-0.4,0-0.8,0.3-0.9,0.7
		c0,0.1-0.1,0.2-0.1,0.4v2.5h-0.7v-2.5c0-0.7-0.3-1.1-0.9-1.1c-0.5,0-0.8,0.4-0.9,0.7c0,0.1-0.1,0.2-0.1,0.4v2.5h-0.7V190.6z"/>
	<path d="M99.7,191.7c0,1,0.7,1.4,1.4,1.4c0.5,0,0.9-0.1,1.1-0.2l0.1,0.5c-0.3,0.1-0.7,0.3-1.4,0.3c-1.3,0-2-0.8-2-2.1
		c0-1.2,0.7-2.2,1.9-2.2c1.3,0,1.7,1.2,1.7,1.9c0,0.2,0,0.3,0,0.3H99.7z M101.9,191.1c0-0.5-0.2-1.2-1-1.2c-0.8,0-1.1,0.7-1.1,1.2
		H101.9z"/>
	<path d="M104.5,188.3v1.2h1.1v0.6h-1.1v2.2c0,0.5,0.1,0.8,0.6,0.8c0.2,0,0.3,0,0.4-0.1l0,0.6c-0.1,0.1-0.4,0.1-0.7,0.1
		c-0.3,0-0.6-0.1-0.8-0.3c-0.2-0.2-0.3-0.6-0.3-1.1v-2.2h-0.6v-0.6h0.6v-1L104.5,188.3z"/>
	<path d="M106.7,191.7c0,1,0.7,1.4,1.4,1.4c0.5,0,0.9-0.1,1.1-0.2l0.1,0.5c-0.3,0.1-0.7,0.3-1.4,0.3c-1.3,0-2-0.8-2-2.1
		c0-1.2,0.7-2.2,1.9-2.2c1.3,0,1.7,1.2,1.7,1.9c0,0.2,0,0.3,0,0.3H106.7z M108.9,191.1c0-0.5-0.2-1.2-1-1.2c-0.8,0-1.1,0.7-1.1,1.2
		H108.9z"/>
	<path d="M110.6,190.8c0-0.5,0-0.9,0-1.3h0.7l0,0.8h0c0.2-0.6,0.6-0.9,1.1-0.9c0.1,0,0.1,0,0.2,0v0.7c-0.1,0-0.2,0-0.3,0
		c-0.5,0-0.9,0.4-1,1c0,0.1,0,0.2,0,0.3v2.2h-0.7V190.8z"/>
	<path d="M115.2,188c0.4-0.1,1-0.1,1.6-0.1c1.1,0,1.8,0.2,2.3,0.7c0.5,0.5,0.8,1.1,0.8,2.1c0,0.9-0.3,1.7-0.8,2.2
		c-0.5,0.5-1.4,0.8-2.5,0.8c-0.5,0-1,0-1.3-0.1V188z M115.9,193c0.2,0,0.5,0,0.7,0c1.6,0,2.4-0.9,2.4-2.4c0-1.3-0.8-2.2-2.3-2.2
		c-0.4,0-0.7,0-0.9,0.1V193z"/>
	<path d="M121.2,191.7c0,1,0.7,1.4,1.4,1.4c0.5,0,0.9-0.1,1.1-0.2l0.1,0.5c-0.3,0.1-0.7,0.3-1.4,0.3c-1.3,0-2-0.8-2-2.1
		c0-1.2,0.7-2.2,1.9-2.2c1.3,0,1.7,1.2,1.7,1.9c0,0.2,0,0.3,0,0.3H121.2z M123.4,191.1c0-0.5-0.2-1.2-1-1.2c-0.8,0-1.1,0.7-1.1,1.2
		H123.4z"/>
	<path d="M125.4,189.5l0.8,2.3c0.1,0.4,0.2,0.7,0.3,1.1h0c0.1-0.3,0.2-0.7,0.3-1.1l0.8-2.3h0.8l-1.6,4.1h-0.7l-1.6-4.1H125.4z"/>
	<path d="M130,188.3c0,0.3-0.2,0.5-0.5,0.5c-0.3,0-0.4-0.2-0.4-0.5c0-0.3,0.2-0.5,0.5-0.5C129.8,187.9,130,188.1,130,188.3z
		 M129.2,193.6v-4.1h0.7v4.1H129.2z"/>
	<path d="M134.1,193.4c-0.2,0.1-0.6,0.2-1.2,0.2c-1.2,0-2-0.8-2-2.1c0-1.3,0.9-2.2,2.2-2.2c0.4,0,0.8,0.1,1,0.2l-0.2,0.6
		c-0.2-0.1-0.5-0.2-0.9-0.2c-0.9,0-1.5,0.7-1.5,1.6c0,1,0.6,1.5,1.4,1.5c0.4,0,0.7-0.1,0.9-0.2L134.1,193.4z"/>
	<path d="M135.3,191.7c0,1,0.7,1.4,1.4,1.4c0.5,0,0.9-0.1,1.1-0.2l0.1,0.5c-0.3,0.1-0.7,0.3-1.4,0.3c-1.3,0-2-0.8-2-2.1
		c0-1.2,0.7-2.2,1.9-2.2c1.3,0,1.7,1.2,1.7,1.9c0,0.2,0,0.3,0,0.3H135.3z M137.5,191.1c0-0.5-0.2-1.2-1-1.2c-0.8,0-1.1,0.7-1.1,1.2
		H137.5z"/>
	<path d="M140.8,187.7c-0.6,0.8-1.1,1.9-1.1,3.5c0,1.5,0.5,2.6,1.1,3.4h-0.6c-0.5-0.7-1.1-1.8-1.1-3.4c0-1.7,0.6-2.8,1.1-3.5H140.8z
		"/>
	<path d="M141.4,192.8c0.2,0.1,0.6,0.3,1,0.3c0.5,0,0.8-0.3,0.8-0.6c0-0.4-0.2-0.6-0.8-0.8c-0.7-0.3-1.1-0.7-1.1-1.2
		c0-0.7,0.5-1.2,1.4-1.2c0.4,0,0.8,0.1,1,0.3l-0.2,0.5c-0.2-0.1-0.5-0.2-0.8-0.2c-0.4,0-0.7,0.3-0.7,0.6c0,0.3,0.2,0.5,0.8,0.7
		c0.7,0.3,1.1,0.6,1.1,1.2c0,0.7-0.6,1.2-1.5,1.2c-0.4,0-0.9-0.1-1.2-0.3L141.4,192.8z"/>
	<path d="M144.5,194.6c0.6-0.8,1.1-1.9,1.1-3.5c0-1.5-0.5-2.6-1.1-3.4h0.6c0.5,0.7,1.1,1.8,1.1,3.5c0,1.7-0.6,2.7-1.1,3.5H144.5z"/>
</g>
<g>
	<path d="M210.7,159.4c0.7,0.4,1.6,0.7,2.6,0.7c1.5,0,2.4-0.8,2.4-1.9c0-1.1-0.6-1.7-2.2-2.3c-1.9-0.7-3-1.6-3-3.2
		c0-1.8,1.5-3.1,3.7-3.1c1.2,0,2,0.3,2.5,0.6l-0.4,1.2c-0.4-0.2-1.1-0.5-2.2-0.5c-1.6,0-2.2,0.9-2.2,1.7c0,1.1,0.7,1.6,2.3,2.2
		c1.9,0.7,2.9,1.7,2.9,3.4c0,1.8-1.3,3.3-4,3.3c-1.1,0-2.3-0.3-2.9-0.7L210.7,159.4z"/>
	<path d="M219.6,153l1.8,4.8c0.2,0.5,0.4,1.2,0.5,1.7h0c0.2-0.5,0.3-1.1,0.5-1.7l1.6-4.8h1.6l-2.2,5.8c-1.1,2.8-1.8,4.3-2.8,5.1
		c-0.7,0.6-1.5,0.9-1.8,1l-0.4-1.3c0.4-0.1,0.9-0.4,1.3-0.7c0.4-0.3,0.9-0.9,1.3-1.7c0.1-0.2,0.1-0.3,0.1-0.4c0-0.1,0-0.2-0.1-0.4
		l-3-7.6H219.6z"/>
	<path d="M227,155.2c0-0.8,0-1.5-0.1-2.2h1.3l0.1,1.4h0c0.4-0.8,1.4-1.5,2.7-1.5c1.1,0,2.9,0.7,2.9,3.5v4.9h-1.5v-4.7
		c0-1.3-0.5-2.4-1.9-2.4c-1,0-1.7,0.7-2,1.5c-0.1,0.2-0.1,0.4-0.1,0.7v4.9H227V155.2z"/>
	<path d="M242.3,160.9c-0.4,0.2-1.3,0.5-2.4,0.5c-2.5,0-4.1-1.7-4.1-4.2c0-2.5,1.7-4.4,4.4-4.4c0.9,0,1.7,0.2,2.1,0.4l-0.3,1.2
		c-0.4-0.2-0.9-0.4-1.7-0.4c-1.9,0-2.9,1.4-2.9,3.1c0,1.9,1.2,3.1,2.8,3.1c0.8,0,1.4-0.2,1.8-0.4L242.3,160.9z"/>
	<path d="M244,149.2h1.5v5.1h0c0.2-0.4,0.6-0.8,1.1-1.1c0.4-0.3,1-0.4,1.5-0.4c1.1,0,2.9,0.7,2.9,3.5v4.9h-1.5v-4.7
		c0-1.3-0.5-2.4-1.9-2.4c-1,0-1.7,0.7-2,1.5c-0.1,0.2-0.1,0.4-0.1,0.7v5H244V149.2z"/>
	<path d="M253.4,155.5c0-1,0-1.8-0.1-2.6h1.3l0.1,1.6h0.1c0.4-1.1,1.3-1.8,2.3-1.8c0.2,0,0.3,0,0.4,0.1v1.4c-0.2,0-0.3-0.1-0.5-0.1
		c-1.1,0-1.8,0.8-2,1.9c0,0.2-0.1,0.4-0.1,0.7v4.4h-1.5V155.5z"/>
	<path d="M266.2,157c0,3-2.1,4.4-4.1,4.4c-2.2,0-3.9-1.6-3.9-4.2c0-2.7,1.8-4.4,4.1-4.4C264.6,152.8,266.2,154.5,266.2,157z
		 M259.7,157.1c0,1.8,1,3.2,2.5,3.2c1.4,0,2.5-1.3,2.5-3.2c0-1.4-0.7-3.2-2.5-3.2C260.5,153.9,259.7,155.5,259.7,157.1z"/>
	<path d="M268.1,155.2c0-0.8,0-1.5-0.1-2.2h1.3l0.1,1.4h0c0.4-0.8,1.4-1.5,2.7-1.5c1.1,0,2.9,0.7,2.9,3.5v4.9h-1.5v-4.7
		c0-1.3-0.5-2.4-1.9-2.4c-1,0-1.7,0.7-2,1.5c-0.1,0.2-0.1,0.4-0.1,0.7v4.9h-1.5V155.2z"/>
	<path d="M284.9,157c0,3-2.1,4.4-4.1,4.4c-2.2,0-3.9-1.6-3.9-4.2c0-2.7,1.8-4.4,4.1-4.4C283.3,152.8,284.9,154.5,284.9,157z
		 M278.4,157.1c0,1.8,1,3.2,2.5,3.2c1.4,0,2.5-1.3,2.5-3.2c0-1.4-0.7-3.2-2.5-3.2C279.2,153.9,278.4,155.5,278.4,157.1z"/>
	<path d="M293.7,159c0,0.8,0,1.6,0.1,2.2h-1.3l-0.1-1.3h0c-0.4,0.7-1.3,1.5-2.7,1.5c-1.3,0-2.8-0.7-2.8-3.6V153h1.5v4.5
		c0,1.6,0.5,2.6,1.8,2.6c1,0,1.7-0.7,2-1.4c0.1-0.2,0.1-0.5,0.1-0.8v-5h1.5V159z"/>
	<path d="M295.9,159.7c0.4,0.3,1.2,0.6,2,0.6c1.1,0,1.6-0.5,1.6-1.2c0-0.7-0.4-1.1-1.5-1.5c-1.5-0.5-2.2-1.3-2.2-2.3
		c0-1.3,1.1-2.4,2.8-2.4c0.8,0,1.6,0.2,2,0.5l-0.4,1.1c-0.3-0.2-0.9-0.5-1.7-0.5c-0.9,0-1.4,0.5-1.4,1.1c0,0.7,0.5,1,1.6,1.4
		c1.4,0.5,2.2,1.3,2.2,2.5c0,1.4-1.1,2.5-3.1,2.5c-0.9,0-1.7-0.2-2.3-0.6L295.9,159.7z"/>
	<path d="M306.5,149.9c0.9-0.1,2-0.2,3.1-0.2c2.1,0,3.6,0.5,4.6,1.4c1,0.9,1.6,2.3,1.6,4.1c0,1.9-0.6,3.4-1.6,4.4
		c-1.1,1.1-2.8,1.6-5.1,1.6c-1.1,0-1.9-0.1-2.7-0.1V149.9z M308,160c0.4,0.1,0.9,0.1,1.5,0.1c3.2,0,4.9-1.8,4.9-4.8
		c0-2.7-1.5-4.4-4.6-4.4c-0.8,0-1.3,0.1-1.7,0.2V160z"/>
	<path d="M322.3,161.2l-0.1-1h-0.1c-0.5,0.6-1.3,1.2-2.5,1.2c-1.7,0-2.5-1.2-2.5-2.4c0-2,1.8-3.1,4.9-3.1v-0.2
		c0-0.7-0.2-1.9-1.9-1.9c-0.8,0-1.6,0.2-2.1,0.6l-0.3-1c0.7-0.4,1.7-0.7,2.7-0.7c2.5,0,3.1,1.7,3.1,3.4v3.1c0,0.7,0,1.4,0.1,2H322.3
		z M322.1,157c-1.6,0-3.5,0.3-3.5,1.8c0,1,0.6,1.4,1.4,1.4c1.1,0,1.7-0.7,2-1.4c0.1-0.2,0.1-0.3,0.1-0.5V157z"/>
	<path d="M327.6,150.6v2.4h2.1v1.1h-2.1v4.4c0,1,0.3,1.6,1.1,1.6c0.4,0,0.7-0.1,0.9-0.1l0.1,1.1c-0.3,0.1-0.7,0.2-1.3,0.2
		c-0.7,0-1.3-0.2-1.6-0.6c-0.4-0.4-0.6-1.2-0.6-2.1v-4.5h-1.3V153h1.3v-2L327.6,150.6z"/>
	<path d="M336,161.2l-0.1-1h-0.1c-0.5,0.6-1.3,1.2-2.5,1.2c-1.7,0-2.5-1.2-2.5-2.4c0-2,1.8-3.1,4.9-3.1v-0.2c0-0.7-0.2-1.9-1.9-1.9
		c-0.8,0-1.6,0.2-2.1,0.6l-0.3-1c0.7-0.4,1.7-0.7,2.7-0.7c2.5,0,3.1,1.7,3.1,3.4v3.1c0,0.7,0,1.4,0.1,2H336z M335.8,157
		c-1.6,0-3.5,0.3-3.5,1.8c0,1,0.6,1.4,1.4,1.4c1.1,0,1.7-0.7,2-1.4c0.1-0.2,0.1-0.3,0.1-0.5V157z"/>
	<path d="M343.3,149.9c0.7-0.1,1.6-0.2,2.8-0.2c1.5,0,2.5,0.3,3.2,0.9c0.6,0.5,1,1.4,1,2.4c0,1-0.3,1.8-0.9,2.4
		c-0.8,0.8-2.1,1.3-3.5,1.3c-0.4,0-0.8,0-1.2-0.1v4.6h-1.5V149.9z M344.8,155.4c0.3,0.1,0.7,0.1,1.2,0.1c1.8,0,2.9-0.9,2.9-2.4
		c0-1.5-1.1-2.2-2.7-2.2c-0.6,0-1.1,0.1-1.4,0.1V155.4z"/>
	<path d="M356.3,161.2l-0.1-1h-0.1c-0.5,0.6-1.3,1.2-2.5,1.2c-1.7,0-2.5-1.2-2.5-2.4c0-2,1.8-3.1,4.9-3.1v-0.2
		c0-0.7-0.2-1.9-1.9-1.9c-0.8,0-1.6,0.2-2.1,0.6l-0.3-1c0.7-0.4,1.7-0.7,2.7-0.7c2.5,0,3.1,1.7,3.1,3.4v3.1c0,0.7,0,1.4,0.1,2H356.3
		z M356.1,157c-1.6,0-3.5,0.3-3.5,1.8c0,1,0.6,1.4,1.4,1.4c1.1,0,1.7-0.7,2-1.4c0.1-0.2,0.1-0.3,0.1-0.5V157z"/>
	<path d="M360,155.5c0-1,0-1.8-0.1-2.6h1.3l0.1,1.6h0.1c0.4-1.1,1.3-1.8,2.3-1.8c0.2,0,0.3,0,0.4,0.1v1.4c-0.2,0-0.3-0.1-0.5-0.1
		c-1.1,0-1.8,0.8-2,1.9c0,0.2-0.1,0.4-0.1,0.7v4.4H360V155.5z"/>
	<path d="M370,161.2l-0.1-1h-0.1c-0.5,0.6-1.3,1.2-2.5,1.2c-1.7,0-2.5-1.2-2.5-2.4c0-2,1.8-3.1,4.9-3.1v-0.2c0-0.7-0.2-1.9-1.9-1.9
		c-0.8,0-1.6,0.2-2.1,0.6l-0.3-1c0.7-0.4,1.7-0.7,2.7-0.7c2.5,0,3.1,1.7,3.1,3.4v3.1c0,0.7,0,1.4,0.1,2H370z M369.8,157
		c-1.6,0-3.5,0.3-3.5,1.8c0,1,0.6,1.4,1.4,1.4c1.1,0,1.7-0.7,2-1.4c0.1-0.2,0.1-0.3,0.1-0.5V157z"/>
	<path d="M373.6,149.2h1.5v12h-1.5V149.2z"/>
	<path d="M377.6,149.2h1.5v12h-1.5V149.2z"/>
	<path d="M382.4,157.4c0,2,1.3,2.8,2.8,2.8c1.1,0,1.7-0.2,2.3-0.4l0.3,1.1c-0.5,0.2-1.4,0.5-2.7,0.5c-2.5,0-4-1.7-4-4.1
		s1.5-4.4,3.8-4.4c2.7,0,3.4,2.4,3.4,3.9c0,0.3,0,0.5-0.1,0.7H382.4z M386.8,156.3c0-0.9-0.4-2.4-2.1-2.4c-1.5,0-2.2,1.4-2.3,2.4
		H386.8z"/>
	<path d="M390.1,149.2h1.5v12h-1.5V149.2z"/>
	<path d="M395.8,150.7c0,0.5-0.4,0.9-0.9,0.9c-0.5,0-0.9-0.4-0.9-0.9c0-0.5,0.4-0.9,0.9-0.9C395.4,149.8,395.8,150.2,395.8,150.7z
		 M394.1,161.2V153h1.5v8.2H394.1z"/>
	<path d="M397.9,159.7c0.4,0.3,1.2,0.6,2,0.6c1.1,0,1.6-0.5,1.6-1.2c0-0.7-0.4-1.1-1.5-1.5c-1.5-0.5-2.2-1.3-2.2-2.3
		c0-1.3,1.1-2.4,2.8-2.4c0.8,0,1.6,0.2,2,0.5l-0.4,1.1c-0.3-0.2-0.9-0.5-1.7-0.5c-0.9,0-1.4,0.5-1.4,1.1c0,0.7,0.5,1,1.6,1.4
		c1.4,0.5,2.2,1.3,2.2,2.5c0,1.4-1.1,2.5-3.1,2.5c-0.9,0-1.7-0.2-2.3-0.6L397.9,159.7z"/>
	<path d="M404.8,155.2c0-0.8,0-1.5-0.1-2.2h1.3l0.1,1.3h0.1c0.5-0.8,1.2-1.5,2.6-1.5c1.1,0,2,0.7,2.3,1.6h0c0.3-0.5,0.6-0.8,0.9-1.1
		c0.5-0.4,1-0.6,1.8-0.6c1.1,0,2.7,0.7,2.7,3.6v4.8H415v-4.6c0-1.6-0.6-2.5-1.8-2.5c-0.8,0-1.5,0.6-1.8,1.4
		c-0.1,0.2-0.1,0.5-0.1,0.7v5.1h-1.5v-4.9c0-1.3-0.6-2.3-1.7-2.3c-0.9,0-1.6,0.7-1.8,1.5c-0.1,0.2-0.1,0.5-0.1,0.7v5h-1.5V155.2z"/>
</g>
<g>
	<path d="M211.4,362.6l-1.2,3.6h-1.5l3.9-11.4h1.8l3.9,11.4h-1.6l-1.2-3.6H211.4z M215.1,361.4l-1.1-3.3c-0.3-0.7-0.4-1.4-0.6-2.1h0
		c-0.2,0.7-0.4,1.4-0.6,2.1l-1.1,3.3H215.1z"/>
	<path d="M219.5,364.7c0.4,0.3,1.2,0.6,2,0.6c1.1,0,1.6-0.5,1.6-1.2c0-0.7-0.4-1.1-1.5-1.5c-1.5-0.5-2.2-1.3-2.2-2.3
		c0-1.3,1.1-2.4,2.8-2.4c0.8,0,1.6,0.2,2,0.5l-0.4,1.1c-0.3-0.2-0.9-0.5-1.7-0.5c-0.9,0-1.4,0.5-1.4,1.1c0,0.7,0.5,1,1.6,1.4
		c1.4,0.5,2.2,1.3,2.2,2.5c0,1.4-1.1,2.5-3.1,2.5c-0.9,0-1.7-0.2-2.3-0.6L219.5,364.7z"/>
	<path d="M227,358l1.8,4.8c0.2,0.5,0.4,1.2,0.5,1.7h0c0.2-0.5,0.3-1.1,0.5-1.7l1.6-4.8h1.6l-2.2,5.8c-1.1,2.8-1.8,4.3-2.8,5.1
		c-0.7,0.6-1.5,0.9-1.8,1l-0.4-1.3c0.4-0.1,0.9-0.4,1.3-0.7c0.4-0.3,0.9-0.9,1.3-1.7c0.1-0.2,0.1-0.3,0.1-0.4s0-0.2-0.1-0.4l-3-7.6
		H227z"/>
	<path d="M234.4,360.2c0-0.8,0-1.5-0.1-2.2h1.3l0.1,1.4h0c0.4-0.8,1.4-1.5,2.7-1.5c1.1,0,2.9,0.7,2.9,3.5v4.9h-1.5v-4.7
		c0-1.3-0.5-2.4-1.9-2.4c-1,0-1.7,0.7-2,1.5c-0.1,0.2-0.1,0.4-0.1,0.7v4.9h-1.5V360.2z"/>
	<path d="M249.7,365.9c-0.4,0.2-1.3,0.5-2.4,0.5c-2.5,0-4.1-1.7-4.1-4.2c0-2.5,1.7-4.4,4.4-4.4c0.9,0,1.7,0.2,2.1,0.4l-0.3,1.2
		c-0.4-0.2-0.9-0.4-1.7-0.4c-1.9,0-2.9,1.4-2.9,3.1c0,1.9,1.2,3.1,2.8,3.1c0.8,0,1.4-0.2,1.8-0.4L249.7,365.9z"/>
	<path d="M251.4,354.2h1.5v5.1h0c0.2-0.4,0.6-0.8,1.1-1.1c0.4-0.3,1-0.4,1.5-0.4c1.1,0,2.9,0.7,2.9,3.5v4.9h-1.5v-4.7
		c0-1.3-0.5-2.4-1.9-2.4c-1,0-1.7,0.7-2,1.5c-0.1,0.2-0.1,0.4-0.1,0.7v5h-1.5V354.2z"/>
	<path d="M260.9,360.5c0-1,0-1.8-0.1-2.6h1.3l0.1,1.6h0.1c0.4-1.1,1.3-1.8,2.3-1.8c0.2,0,0.3,0,0.4,0.1v1.4c-0.2,0-0.3-0.1-0.5-0.1
		c-1.1,0-1.8,0.8-2,1.9c0,0.2-0.1,0.4-0.1,0.7v4.4h-1.5V360.5z"/>
	<path d="M273.7,362c0,3-2.1,4.4-4.1,4.4c-2.2,0-3.9-1.6-3.9-4.2c0-2.7,1.8-4.4,4.1-4.4C272.1,357.8,273.7,359.5,273.7,362z
		 M267.1,362.1c0,1.8,1,3.2,2.5,3.2c1.4,0,2.5-1.3,2.5-3.2c0-1.4-0.7-3.2-2.5-3.2C267.9,358.9,267.1,360.5,267.1,362.1z"/>
	<path d="M275.5,360.2c0-0.8,0-1.5-0.1-2.2h1.3l0.1,1.4h0c0.4-0.8,1.4-1.5,2.7-1.5c1.1,0,2.9,0.7,2.9,3.5v4.9H281v-4.7
		c0-1.3-0.5-2.4-1.9-2.4c-1,0-1.7,0.7-2,1.5c-0.1,0.2-0.1,0.4-0.1,0.7v4.9h-1.5V360.2z"/>
	<path d="M292.4,362c0,3-2.1,4.4-4.1,4.4c-2.2,0-3.9-1.6-3.9-4.2c0-2.7,1.8-4.4,4.1-4.4C290.8,357.8,292.4,359.5,292.4,362z
		 M285.9,362.1c0,1.8,1,3.2,2.5,3.2c1.4,0,2.5-1.3,2.5-3.2c0-1.4-0.7-3.2-2.5-3.2C286.6,358.9,285.9,360.5,285.9,362.1z"/>
	<path d="M301.1,364c0,0.8,0,1.6,0.1,2.2h-1.3l-0.1-1.3h0c-0.4,0.7-1.3,1.5-2.7,1.5c-1.3,0-2.8-0.7-2.8-3.6V358h1.5v4.5
		c0,1.6,0.5,2.6,1.8,2.6c1,0,1.7-0.7,2-1.4c0.1-0.2,0.1-0.5,0.1-0.8v-5h1.5V364z"/>
	<path d="M303.4,364.7c0.4,0.3,1.2,0.6,2,0.6c1.1,0,1.6-0.5,1.6-1.2c0-0.7-0.4-1.1-1.5-1.5c-1.5-0.5-2.2-1.3-2.2-2.3
		c0-1.3,1.1-2.4,2.8-2.4c0.8,0,1.6,0.2,2,0.5l-0.4,1.1c-0.3-0.2-0.9-0.5-1.7-0.5c-0.9,0-1.4,0.5-1.4,1.1c0,0.7,0.5,1,1.6,1.4
		c1.4,0.5,2.2,1.3,2.2,2.5c0,1.4-1.1,2.5-3.1,2.5c-0.9,0-1.7-0.2-2.3-0.6L303.4,364.7z"/>
	<path d="M313.9,354.9c0.9-0.1,2-0.2,3.1-0.2c2.1,0,3.6,0.5,4.6,1.4c1,0.9,1.6,2.3,1.6,4.1c0,1.9-0.6,3.4-1.6,4.4
		c-1.1,1.1-2.8,1.6-5.1,1.6c-1.1,0-1.9-0.1-2.7-0.1V354.9z M315.4,365c0.4,0.1,0.9,0.1,1.5,0.1c3.2,0,4.9-1.8,4.9-4.8
		c0-2.7-1.5-4.4-4.6-4.4c-0.8,0-1.3,0.1-1.7,0.2V365z"/>
	<path d="M329.7,366.2l-0.1-1h-0.1c-0.5,0.6-1.3,1.2-2.5,1.2c-1.7,0-2.5-1.2-2.5-2.4c0-2,1.8-3.1,4.9-3.1v-0.2
		c0-0.7-0.2-1.9-1.9-1.9c-0.8,0-1.6,0.2-2.1,0.6l-0.3-1c0.7-0.4,1.7-0.7,2.7-0.7c2.5,0,3.1,1.7,3.1,3.4v3.1c0,0.7,0,1.4,0.1,2H329.7
		z M329.5,362c-1.6,0-3.5,0.3-3.5,1.8c0,1,0.6,1.4,1.4,1.4c1.1,0,1.7-0.7,2-1.4c0.1-0.2,0.1-0.3,0.1-0.5V362z"/>
	<path d="M335.1,355.6v2.4h2.1v1.1h-2.1v4.4c0,1,0.3,1.6,1.1,1.6c0.4,0,0.7-0.1,0.9-0.1l0.1,1.1c-0.3,0.1-0.7,0.2-1.3,0.2
		c-0.7,0-1.3-0.2-1.6-0.6c-0.4-0.4-0.6-1.2-0.6-2.1v-4.5h-1.3V358h1.3v-2L335.1,355.6z"/>
	<path d="M343.4,366.2l-0.1-1h-0.1c-0.5,0.6-1.3,1.2-2.5,1.2c-1.7,0-2.5-1.2-2.5-2.4c0-2,1.8-3.1,4.9-3.1v-0.2
		c0-0.7-0.2-1.9-1.9-1.9c-0.8,0-1.6,0.2-2.1,0.6l-0.3-1c0.7-0.4,1.7-0.7,2.7-0.7c2.5,0,3.1,1.7,3.1,3.4v3.1c0,0.7,0,1.4,0.1,2H343.4
		z M343.2,362c-1.6,0-3.5,0.3-3.5,1.8c0,1,0.6,1.4,1.4,1.4c1.1,0,1.7-0.7,2-1.4c0.1-0.2,0.1-0.3,0.1-0.5V362z"/>
	<path d="M350.7,354.9c0.7-0.1,1.6-0.2,2.8-0.2c1.5,0,2.5,0.3,3.2,0.9c0.6,0.5,1,1.4,1,2.4c0,1-0.3,1.8-0.9,2.4
		c-0.8,0.8-2.1,1.3-3.5,1.3c-0.4,0-0.8,0-1.2-0.1v4.6h-1.5V354.9z M352.2,360.4c0.3,0.1,0.7,0.1,1.2,0.1c1.8,0,2.9-0.9,2.9-2.4
		c0-1.5-1.1-2.2-2.7-2.2c-0.6,0-1.1,0.1-1.4,0.1V360.4z"/>
	<path d="M363.8,366.2l-0.1-1h-0.1c-0.5,0.6-1.3,1.2-2.5,1.2c-1.7,0-2.5-1.2-2.5-2.4c0-2,1.8-3.1,4.9-3.1v-0.2
		c0-0.7-0.2-1.9-1.9-1.9c-0.8,0-1.6,0.2-2.1,0.6l-0.3-1c0.7-0.4,1.7-0.7,2.7-0.7c2.5,0,3.1,1.7,3.1,3.4v3.1c0,0.7,0,1.4,0.1,2H363.8
		z M363.6,362c-1.6,0-3.5,0.3-3.5,1.8c0,1,0.6,1.4,1.4,1.4c1.1,0,1.7-0.7,2-1.4c0.1-0.2,0.1-0.3,0.1-0.5V362z"/>
	<path d="M367.4,360.5c0-1,0-1.8-0.1-2.6h1.3l0.1,1.6h0.1c0.4-1.1,1.3-1.8,2.3-1.8c0.2,0,0.3,0,0.4,0.1v1.4c-0.2,0-0.3-0.1-0.5-0.1
		c-1.1,0-1.8,0.8-2,1.9c0,0.2-0.1,0.4-0.1,0.7v4.4h-1.5V360.5z"/>
	<path d="M377.4,366.2l-0.1-1h-0.1c-0.5,0.6-1.3,1.2-2.5,1.2c-1.7,0-2.5-1.2-2.5-2.4c0-2,1.8-3.1,4.9-3.1v-0.2
		c0-0.7-0.2-1.9-1.9-1.9c-0.8,0-1.6,0.2-2.1,0.6l-0.3-1c0.7-0.4,1.7-0.7,2.7-0.7c2.5,0,3.1,1.7,3.1,3.4v3.1c0,0.7,0,1.4,0.1,2H377.4
		z M377.2,362c-1.6,0-3.5,0.3-3.5,1.8c0,1,0.6,1.4,1.4,1.4c1.1,0,1.7-0.7,2-1.4c0.1-0.2,0.1-0.3,0.1-0.5V362z"/>
	<path d="M381,354.2h1.5v12H381V354.2z"/>
	<path d="M385,354.2h1.5v12H385V354.2z"/>
	<path d="M389.9,362.4c0,2,1.3,2.8,2.8,2.8c1.1,0,1.7-0.2,2.3-0.4l0.3,1.1c-0.5,0.2-1.4,0.5-2.7,0.5c-2.5,0-4-1.7-4-4.1
		c0-2.5,1.5-4.4,3.8-4.4c2.7,0,3.4,2.4,3.4,3.9c0,0.3,0,0.5-0.1,0.7H389.9z M394.2,361.3c0-0.9-0.4-2.4-2.1-2.4
		c-1.5,0-2.2,1.4-2.3,2.4H394.2z"/>
	<path d="M397.5,354.2h1.5v12h-1.5V354.2z"/>
	<path d="M403.2,355.7c0,0.5-0.4,0.9-0.9,0.9c-0.5,0-0.9-0.4-0.9-0.9c0-0.5,0.4-0.9,0.9-0.9C402.8,354.8,403.2,355.2,403.2,355.7z
		 M401.5,366.2V358h1.5v8.2H401.5z"/>
	<path d="M405.3,364.7c0.4,0.3,1.2,0.6,2,0.6c1.1,0,1.6-0.5,1.6-1.2c0-0.7-0.4-1.1-1.5-1.5c-1.5-0.5-2.2-1.3-2.2-2.3
		c0-1.3,1.1-2.4,2.8-2.4c0.8,0,1.6,0.2,2,0.5l-0.4,1.1c-0.3-0.2-0.9-0.5-1.7-0.5c-0.9,0-1.4,0.5-1.4,1.1c0,0.7,0.5,1,1.6,1.4
		c1.4,0.5,2.2,1.3,2.2,2.5c0,1.4-1.1,2.5-3.1,2.5c-0.9,0-1.7-0.2-2.3-0.6L405.3,364.7z"/>
	<path d="M412.2,360.2c0-0.8,0-1.5-0.1-2.2h1.3l0.1,1.3h0.1c0.5-0.8,1.2-1.5,2.6-1.5c1.1,0,2,0.7,2.3,1.6h0c0.3-0.5,0.6-0.8,0.9-1.1
		c0.5-0.4,1-0.6,1.8-0.6c1.1,0,2.7,0.7,2.7,3.6v4.8h-1.5v-4.6c0-1.6-0.6-2.5-1.8-2.5c-0.8,0-1.5,0.6-1.8,1.4
		c-0.1,0.2-0.1,0.5-0.1,0.7v5.1h-1.5v-4.9c0-1.3-0.6-2.3-1.7-2.3c-0.9,0-1.6,0.7-1.8,1.5c-0.1,0.2-0.1,0.5-0.1,0.7v5h-1.5V360.2z"/>
</g>
</svg>
