<?xml version="1.0" encoding="utf-8"?>
<!-- Generator: Adobe Illustrator 19.1.0, SVG Export Plug-In . SVG Version: 6.00 Build 0)  -->
<svg version="1.1" id="Layer_1" xmlns="http://www.w3.org/2000/svg" xmlns:xlink="http://www.w3.org/1999/xlink" x="0px" y="0px"
	 viewBox="0 0 260.8 180.1" style="enable-background:new 0 0 260.8 180.1;" xml:space="preserve">
<style type="text/css">
	.st0{fill:none;stroke:#BFBFBF;stroke-miterlimit:10;}
	.st1{fill:#BFBFBF;}
	.st2{fill:none;stroke:#000000;stroke-miterlimit:10;}
	.st3{fill:none;stroke:#000000;stroke-width:4;stroke-miterlimit:10;}
</style>
<g>
	<g>
		<path class="st0" d="M182.2,108.4c4.9,5,12.2,12.9,13.4,16.6"/>
		<g>
			<polygon class="st1" points="178.5,104.6 181.4,112.1 182.4,108.7 185.8,107.9 			"/>
		</g>
	</g>
</g>
<circle class="st2" cx="36.1" cy="49.5" r="11.5"/>
<circle class="st2" cx="83.2" cy="49.5" r="11.5"/>
<circle class="st2" cx="60.2" cy="93.1" r="11.5"/>
<circle class="st2" cx="13.1" cy="93.1" r="11.5"/>
<circle class="st2" cx="37.2" cy="136.6" r="11.5"/>
<circle class="st2" cx="84.6" cy="136.6" r="11.5"/>
<circle class="st2" cx="195.4" cy="136.6" r="11.5"/>
<circle class="st2" cx="218.4" cy="93.1" r="11.5"/>
<circle class="st2" cx="241.2" cy="49.3" r="11.5"/>
<circle class="st0" cx="243.2" cy="136.6" r="11.5"/>
<circle class="st0" cx="170.9" cy="93.1" r="11.5"/>
<circle class="st0" cx="193.9" cy="49.5" r="11.5"/>
<path d="M33.7,49.8c0,2.2,1.5,3.2,3.1,3.2c1.2,0,1.9-0.2,2.5-0.5l0.3,1.2c-0.6,0.3-1.6,0.6-3,0.6c-2.8,0-4.5-1.9-4.5-4.6
	s1.6-4.9,4.3-4.9c3,0,3.8,2.6,3.8,4.3c0,0.3,0,0.6-0.1,0.8H33.7z M38.6,48.6c0-1.1-0.4-2.7-2.3-2.7c-1.7,0-2.4,1.5-2.6,2.7H38.6z"/>
<path d="M81.3,56v-7.9H80v-1.3h1.3v-0.4c0-1.3,0.3-2.5,1.1-3.2c0.6-0.6,1.5-0.9,2.2-0.9c0.6,0,1.1,0.1,1.4,0.3l-0.2,1.3
	c-0.2-0.1-0.6-0.2-1.1-0.2c-1.4,0-1.8,1.2-1.8,2.6v0.5h2.2v1.3h-2.2V56H81.3z"/>
<path d="M16.7,84.8v11.1c0,0.8,0,1.7,0.1,2.4h-1.5l-0.1-1.6h0c-0.5,1-1.6,1.8-3.1,1.8c-2.2,0-3.9-1.9-3.9-4.7c0-3,1.9-4.9,4.1-4.9
	c1.4,0,2.3,0.7,2.8,1.4h0v-5.5H16.7z M15,92.8c0-0.2,0-0.5-0.1-0.7c-0.2-1.1-1.2-1.9-2.4-1.9c-1.7,0-2.7,1.5-2.7,3.5
	c0,1.9,0.9,3.4,2.7,3.4c1.1,0,2.1-0.7,2.4-2c0.1-0.2,0.1-0.5,0.1-0.7V92.8z"/>
<path d="M63.3,96.9c-0.4,0.2-1.4,0.5-2.6,0.5c-2.8,0-4.6-1.9-4.6-4.7c0-2.8,1.9-4.9,4.9-4.9c1,0,1.9,0.2,2.3,0.5l-0.4,1.3
	c-0.4-0.2-1-0.4-1.9-0.4c-2.1,0-3.2,1.6-3.2,3.5c0,2.1,1.4,3.4,3.2,3.4c0.9,0,1.6-0.2,2-0.5L63.3,96.9z"/>
<path d="M38.8,141.2l-0.1-1.2h-0.1c-0.5,0.7-1.5,1.4-2.8,1.4c-1.9,0-2.8-1.3-2.8-2.6c0-2.2,2-3.4,5.5-3.4v-0.2
	c0-0.8-0.2-2.1-2.1-2.1c-0.9,0-1.7,0.3-2.4,0.7l-0.4-1.1c0.8-0.5,1.9-0.8,3-0.8c2.8,0,3.5,1.9,3.5,3.7v3.4c0,0.8,0,1.6,0.2,2.2H38.8
	z M38.6,136.6c-1.8,0-3.9,0.3-3.9,2.1c0,1.1,0.7,1.6,1.6,1.6c1.2,0,1.9-0.8,2.2-1.5c0.1-0.2,0.1-0.4,0.1-0.5V136.6z"/>
<path d="M81,141.2c0-0.6,0.1-1.5,0.1-2.4v-11.1h1.6v5.7h0c0.6-1,1.6-1.7,3.1-1.7c2.3,0,3.9,1.9,3.9,4.7c0,3.3-2.1,4.9-4.1,4.9
	c-1.3,0-2.4-0.5-3.1-1.7h-0.1l-0.1,1.5H81z M82.8,137.6c0,0.2,0,0.4,0.1,0.6c0.3,1.2,1.3,1.9,2.5,1.9c1.7,0,2.8-1.4,2.8-3.5
	c0-1.8-0.9-3.4-2.7-3.4c-1.1,0-2.2,0.8-2.5,2c0,0.2-0.1,0.4-0.1,0.7V137.6z"/>
<path d="M196.6,141.2l-0.1-1.2h-0.1c-0.5,0.7-1.5,1.4-2.8,1.4c-1.9,0-2.8-1.3-2.8-2.6c0-2.2,2-3.4,5.5-3.4v-0.2
	c0-0.8-0.2-2.1-2.1-2.1c-0.9,0-1.7,0.3-2.4,0.7l-0.4-1.1c0.8-0.5,1.9-0.8,3-0.8c2.8,0,3.5,1.9,3.5,3.7v3.4c0,0.8,0,1.6,0.2,2.2
	H196.6z M196.3,136.6c-1.8,0-3.9,0.3-3.9,2.1c0,1.1,0.7,1.6,1.6,1.6c1.2,0,1.9-0.8,2.2-1.5c0.1-0.2,0.1-0.4,0.1-0.5V136.6z"/>
<path class="st1" d="M239.5,141.2c0-0.6,0.1-1.5,0.1-2.4v-11.1h1.6v5.7h0c0.6-1,1.6-1.7,3.1-1.7c2.3,0,3.9,1.9,3.9,4.7
	c0,3.3-2.1,4.9-4.1,4.9c-1.3,0-2.4-0.5-3.1-1.7H241l-0.1,1.5H239.5z M241.3,137.6c0,0.2,0,0.4,0.1,0.6c0.3,1.2,1.3,1.9,2.5,1.9
	c1.7,0,2.8-1.4,2.8-3.5c0-1.8-0.9-3.4-2.7-3.4c-1.1,0-2.2,0.8-2.5,2c0,0.2-0.1,0.4-0.1,0.7V137.6z"/>
<path class="st1" d="M173.4,84.8v11.1c0,0.8,0,1.7,0.1,2.4H172l-0.1-1.6h0c-0.5,1-1.6,1.8-3.1,1.8c-2.2,0-3.9-1.9-3.9-4.7
	c0-3,1.9-4.9,4.1-4.9c1.4,0,2.3,0.7,2.8,1.4h0v-5.5H173.4z M171.7,92.8c0-0.2,0-0.5-0.1-0.7c-0.2-1.1-1.2-1.9-2.4-1.9
	c-1.7,0-2.7,1.5-2.7,3.5c0,1.9,0.9,3.4,2.7,3.4c1.1,0,2.1-0.7,2.4-2c0.1-0.2,0.1-0.5,0.1-0.7V92.8z"/>
<path d="M220.8,96.9c-0.4,0.2-1.4,0.5-2.6,0.5c-2.8,0-4.6-1.9-4.6-4.7c0-2.8,1.9-4.9,4.9-4.9c1,0,1.9,0.2,2.3,0.5l-0.4,1.3
	c-0.4-0.2-1-0.4-1.9-0.4c-2.1,0-3.2,1.6-3.2,3.5c0,2.1,1.4,3.4,3.2,3.4c0.9,0,1.6-0.2,2-0.5L220.8,96.9z"/>
<path class="st1" d="M191.2,49.8c0,2.2,1.5,3.2,3.1,3.2c1.2,0,1.9-0.2,2.5-0.5l0.3,1.2c-0.6,0.3-1.6,0.6-3,0.6
	c-2.8,0-4.5-1.9-4.5-4.6s1.6-4.9,4.3-4.9c3,0,3.8,2.6,3.8,4.3c0,0.3,0,0.6-0.1,0.8H191.2z M196.1,48.6c0-1.1-0.4-2.7-2.3-2.7
	c-1.7,0-2.4,1.5-2.6,2.7H196.1z"/>
<path d="M238.5,56v-7.9h-1.3v-1.3h1.3v-0.4c0-1.3,0.3-2.5,1.1-3.2c0.6-0.6,1.5-0.9,2.2-0.9c0.6,0,1.1,0.1,1.4,0.3l-0.2,1.3
	c-0.2-0.1-0.6-0.2-1.1-0.2c-1.4,0-1.8,1.2-1.8,2.6v0.5h2.2v1.3h-2.2V56H238.5z"/>
<g>
	<g>
		<path class="st2" d="M37.2,125.1c2.4-3.8,8.2-11.9,12.8-16.8"/>
		<g>
			<polygon points="53.9,104.6 50.6,112 49.7,108.5 46.4,107.5 			"/>
		</g>
	</g>
</g>
<g>
	<g>
		<path class="st2" d="M23.8,108.4c4.9,5,12.2,12.9,13.4,16.6"/>
		<g>
			<polygon points="20.1,104.6 23.1,112.1 24,108.7 27.5,107.9 			"/>
		</g>
	</g>
</g>
<g>
	<g>
		<path class="st2" d="M60.5,81.4c2.4-3.8,8.2-11.9,12.8-16.8"/>
		<g>
			<polygon points="77.1,61 73.8,68.3 73,64.9 69.6,63.9 			"/>
		</g>
	</g>
</g>
<g>
	<g>
		<path class="st2" d="M47,64.8c4.9,5,12.2,12.9,13.4,16.6"/>
		<g>
			<polygon points="43.4,61 46.3,68.5 47.3,65.1 50.7,64.3 			"/>
		</g>
	</g>
</g>
<g>
	<g>
		<path class="st2" d="M13.1,81.4c2.4-3.8,8.2-11.9,12.8-16.8"/>
		<g>
			<polygon points="29.8,61 26.5,68.3 25.6,64.9 22.3,63.9 			"/>
		</g>
	</g>
</g>
<g>
	<g>
		<path class="st2" d="M71.2,108.4c4.9,5,12.2,12.9,13.4,16.6"/>
		<g>
			<polygon points="67.5,104.6 70.4,112.1 71.4,108.7 74.8,107.9 			"/>
		</g>
	</g>
</g>
<g>
	<g>
		<path class="st2" d="M195.6,125.1c2.4-3.8,8.2-11.9,12.8-16.8"/>
		<g>
			<polygon points="212.2,104.6 208.9,112 208.1,108.5 204.7,107.5 			"/>
		</g>
	</g>
</g>
<g>
	<g>
		<path class="st2" d="M218.6,81.4c2.4-3.8,8.2-11.9,12.8-16.8"/>
		<g>
			<polygon points="235.2,61 231.9,68.3 231.1,64.9 227.7,63.9 			"/>
		</g>
	</g>
</g>
<g>
	<g>
		<path class="st2" d="M205.2,64.8c4.9,5,12.2,12.9,13.4,16.6"/>
		<g>
			<polygon points="201.5,61 204.4,68.5 205.4,65.1 208.8,64.3 			"/>
		</g>
	</g>
</g>
<g>
	<g>
		<path class="st0" d="M170.9,81.4c2.4-3.8,8.2-11.9,12.8-16.8"/>
		<g>
			<polygon class="st1" points="187.5,61 184.2,68.3 183.4,64.9 180,63.9 			"/>
		</g>
	</g>
</g>
<g>
	<g>
		<line class="st2" x1="241.2" y1="37.8" x2="241.2" y2="28.6"/>
		<g>
			<polygon points="241.2,23 244.4,31 241.2,29.1 237.9,31 			"/>
		</g>
	</g>
</g>
<g>
	<g>
		<line class="st3" x1="117.1" y1="94.8" x2="130" y2="94.8"/>
		<g>
			<polygon points="127.8,102.1 140.6,94.8 127.8,87.4 			"/>
		</g>
	</g>
</g>
<rect x="223" y="161.3" class="st2" width="36.3" height="17.8"/>
<g>
	<g>
		<path class="st2" d="M241.1,161.3c-0.3-3.5-1.5-6.8-5.9-9c-4.4-2.2-11.4-6.5-12.3-11.1c-0.8-4.6,0.6-10.1,3.9-13.9
			c2.9-3.3,4.9-9.8,1-18.1"/>
		<g>
			<polygon points="225.3,104.6 231.6,109.6 228.1,109.6 226.3,112.6 			"/>
		</g>
	</g>
</g>
<rect x="222.7" y="0.8" class="st2" width="36.7" height="18.5"/>
<path d="M229.6,13.7V8.6h-0.8V7.7h0.8V7.5c0-0.8,0.2-1.6,0.7-2.1c0.4-0.4,0.9-0.6,1.4-0.6c0.4,0,0.7,0.1,0.9,0.2l-0.1,0.8
	c-0.2-0.1-0.4-0.1-0.7-0.1c-0.9,0-1.2,0.8-1.2,1.7v0.3h1.4v0.8h-1.4v5.1H229.6z"/>
<path d="M233.5,10.9c0,1.5,1,2.1,2,2.1c0.8,0,1.2-0.1,1.6-0.3l0.2,0.8c-0.4,0.2-1,0.4-2,0.4c-1.8,0-2.9-1.2-2.9-3s1.1-3.2,2.8-3.2
	c1.9,0,2.4,1.7,2.4,2.8c0,0.2,0,0.4,0,0.5H233.5z M236.7,10.1c0-0.7-0.3-1.8-1.5-1.8c-1.1,0-1.6,1-1.7,1.8H236.7z"/>
<path d="M240.4,6v1.7h1.5v0.8h-1.5v3.2c0,0.7,0.2,1.2,0.8,1.2c0.3,0,0.5,0,0.6-0.1l0,0.8c-0.2,0.1-0.5,0.1-1,0.1
	c-0.5,0-0.9-0.2-1.2-0.5c-0.3-0.3-0.4-0.8-0.4-1.5V8.6h-0.9V7.7h0.9V6.3L240.4,6z"/>
<path d="M247.3,13.4c-0.3,0.1-0.9,0.3-1.7,0.3c-1.8,0-2.9-1.2-2.9-3c0-1.8,1.2-3.1,3.2-3.1c0.6,0,1.2,0.2,1.5,0.3L247,8.8
	c-0.3-0.1-0.7-0.3-1.2-0.3c-1.4,0-2.1,1-2.1,2.2c0,1.4,0.9,2.2,2.1,2.2c0.6,0,1-0.2,1.3-0.3L247.3,13.4z"/>
<path d="M248.5,5h1.1v3.7h0c0.2-0.3,0.4-0.6,0.8-0.8c0.3-0.2,0.7-0.3,1.1-0.3c0.8,0,2.1,0.5,2.1,2.5v3.5h-1.1v-3.4
	c0-1-0.4-1.8-1.4-1.8c-0.7,0-1.2,0.5-1.4,1.1c-0.1,0.1-0.1,0.3-0.1,0.5v3.6h-1.1V5z"/>
<path d="M230.7,174.2v-5.1h-0.8v-0.8h0.8V168c0-0.8,0.2-1.6,0.7-2.1c0.4-0.4,0.9-0.6,1.4-0.6c0.4,0,0.7,0.1,0.9,0.2l-0.1,0.8
	c-0.2-0.1-0.4-0.1-0.7-0.1c-0.9,0-1.2,0.8-1.2,1.7v0.3h1.4v0.8h-1.4v5.1H230.7z"/>
<path d="M234.6,171.4c0,1.5,1,2.1,2,2.1c0.8,0,1.2-0.1,1.6-0.3l0.2,0.8c-0.4,0.2-1,0.4-2,0.4c-1.8,0-2.9-1.2-2.9-3
	c0-1.8,1.1-3.2,2.8-3.2c1.9,0,2.4,1.7,2.4,2.8c0,0.2,0,0.4,0,0.5H234.6z M237.8,170.6c0-0.7-0.3-1.8-1.5-1.8c-1.1,0-1.6,1-1.7,1.8
	H237.8z"/>
<path d="M240.7,171.4c0,1.5,1,2.1,2,2.1c0.8,0,1.2-0.1,1.6-0.3l0.2,0.8c-0.4,0.2-1,0.4-2,0.4c-1.8,0-2.9-1.2-2.9-3
	c0-1.8,1.1-3.2,2.8-3.2c1.9,0,2.4,1.7,2.4,2.8c0,0.2,0,0.4,0,0.5H240.7z M243.9,170.6c0-0.7-0.3-1.8-1.5-1.8c-1.1,0-1.6,1-1.7,1.8
	H243.9z"/>
<path d="M251.4,165.5v7.2c0,0.5,0,1.1,0,1.5h-1l0-1h0c-0.3,0.7-1.1,1.2-2,1.2c-1.4,0-2.5-1.2-2.5-3c0-2,1.2-3.2,2.7-3.2
	c0.9,0,1.5,0.4,1.8,0.9h0v-3.5H251.4z M250.3,170.7c0-0.1,0-0.3,0-0.5c-0.2-0.7-0.7-1.2-1.6-1.2c-1.1,0-1.8,1-1.8,2.3
	c0,1.2,0.6,2.2,1.8,2.2c0.7,0,1.4-0.5,1.6-1.3c0-0.1,0-0.3,0-0.5V170.7z"/>
</svg>
