<?xml version="1.0" encoding="utf-8"?>
<!-- Generator: Adobe Illustrator 19.1.0, SVG Export Plug-In . SVG Version: 6.00 Build 0)  -->
<svg version="1.1" id="Layer_1" xmlns="http://www.w3.org/2000/svg" xmlns:xlink="http://www.w3.org/1999/xlink" x="0px" y="0px"
	 viewBox="0 0 248.9 189.3" style="enable-background:new 0 0 248.9 189.3;" xml:space="preserve">
<style type="text/css">
	.st0{fill:none;stroke:#BFBFBF;stroke-miterlimit:10;}
	.st1{fill:#BFBFBF;}
	.st2{fill:none;stroke:#000000;stroke-miterlimit:10;}
	.st3{fill:none;}
	.st4{font-family:'MyriadPro-Regular';}
	.st5{font-size:13.9215px;}
</style>
<path class="st0" d="M55.5,67.9c7.8-5.5,41.8-21.2,75.8-21.2"/>
<g>
	<g>
		<path class="st0" d="M55.2,35.8c3.3-2.2,7.9-7.8,23.4-3c15.5,4.8,22.8,14.8,63,13.9h19.9"/>
		<g>
			<polygon class="st1" points="166.2,46.7 159.5,49.4 161.1,46.7 159.5,43.9 			"/>
		</g>
	</g>
</g>
<path class="st0" d="M59.3,65.6c6.5-3.3,46.6,7.1,55.2,9.4s8.7,3.4,26.6,3.4"/>
<path class="st0" d="M65,133.4c5.7-4.3,27.2-24,70.5-24"/>
<g>
	<g>
		<path class="st0" d="M58,99.5c3.2-2.3,18.6-2.7,46.4,4.3s23.2,5.6,37.9,5.6c7.1,0,12,0,15.1,0"/>
		<g>
			<polygon class="st1" points="162.1,109.4 155.5,112.1 157,109.4 155.5,106.6 			"/>
		</g>
	</g>
</g>
<path class="st0" d="M65.8,132.8c4.7-3.6,26.5,0.2,52.5,11.6s29.2,11.8,38.7,7.7"/>
<circle class="st2" cx="55.2" cy="13.6" r="9"/>
<circle class="st2" cx="13.1" cy="141.5" r="9"/>
<circle class="st2" cx="37.2" cy="175.3" r="9"/>
<circle class="st2" cx="93.7" cy="175.3" r="9"/>
<g>
	<path d="M57.8,18.3c-0.4,0.2-1.3,0.4-2.4,0.4c-2.6,0-4.5-1.6-4.5-4.7c0-2.9,2-4.8,4.8-4.8c1.1,0,1.9,0.2,2.2,0.4l-0.3,1
		c-0.5-0.2-1.1-0.4-1.9-0.4c-2.2,0-3.6,1.4-3.6,3.8c0,2.3,1.3,3.7,3.5,3.7c0.7,0,1.5-0.2,1.9-0.4L57.8,18.3z"/>
</g>
<g>
	<path d="M9.9,147.4c0-0.5,0.1-1.1,0.1-1.7v-8h1.2v4.2h0c0.4-0.7,1.2-1.2,2.3-1.2c1.6,0,2.8,1.4,2.8,3.4c0,2.4-1.5,3.5-3,3.5
		c-1,0-1.7-0.4-2.2-1.2h0l-0.1,1.1H9.9z M11.1,144.8c0,0.1,0,0.3,0.1,0.4c0.2,0.8,0.9,1.4,1.8,1.4c1.3,0,2-1,2-2.5
		c0-1.3-0.7-2.5-2-2.5c-0.8,0-1.6,0.6-1.8,1.5c0,0.1-0.1,0.3-0.1,0.5V144.8z"/>
</g>
<g>
	<path d="M34.2,179.9l-2.3-9.2h1.3l1.1,4.7c0.3,1.1,0.5,2.3,0.7,3.2h0c0.2-0.9,0.4-2,0.8-3.2l1.2-4.6h1.2l1.1,4.7
		c0.3,1.1,0.5,2.2,0.6,3.2h0c0.2-1,0.5-2,0.7-3.2l1.2-4.6h1.2l-2.6,9.2h-1.2l-1.2-4.8c-0.3-1.2-0.5-2.1-0.6-3h0
		c-0.2,0.9-0.4,1.8-0.7,3l-1.3,4.8H34.2z"/>
</g>
<g>
	<path d="M91.4,171.7l0.9,1.4c0.2,0.4,0.5,0.7,0.7,1.1h0c0.2-0.4,0.4-0.7,0.7-1.1l0.9-1.4H96l-2.3,3.2l2.3,3.4h-1.4l-1-1.5
		c-0.3-0.4-0.5-0.8-0.7-1.1h0c-0.2,0.4-0.5,0.8-0.7,1.1l-1,1.5H90l2.3-3.4l-2.2-3.2H91.4z"/>
</g>
<g>
	<path d="M53.6,143.7c-0.1-1-0.1-2.3-0.1-3.2h0c-0.3,0.9-0.6,1.8-0.9,2.8l-1.3,3.6h-0.7l-1.2-3.5c-0.4-1-0.6-2-0.9-2.9h0
		c0,0.9-0.1,2.2-0.1,3.3l-0.2,3.2h-0.9l0.5-7.4h1.2l1.3,3.6c0.3,0.9,0.6,1.7,0.7,2.5h0c0.2-0.7,0.5-1.6,0.8-2.5l1.3-3.6h1.2l0.5,7.4
		h-0.9L53.6,143.7z"/>
	<path d="M59.2,147l-0.1-0.7h0c-0.3,0.4-0.9,0.8-1.6,0.8c-1.1,0-1.6-0.8-1.6-1.5c0-1.3,1.1-2,3.2-2v-0.1c0-0.4-0.1-1.2-1.2-1.2
		c-0.5,0-1,0.2-1.4,0.4l-0.2-0.6c0.4-0.3,1.1-0.5,1.7-0.5c1.6,0,2,1.1,2,2.2v2c0,0.5,0,0.9,0.1,1.3H59.2z M59.1,144.2
		c-1.1,0-2.3,0.2-2.3,1.2c0,0.6,0.4,0.9,0.9,0.9c0.7,0,1.1-0.4,1.3-0.9c0-0.1,0.1-0.2,0.1-0.3V144.2z"/>
	<path d="M62.7,140.1v1.5h1.4v0.7h-1.4v2.9c0,0.7,0.2,1,0.7,1c0.3,0,0.4,0,0.6-0.1l0,0.7c-0.2,0.1-0.5,0.1-0.9,0.1
		c-0.5,0-0.8-0.1-1-0.4c-0.3-0.3-0.4-0.8-0.4-1.4v-2.9h-0.8v-0.7h0.8v-1.3L62.7,140.1z"/>
	<path d="M71.5,143.7c-0.1-1-0.1-2.3-0.1-3.2h0c-0.3,0.9-0.6,1.8-0.9,2.8l-1.3,3.6h-0.7l-1.2-3.5c-0.4-1-0.6-2-0.9-2.9h0
		c0,0.9-0.1,2.2-0.1,3.3l-0.2,3.2H65l0.5-7.4h1.2l1.3,3.6c0.3,0.9,0.6,1.7,0.7,2.5h0c0.2-0.7,0.5-1.6,0.8-2.5l1.3-3.6h1.2l0.5,7.4
		h-0.9L71.5,143.7z"/>
	<path d="M78.5,145.5c0,0.6,0,1,0,1.5h-0.9l-0.1-0.9h0c-0.3,0.4-0.8,1-1.8,1c-0.8,0-1.8-0.5-1.8-2.3v-3.1h1v2.9c0,1,0.3,1.7,1.2,1.7
		c0.6,0,1.1-0.5,1.3-0.9c0.1-0.1,0.1-0.3,0.1-0.5v-3.3h1V145.5z"/>
	<path d="M80.1,139.2h1v7.8h-1V139.2z"/>
</g>
<g>
	<path d="M47.7,111.7L47,114h-1l2.5-7.4h1.2l2.5,7.4h-1l-0.8-2.3H47.7z M50.2,111l-0.7-2.1c-0.2-0.5-0.3-0.9-0.4-1.4h0
		c-0.1,0.4-0.2,0.9-0.4,1.3l-0.7,2.1H50.2z"/>
	<path d="M57.7,106.2v6.4c0,0.5,0,1,0,1.4h-0.9l0-0.9h0c-0.3,0.6-0.9,1-1.8,1c-1.3,0-2.3-1.1-2.3-2.7c0-1.8,1.1-2.9,2.4-2.9
		c0.8,0,1.4,0.4,1.6,0.8h0v-3.2H57.7z M56.7,110.9c0-0.1,0-0.3,0-0.4c-0.1-0.6-0.7-1.1-1.4-1.1c-1,0-1.6,0.9-1.6,2.1
		c0,1.1,0.5,2,1.6,2c0.6,0,1.2-0.4,1.4-1.2c0-0.1,0-0.3,0-0.4V110.9z"/>
	<path d="M63.9,106.2v6.4c0,0.5,0,1,0,1.4h-0.9l0-0.9h0c-0.3,0.6-0.9,1-1.8,1c-1.3,0-2.3-1.1-2.3-2.7c0-1.8,1.1-2.9,2.4-2.9
		c0.8,0,1.4,0.4,1.6,0.8h0v-3.2H63.9z M62.9,110.9c0-0.1,0-0.3,0-0.4c-0.1-0.6-0.7-1.1-1.4-1.1c-1,0-1.6,0.9-1.6,2.1
		c0,1.1,0.5,2,1.6,2c0.6,0,1.2-0.4,1.4-1.2c0-0.1,0-0.3,0-0.4V110.9z"/>
</g>
<g>
	<path d="M44,74.8c0.5-0.1,1.2-0.2,1.8-0.2c1,0,1.7,0.2,2.1,0.6c0.4,0.3,0.6,0.8,0.6,1.4c0,1-0.6,1.6-1.4,1.9v0
		c0.6,0.2,0.9,0.7,1.1,1.5c0.2,1,0.4,1.7,0.6,2h-1c-0.1-0.2-0.3-0.8-0.5-1.8c-0.2-1-0.6-1.4-1.5-1.4H45v3.2h-1V74.8z M45,78.2h1
		c1,0,1.7-0.6,1.7-1.4c0-1-0.7-1.4-1.7-1.4c-0.5,0-0.8,0-0.9,0.1V78.2z"/>
	<path d="M50.5,79.6c0,1.3,0.9,1.8,1.8,1.8c0.7,0,1.1-0.1,1.5-0.3l0.2,0.7c-0.3,0.2-0.9,0.3-1.8,0.3c-1.6,0-2.6-1.1-2.6-2.7
		c0-1.6,0.9-2.9,2.5-2.9c1.7,0,2.2,1.5,2.2,2.5c0,0.2,0,0.4,0,0.5H50.5z M53.3,78.9c0-0.6-0.3-1.6-1.3-1.6c-1,0-1.4,0.9-1.5,1.6
		H53.3z"/>
	<path d="M55.5,74.7h1v6.6h3.2v0.8h-4.1V74.7z"/>
	<path d="M61.3,74.7v4.4c0,1.7,0.7,2.4,1.7,2.4c1.1,0,1.8-0.7,1.8-2.4v-4.4h1V79c0,2.3-1.2,3.2-2.8,3.2c-1.5,0-2.7-0.9-2.7-3.2v-4.4
		H61.3z"/>
</g>
<g>
	<path d="M50.5,47.7c0-0.6,0.4-1,1-1s1,0.4,1,1c0,0.6-0.4,1-1,1C50.9,48.7,50.5,48.3,50.5,47.7z"/>
	<path d="M53.9,47.7c0-0.6,0.4-1,1-1c0.6,0,1,0.4,1,1c0,0.6-0.4,1-1,1C54.3,48.7,53.9,48.3,53.9,47.7z"/>
	<path d="M57.4,47.7c0-0.6,0.4-1,1-1c0.6,0,1,0.4,1,1c0,0.6-0.4,1-1,1C57.8,48.7,57.4,48.3,57.4,47.7z"/>
</g>
<path class="st2" d="M70.2,85.3H37.8c-2.2,0-4-1.8-4-4v-5.8c0-2.2,1.8-4,4-4h32.3c2.2,0,4,1.8,4,4v5.8
	C74.2,83.5,72.4,85.3,70.2,85.3z"/>
<path class="st2" d="M70.8,117.1H38.5c-2.2,0-4-1.8-4-4v-5.8c0-2.2,1.8-4,4-4h32.3c2.2,0,4,1.8,4,4v5.8
	C74.8,115.3,73,117.1,70.8,117.1z"/>
<path class="st2" d="M80.3,149.8H48c-2.2,0-4-1.8-4-4V140c0-2.2,1.8-4,4-4h32.3c2.2,0,4,1.8,4,4v5.8C84.3,148,82.5,149.8,80.3,149.8
	z"/>
<polygon class="st2" points="38.7,41.1 71.5,41.1 73.2,43 70.2,44.8 73.2,46.7 70.1,48.6 73.2,49.7 70.1,51.3 73.2,53.3 71.5,55.1 
	38.7,55.1 37,53 40,51.3 37,49.8 40.2,48.6 37,46.4 39.9,44.7 37,42.5 "/>
<g>
	<g>
		<path class="st2" d="M40.5,166.9c1.2-2.4,6.6-9.2,10.6-13.3"/>
		<g>
			<polygon points="54.7,150.5 51.5,157 50.8,153.9 47.9,152.9 			"/>
		</g>
	</g>
</g>
<g>
	<g>
		<path class="st2" d="M89.1,167.3c-1.6-3.2-6.5-8.7-10.4-12.8"/>
		<g>
			<polygon points="75.5,151 82,154.1 79,154.7 78,157.7 			"/>
		</g>
	</g>
</g>
<g>
	<g>
		<line class="st2" x1="65" y1="136" x2="65" y2="123.3"/>
		<g>
			<polygon points="65,118.5 67.7,125.2 65,123.6 62.3,125.2 			"/>
		</g>
	</g>
</g>
<g>
	<g>
		<path class="st2" d="M16.2,133.4c1.7-1.1,7.6-2.4,12.1-3.6c3.8-1,9-1.4,12.9-7.7"/>
		<g>
			<polygon points="43.3,117.8 42.7,125 41,122.3 37.9,122.5 			"/>
		</g>
	</g>
</g>
<g>
	<g>
		<line class="st2" x1="55.5" y1="103.3" x2="55.5" y2="91.2"/>
		<g>
			<polygon points="55.5,86.5 58.2,93.2 55.5,91.6 52.8,93.2 			"/>
		</g>
	</g>
</g>
<g>
	<g>
		<line class="st2" x1="55.5" y1="71.5" x2="55.5" y2="59.8"/>
		<g>
			<polygon points="55.5,55.1 58.2,61.8 55.5,60.2 52.8,61.8 			"/>
		</g>
	</g>
</g>
<g>
	<g>
		<line class="st2" x1="55.2" y1="41.1" x2="55.2" y2="27.4"/>
		<g>
			<polygon points="55.2,22.6 57.9,29.3 55.2,27.7 52.4,29.3 			"/>
		</g>
	</g>
</g>
<circle class="st2" cx="185.9" cy="13.6" r="9"/>
<ellipse class="st2" cx="139.8" cy="140" rx="16.5" ry="7.5"/>
<ellipse class="st2" cx="163.4" cy="175.3" rx="16.4" ry="9"/>
<ellipse class="st2" cx="230.2" cy="175.3" rx="16.1" ry="9"/>
<g>
	<path d="M181.2,47.7c0-0.6,0.4-1,1-1s1,0.4,1,1c0,0.6-0.4,1-1,1C181.6,48.7,181.2,48.3,181.2,47.7z"/>
	<path d="M184.7,47.7c0-0.6,0.4-1,1-1s1,0.4,1,1c0,0.6-0.4,1-1,1C185.1,48.7,184.7,48.3,184.7,47.7z"/>
	<path d="M188.1,47.7c0-0.6,0.4-1,1-1c0.6,0,1,0.4,1,1c0,0.6-0.4,1-1,1C188.5,48.7,188.1,48.3,188.1,47.7z"/>
</g>
<path class="st2" d="M200.9,85.3h-32.3c-2.2,0-4-1.8-4-4v-5.8c0-2.2,1.8-4,4-4h32.3c2.2,0,4,1.8,4,4v5.8
	C204.9,83.5,203.1,85.3,200.9,85.3z"/>
<path class="st2" d="M201.5,117.1h-32.3c-2.2,0-4-1.8-4-4v-5.8c0-2.2,1.8-4,4-4h32.3c2.2,0,4,1.8,4,4v5.8
	C205.5,115.3,203.7,117.1,201.5,117.1z"/>
<path class="st2" d="M211,149.8h-32.3c-2.2,0-4-1.8-4-4V140c0-2.2,1.8-4,4-4H211c2.2,0,4,1.8,4,4v5.8C215,148,213.2,149.8,211,149.8
	z"/>
<polygon class="st2" points="169.4,41.1 202.2,41.1 203.9,43 200.9,44.8 203.9,46.7 200.8,48.6 203.9,49.7 200.8,51.3 203.9,53.3 
	202.2,55.1 169.4,55.1 167.7,53 170.8,51.3 167.7,49.8 170.9,48.6 167.7,46.4 170.6,44.7 167.7,42.5 "/>
<g>
	<g>
		<path class="st2" d="M174.7,163.7c4.2-4.3,9-10.3,10.7-13.2"/>
		<g>
			<polygon points="171.2,166.9 177.9,164.4 174.9,163.5 174.2,160.4 			"/>
		</g>
	</g>
</g>
<g>
	<g>
		<path class="st2" d="M217.1,163.4c-3.3-4.5-8.1-10.7-10.9-13.6"/>
		<g>
			<polygon points="219.9,167.3 218.1,160.3 216.9,163.2 213.7,163.5 			"/>
		</g>
	</g>
</g>
<g>
	<g>
		<line class="st2" x1="195.7" y1="131.3" x2="195.7" y2="118.5"/>
		<g>
			<polygon points="195.7,136 198.4,129.4 195.7,130.9 193,129.4 			"/>
		</g>
	</g>
</g>
<g>
	<g>
		<path class="st2" d="M153.2,131.7c2.4-0.7,5.2-1.4,7.7-2c4.5-1.2,9.1-1.6,13.1-12"/>
		<g>
			<polygon points="148.8,133.4 156,133.7 153.6,131.7 154.2,128.6 			"/>
		</g>
	</g>
</g>
<g>
	<g>
		<line class="st2" x1="186.2" y1="98.6" x2="186.2" y2="85.3"/>
		<g>
			<polygon points="186.2,103.3 188.9,96.6 186.2,98.2 183.5,96.6 			"/>
		</g>
	</g>
</g>
<g>
	<g>
		<line class="st2" x1="186.2" y1="66.8" x2="186.2" y2="55.1"/>
		<g>
			<polygon points="186.2,71.5 188.9,64.8 186.2,66.4 183.5,64.8 			"/>
		</g>
	</g>
</g>
<g>
	<g>
		<line class="st2" x1="185.9" y1="36.4" x2="185.9" y2="22.6"/>
		<g>
			<polygon points="185.9,41.1 188.6,34.5 185.9,36.1 183.1,34.5 			"/>
		</g>
	</g>
</g>
<g>
	<path d="M175.2,73.4v6.5c0,0.5,0,1,0,1.4h-0.9l0-0.9h0c-0.3,0.6-0.9,1-1.8,1c-1.3,0-2.3-1.1-2.3-2.7c0-1.8,1.1-2.9,2.4-2.9
		c0.8,0,1.4,0.4,1.6,0.8h0v-3.2H175.2z M174.2,78c0-0.1,0-0.3,0-0.4c-0.1-0.6-0.7-1.1-1.4-1.1c-1,0-1.6,0.9-1.6,2.1
		c0,1.1,0.5,2,1.6,2c0.7,0,1.2-0.4,1.4-1.2c0-0.1,0-0.3,0-0.4V78z"/>
	<path d="M176.8,73.9c0.5-0.1,1.2-0.2,1.8-0.2c1,0,1.7,0.2,2.2,0.6c0.4,0.3,0.6,0.8,0.6,1.4c0,1-0.6,1.6-1.4,1.9v0
		c0.6,0.2,0.9,0.7,1.1,1.5c0.2,1,0.4,1.8,0.6,2h-1c-0.1-0.2-0.3-0.8-0.5-1.8c-0.2-1-0.6-1.4-1.5-1.4h-0.9v3.2h-1V73.9z M177.8,77.2
		h1c1,0,1.7-0.6,1.7-1.4c0-1-0.7-1.4-1.7-1.4c-0.5,0-0.8,0-0.9,0.1V77.2z"/>
	<path d="M183.3,78.7c0,1.3,0.9,1.9,1.8,1.9c0.7,0,1.1-0.1,1.5-0.3l0.2,0.7c-0.3,0.2-0.9,0.3-1.8,0.3c-1.6,0-2.6-1.1-2.6-2.7
		s0.9-2.9,2.5-2.9c1.7,0,2.2,1.5,2.2,2.5c0,0.2,0,0.4,0,0.5H183.3z M186.2,78c0-0.6-0.3-1.6-1.3-1.6c-1,0-1.4,0.9-1.5,1.6H186.2z"/>
	<path d="M188.3,73.8h1v6.6h3.2v0.8h-4.1V73.8z"/>
	<path d="M194.1,73.8v4.4c0,1.7,0.7,2.4,1.7,2.4c1.1,0,1.8-0.7,1.8-2.4v-4.4h1v4.3c0,2.3-1.2,3.2-2.8,3.2c-1.5,0-2.7-0.9-2.7-3.2
		v-4.4H194.1z"/>
</g>
<g>
	<path d="M177.9,105.5v6.5c0,0.5,0,1,0,1.4H177l0-0.9h0c-0.3,0.6-1,1-1.8,1c-1.3,0-2.3-1.1-2.3-2.7c0-1.8,1.1-2.9,2.4-2.9
		c0.8,0,1.4,0.4,1.6,0.8h0v-3.2H177.9z M176.9,110.2c0-0.1,0-0.3,0-0.4c-0.1-0.6-0.7-1.1-1.4-1.1c-1,0-1.6,0.9-1.6,2.1
		c0,1.1,0.5,2,1.6,2c0.7,0,1.2-0.4,1.4-1.2c0-0.1,0-0.3,0-0.4V110.2z"/>
	<path d="M180.7,111l-0.8,2.3h-1l2.5-7.4h1.2l2.5,7.4h-1l-0.8-2.3H180.7z M183.2,110.3l-0.7-2.1c-0.2-0.5-0.3-0.9-0.4-1.4h0
		c-0.1,0.4-0.2,0.9-0.4,1.3l-0.7,2.2H183.2z"/>
	<path d="M190.7,105.5v6.5c0,0.5,0,1,0,1.4h-0.9l0-0.9h0c-0.3,0.6-1,1-1.8,1c-1.3,0-2.3-1.1-2.3-2.7c0-1.8,1.1-2.9,2.4-2.9
		c0.8,0,1.4,0.4,1.6,0.8h0v-3.2H190.7z M189.8,110.2c0-0.1,0-0.3,0-0.4c-0.1-0.6-0.7-1.1-1.4-1.1c-1,0-1.6,0.9-1.6,2.1
		c0,1.1,0.5,2,1.6,2c0.7,0,1.2-0.4,1.4-1.2c0-0.1,0-0.3,0-0.4V110.2z"/>
	<path d="M197,105.5v6.5c0,0.5,0,1,0,1.4h-0.9l0-0.9h0c-0.3,0.6-1,1-1.8,1c-1.3,0-2.3-1.1-2.3-2.7c0-1.8,1.1-2.9,2.4-2.9
		c0.8,0,1.4,0.4,1.6,0.8h0v-3.2H197z M196,110.2c0-0.1,0-0.3,0-0.4c-0.1-0.6-0.7-1.1-1.4-1.1c-1,0-1.6,0.9-1.6,2.1
		c0,1.1,0.5,2,1.6,2c0.7,0,1.2-0.4,1.4-1.2c0-0.1,0-0.3,0-0.4V110.2z"/>
</g>
<g>
	<path d="M180.4,138.4v5.9c0,0.4,0,0.9,0,1.3h-0.8l0-0.8h0c-0.3,0.5-0.9,1-1.7,1c-1.2,0-2.1-1-2.1-2.5c0-1.6,1-2.6,2.2-2.6
		c0.7,0,1.2,0.4,1.5,0.7h0v-2.9H180.4z M179.5,142.7c0-0.1,0-0.3,0-0.4c-0.1-0.6-0.6-1-1.3-1c-0.9,0-1.5,0.8-1.5,1.9
		c0,1,0.5,1.8,1.4,1.8c0.6,0,1.1-0.4,1.3-1.1c0-0.1,0-0.2,0-0.4V142.7z"/>
	<path d="M187.6,142.6c0-0.9-0.1-2.1-0.1-2.9h0c-0.2,0.8-0.5,1.6-0.9,2.6l-1.2,3.3h-0.7l-1.1-3.2c-0.3-1-0.6-1.8-0.8-2.6h0
		c0,0.8-0.1,2-0.1,3l-0.2,2.9h-0.8l0.5-6.8h1.1l1.2,3.3c0.3,0.8,0.5,1.6,0.7,2.3h0c0.2-0.7,0.4-1.4,0.7-2.3l1.2-3.3h1.1l0.4,6.8
		h-0.9L187.6,142.6z"/>
	<path d="M192.7,145.5l-0.1-0.6h0c-0.3,0.4-0.8,0.7-1.5,0.7c-1,0-1.5-0.7-1.5-1.4c0-1.2,1-1.8,2.9-1.8v-0.1c0-0.4-0.1-1.1-1.1-1.1
		c-0.5,0-0.9,0.1-1.3,0.4L190,141c0.4-0.3,1-0.4,1.6-0.4c1.5,0,1.9,1,1.9,2v1.8c0,0.4,0,0.8,0.1,1.2H192.7z M192.6,143.1
		c-1,0-2.1,0.2-2.1,1.1c0,0.6,0.4,0.8,0.8,0.8c0.6,0,1-0.4,1.2-0.8c0-0.1,0-0.2,0-0.3V143.1z"/>
	<path d="M195.9,139.3v1.4h1.3v0.7h-1.3v2.6c0,0.6,0.2,0.9,0.7,0.9c0.2,0,0.4,0,0.5-0.1l0,0.7c-0.2,0.1-0.4,0.1-0.8,0.1
		c-0.4,0-0.7-0.1-1-0.4c-0.3-0.3-0.3-0.7-0.3-1.3v-2.7h-0.8v-0.7h0.8v-1.2L195.9,139.3z"/>
	<path d="M203.9,142.6c0-0.9-0.1-2.1-0.1-2.9h0c-0.2,0.8-0.5,1.6-0.9,2.6l-1.2,3.3H201l-1.1-3.2c-0.3-1-0.6-1.8-0.8-2.6h0
		c0,0.8-0.1,2-0.1,3l-0.2,2.9H198l0.5-6.8h1.1l1.2,3.3c0.3,0.8,0.5,1.6,0.7,2.3h0c0.2-0.7,0.4-1.4,0.7-2.3l1.2-3.3h1.1l0.4,6.8H204
		L203.9,142.6z"/>
	<path d="M210.3,144.2c0,0.5,0,0.9,0,1.3h-0.8l-0.1-0.8h0c-0.2,0.4-0.7,0.9-1.6,0.9c-0.8,0-1.7-0.4-1.7-2.1v-2.8h0.9v2.7
		c0,0.9,0.3,1.5,1.1,1.5c0.6,0,1-0.4,1.2-0.8c0.1-0.1,0.1-0.3,0.1-0.5v-3h0.9V144.2z"/>
	<path d="M211.8,138.4h0.9v7.1h-0.9V138.4z"/>
</g>
<g>
	<path d="M131.7,136.5v5.9c0,0.4,0,0.9,0,1.3H131l0-0.8h0c-0.3,0.5-0.9,1-1.7,1c-1.2,0-2.1-1-2.1-2.5c0-1.6,1-2.6,2.2-2.6
		c0.7,0,1.2,0.4,1.5,0.7h0v-2.9H131.7z M130.8,140.7c0-0.1,0-0.3,0-0.4c-0.1-0.6-0.6-1-1.3-1c-0.9,0-1.5,0.8-1.5,1.9
		c0,1,0.5,1.8,1.4,1.8c0.6,0,1.1-0.4,1.3-1.1c0-0.1,0-0.2,0-0.4V140.7z"/>
	<path d="M138,143.4c-0.3,0.2-1,0.3-1.8,0.3c-1.9,0-3.3-1.2-3.3-3.4c0-2.1,1.4-3.6,3.5-3.6c0.8,0,1.4,0.2,1.6,0.3l-0.2,0.7
		c-0.3-0.2-0.8-0.3-1.4-0.3c-1.6,0-2.6,1-2.6,2.8c0,1.7,1,2.7,2.6,2.7c0.5,0,1.1-0.1,1.4-0.3L138,143.4z"/>
	<path d="M138.3,144l2.8-7.3h0.7l-2.8,7.3H138.3z"/>
	<path d="M146.7,136.5v5.9c0,0.4,0,0.9,0,1.3h-0.8l0-0.8h0c-0.3,0.5-0.9,1-1.7,1c-1.2,0-2.1-1-2.1-2.5c0-1.6,1-2.6,2.2-2.6
		c0.7,0,1.2,0.4,1.5,0.7h0v-2.9H146.7z M145.8,140.7c0-0.1,0-0.3,0-0.4c-0.1-0.6-0.6-1-1.3-1c-0.9,0-1.5,0.8-1.5,1.9
		c0,1,0.5,1.8,1.4,1.8c0.6,0,1.1-0.4,1.3-1.1c0-0.1,0-0.2,0-0.4V140.7z"/>
	<path d="M148.1,143.6c0-0.3,0-0.8,0-1.3v-5.9h0.9v3.1h0c0.3-0.5,0.9-0.9,1.7-0.9c1.2,0,2.1,1,2.1,2.5c0,1.7-1.1,2.6-2.2,2.6
		c-0.7,0-1.3-0.3-1.6-0.9h0l0,0.8H148.1z M149,141.6c0,0.1,0,0.2,0,0.3c0.2,0.6,0.7,1,1.3,1c0.9,0,1.5-0.8,1.5-1.9
		c0-1-0.5-1.8-1.4-1.8c-0.6,0-1.2,0.4-1.3,1.1c0,0.1,0,0.2,0,0.4V141.6z"/>
</g>
<g>
	<path d="M153.7,171.2v5.9c0,0.4,0,0.9,0,1.3H153l0-0.8h0c-0.3,0.5-0.9,1-1.7,1c-1.2,0-2.1-1-2.1-2.5c0-1.6,1-2.6,2.2-2.6
		c0.7,0,1.2,0.4,1.5,0.7h0v-2.9H153.7z M152.8,175.4c0-0.1,0-0.3,0-0.4c-0.1-0.6-0.6-1-1.3-1c-0.9,0-1.5,0.8-1.5,1.9
		c0,1,0.5,1.8,1.4,1.8c0.6,0,1.1-0.4,1.3-1.1c0-0.1,0-0.2,0-0.4V175.4z"/>
	<path d="M160,178.1c-0.3,0.2-1,0.3-1.8,0.3c-1.9,0-3.3-1.2-3.3-3.4c0-2.1,1.4-3.6,3.5-3.6c0.8,0,1.4,0.2,1.6,0.3l-0.2,0.7
		c-0.3-0.2-0.8-0.3-1.4-0.3c-1.6,0-2.6,1-2.6,2.8c0,1.7,1,2.7,2.6,2.7c0.5,0,1.1-0.1,1.4-0.3L160,178.1z"/>
	<path d="M160.3,178.7l2.8-7.3h0.7l-2.8,7.3H160.3z"/>
	<path d="M168.7,171.2v5.9c0,0.4,0,0.9,0,1.3h-0.8l0-0.8h0c-0.3,0.5-0.9,1-1.7,1c-1.2,0-2.1-1-2.1-2.5c0-1.6,1-2.6,2.2-2.6
		c0.7,0,1.2,0.4,1.5,0.7h0v-2.9H168.7z M167.8,175.4c0-0.1,0-0.3,0-0.4c-0.1-0.6-0.6-1-1.3-1c-0.9,0-1.5,0.8-1.5,1.9
		c0,1,0.5,1.8,1.4,1.8c0.6,0,1.1-0.4,1.3-1.1c0-0.1,0-0.2,0-0.4V175.4z"/>
	<path d="M171.3,178.3l-1.7-6.8h0.9l0.8,3.4c0.2,0.8,0.4,1.7,0.5,2.3h0c0.1-0.7,0.3-1.5,0.6-2.4l0.9-3.4h0.9l0.8,3.4
		c0.2,0.8,0.4,1.6,0.5,2.3h0c0.1-0.7,0.3-1.5,0.5-2.3l0.9-3.4h0.9l-1.9,6.8H175l-0.9-3.5c-0.2-0.9-0.4-1.5-0.4-2.2h0
		c-0.1,0.7-0.3,1.3-0.5,2.2l-1,3.5H171.3z"/>
</g>
<g>
	<path d="M222.2,171.2v5.9c0,0.4,0,0.9,0,1.3h-0.8l0-0.8h0c-0.3,0.5-0.9,1-1.7,1c-1.2,0-2.1-1-2.1-2.5c0-1.6,1-2.6,2.2-2.6
		c0.7,0,1.2,0.4,1.5,0.7h0v-2.9H222.2z M221.3,175.4c0-0.1,0-0.3,0-0.4c-0.1-0.6-0.6-1-1.3-1c-0.9,0-1.5,0.8-1.5,1.9
		c0,1,0.5,1.8,1.4,1.8c0.6,0,1.1-0.4,1.3-1.1c0-0.1,0-0.2,0-0.4V175.4z"/>
	<path d="M228.5,178.1c-0.3,0.2-1,0.3-1.8,0.3c-1.9,0-3.3-1.2-3.3-3.4c0-2.1,1.4-3.6,3.5-3.6c0.8,0,1.4,0.2,1.6,0.3l-0.2,0.7
		c-0.3-0.2-0.8-0.3-1.4-0.3c-1.6,0-2.6,1-2.6,2.8c0,1.7,1,2.7,2.6,2.7c0.5,0,1.1-0.1,1.4-0.3L228.5,178.1z"/>
	<path d="M228.8,178.7l2.8-7.3h0.7l-2.8,7.3H228.8z"/>
	<path d="M237.2,171.2v5.9c0,0.4,0,0.9,0,1.3h-0.8l0-0.8h0c-0.3,0.5-0.9,1-1.7,1c-1.2,0-2.1-1-2.1-2.5c0-1.6,1-2.6,2.2-2.6
		c0.7,0,1.2,0.4,1.5,0.7h0v-2.9H237.2z M236.3,175.4c0-0.1,0-0.3,0-0.4c-0.1-0.6-0.6-1-1.3-1c-0.9,0-1.5,0.8-1.5,1.9
		c0,1,0.5,1.8,1.4,1.8c0.6,0,1.1-0.4,1.3-1.1c0-0.1,0-0.2,0-0.4V175.4z"/>
	<path d="M239,173.5l0.7,1c0.2,0.3,0.3,0.5,0.5,0.8h0c0.2-0.3,0.3-0.5,0.5-0.8l0.7-1h1l-1.7,2.4l1.7,2.5h-1l-0.7-1.1
		c-0.2-0.3-0.4-0.6-0.5-0.8h0c-0.2,0.3-0.3,0.6-0.5,0.8l-0.7,1.1h-1l1.7-2.5l-1.6-2.4H239z"/>
</g>
<g>
	<g>
		<path class="st2" d="M55.5,102.6c0-4.3,33.5-24.2,71.3-24.2h30.6"/>
		<g>
			<polygon points="162.1,78.4 155.5,81.2 157,78.4 155.5,75.7 			"/>
		</g>
	</g>
</g>
<path class="st2" d="M41.3,167.3c2.3-2.4,3.7-3.5,19.7-4.6s29.4-2.9,42.2-4.9s28.1-2.6,28.1-2.6c-17.8,0.3-33.7,6.8-41.3,11.8"/>
<g>
	<path class="st3" d="M129.4,155.2"/>
</g>
<g>
	<path class="st3" d="M172.5,143.1"/>
</g>
<g>
	<g>
		<path class="st2" d="M130.7,155.1c0,0,16.3,0.1,21.5-1.4c3.6-1,11.6-4.8,16.6-7.2"/>
		<g>
			<polygon points="173,144.4 168.3,149.8 168.5,146.7 165.9,145 			"/>
		</g>
	</g>
</g>
<text transform="matrix(1 0 0 1 182.0439 18.7604)" class="st4 st5">1</text>
</svg>
