<?xml version="1.0" encoding="utf-8"?>
<!-- Generator: Adobe Illustrator 19.1.0, SVG Export Plug-In . SVG Version: 6.00 Build 0)  -->
<svg version="1.1" id="Layer_1" xmlns="http://www.w3.org/2000/svg" xmlns:xlink="http://www.w3.org/1999/xlink" x="0px" y="0px"
	 viewBox="0 0 226.2 195.9" style="enable-background:new 0 0 226.2 195.9;" xml:space="preserve">
<style type="text/css">
	.st0{fill:none;stroke:#231F20;stroke-miterlimit:10;}
	.st1{fill:#231F20;}
</style>
<path class="st0" d="M218.8,192.9H7.8c-2.2,0-4-1.8-4-4v-29.2c0-2.2,1.8-4,4-4h211c2.2,0,4,1.8,4,4v29.2
	C222.8,191.1,221,192.9,218.8,192.9z"/>
<path class="st0" d="M72.1,180.2h-9.2c-2.8,0-5-2.2-5-5v-10.5c0-2.8,2.2-5,5-5h9.2c2.8,0,5,2.2,5,5v10.5
	C77.1,177.9,74.8,180.2,72.1,180.2z"/>
<path class="st0" d="M106.3,180.2h-9.2c-2.8,0-5-2.2-5-5v-10.5c0-2.8,2.2-5,5-5h9.2c2.8,0,5,2.2,5,5v10.5
	C111.3,177.9,109.1,180.2,106.3,180.2z"/>
<path class="st0" d="M140.3,180.2h-9.2c-2.8,0-5-2.2-5-5v-10.5c0-2.8,2.3-5,5-5h9.2c2.8,0,5,2.2,5,5v10.5
	C145.3,177.9,143.1,180.2,140.3,180.2z"/>
<path class="st0" d="M174.1,180.2h-9.2c-2.8,0-5-2.2-5-5v-10.5c0-2.8,2.2-5,5-5h9.2c2.8,0,5,2.2,5,5v10.5
	C179.1,177.9,176.8,180.2,174.1,180.2z"/>
<path class="st0" d="M208.1,180.2h-9.2c-2.8,0-5-2.2-5-5v-10.5c0-2.8,2.2-5,5-5h9.2c2.8,0,5,2.2,5,5v10.5
	C213.1,177.9,210.8,180.2,208.1,180.2z"/>
<g>
	<g>
		<line class="st0" x1="77.1" y1="170.4" x2="85.5" y2="170.4"/>
		<g>
			<polygon class="st1" points="91.7,170.4 83,174 85.1,170.4 83,166.9 			"/>
		</g>
	</g>
</g>
<g>
	<g>
		<line class="st0" x1="111.3" y1="170.4" x2="119.8" y2="170.4"/>
		<g>
			<polygon class="st1" points="125.9,170.4 117.3,174 119.3,170.4 117.3,166.9 			"/>
		</g>
	</g>
</g>
<g>
	<g>
		<line class="st0" x1="145.3" y1="170.4" x2="153.8" y2="170.4"/>
		<g>
			<polygon class="st1" points="159.9,170.4 151.3,174 153.3,170.4 151.3,166.9 			"/>
		</g>
	</g>
</g>
<g>
	<g>
		<line class="st0" x1="179.1" y1="170.4" x2="187.5" y2="170.4"/>
		<g>
			<polygon class="st1" points="193.7,170.4 185,174 187.1,170.4 185,166.9 			"/>
		</g>
	</g>
</g>
<g>
	<g>
		<path class="st0" d="M30.2,179.3c1.1,0,2.5,0,3.2,0c1.6,0,2.4,1.2,4.9,5.2c0,0,3.2,5.3,4.1,5.3s22.8,0,22.8,0s113.8,0,115.3,0
			s5.1,0.1,6,0c0,0,1.4,0.3,3.5-2.1c1.1-1.3,2.9-3.6,4.4-5.4"/>
		<g>
			<polygon class="st1" points="196.4,179.5 194.9,184.7 194,182.5 191.7,182.1 			"/>
		</g>
	</g>
</g>
<g>
	<g>
		<path class="st0" d="M145.7,189.8c3.6,0,5.9,0,7,0c1,0,4.2-2.1,7.4-7.1c0.1-0.1,0.1-0.2,0.2-0.3"/>
		<g>
			<polygon class="st1" points="162,179.3 161.3,184.6 160.1,182.5 157.7,182.6 			"/>
		</g>
	</g>
</g>
<g>
	<g>
		<path class="st0" d="M112,189.8c3.6,0,5.9,0,7,0c1,0,4.2-2.1,7.4-7.1c0.1-0.1,0.1-0.2,0.2-0.3"/>
		<g>
			<polygon class="st1" points="128.3,179.3 127.6,184.6 126.4,182.5 124.1,182.6 			"/>
		</g>
	</g>
</g>
<g>
	<g>
		<path class="st0" d="M77.1,189.8c3.6,0,5.9,0,7,0c1,0,4.2-2.1,7.4-7.1c0.1-0.1,0.1-0.2,0.2-0.3"/>
		<g>
			<polygon class="st1" points="93.4,179.3 92.7,184.6 91.5,182.5 89.1,182.6 			"/>
		</g>
	</g>
</g>
<g>
	<g>
		<path class="st0" d="M43.1,189.8c3.6,0,5.9,0,7,0c1,0,4.2-2.1,7.4-7.1c0.1-0.1,0.1-0.2,0.2-0.3"/>
		<g>
			<polygon class="st1" points="59.4,179.3 58.7,184.6 57.5,182.5 55.2,182.6 			"/>
		</g>
	</g>
</g>
<g>
	<path class="st1" d="M7.8,158.1c0.6-0.1,1.2-0.2,2-0.2c1.3,0,2.3,0.3,2.9,0.9c0.6,0.6,1,1.4,1,2.6c0,1.2-0.4,2.2-1,2.8
		c-0.7,0.7-1.8,1-3.2,1c-0.7,0-1.2,0-1.7-0.1V158.1z M8.8,164.6c0.2,0,0.6,0.1,0.9,0.1c2,0,3.1-1.1,3.1-3.1c0-1.7-1-2.8-2.9-2.8
		c-0.5,0-0.9,0-1.1,0.1V164.6z"/>
	<path class="st1" d="M15.5,162.9c0,1.3,0.8,1.8,1.8,1.8c0.7,0,1.1-0.1,1.4-0.3l0.2,0.7c-0.3,0.2-0.9,0.3-1.7,0.3
		c-1.6,0-2.6-1.1-2.6-2.6c0-1.6,0.9-2.8,2.4-2.8c1.7,0,2.2,1.5,2.2,2.5c0,0.2,0,0.3,0,0.4H15.5z M18.3,162.2c0-0.6-0.2-1.5-1.3-1.5
		c-1,0-1.4,0.9-1.5,1.5H18.3z"/>
	<path class="st1" d="M20.8,160.1l1,2.9c0.2,0.5,0.3,0.9,0.4,1.3h0c0.1-0.4,0.3-0.9,0.4-1.3l1-2.9h1l-2,5.2h-0.9l-2-5.2H20.8z"/>
	<path class="st1" d="M26.7,158.6c0,0.3-0.2,0.6-0.6,0.6c-0.3,0-0.6-0.3-0.6-0.6c0-0.3,0.2-0.6,0.6-0.6
		C26.4,158,26.7,158.3,26.7,158.6z M25.6,165.3v-5.2h0.9v5.2H25.6z"/>
	<path class="st1" d="M31.8,165.1c-0.2,0.1-0.8,0.3-1.5,0.3c-1.6,0-2.6-1.1-2.6-2.7c0-1.6,1.1-2.8,2.8-2.8c0.6,0,1.1,0.1,1.3,0.3
		l-0.2,0.7c-0.2-0.1-0.6-0.2-1.1-0.2c-1.2,0-1.8,0.9-1.8,2c0,1.2,0.8,2,1.8,2c0.5,0,0.9-0.1,1.2-0.3L31.8,165.1z"/>
	<path class="st1" d="M33.4,162.9c0,1.3,0.8,1.8,1.8,1.8c0.7,0,1.1-0.1,1.4-0.3l0.2,0.7c-0.3,0.2-0.9,0.3-1.7,0.3
		c-1.6,0-2.6-1.1-2.6-2.6c0-1.6,0.9-2.8,2.4-2.8c1.7,0,2.2,1.5,2.2,2.5c0,0.2,0,0.3,0,0.4H33.4z M36.2,162.2c0-0.6-0.2-1.5-1.3-1.5
		c-1,0-1.4,0.9-1.5,1.5H36.2z"/>
	<path class="st1" d="M42.3,159.2L42.3,159.2l-1.2,0.7l-0.2-0.7l1.5-0.8h0.8v7h-0.9V159.2z"/>
</g>
<path class="st0" d="M25.2,186.8h-7c-2.8,0-5-2.2-5-5v-8.2c0-2.8,2.2-5,5-5h7c2.8,0,5,2.2,5,5v8.2C30.2,184.5,27.9,186.8,25.2,186.8
	z"/>
<g>
	<g>
		<path class="st0" d="M68,159.7c0-3,0-21,0-29.9"/>
		<g>
			<polygon class="st1" points="68,124.8 70.9,131.8 68,130.2 65.2,131.8 			"/>
		</g>
	</g>
</g>
<g>
	<g>
		<path class="st0" d="M102.1,159.7c0-3,0-21,0-29.9"/>
		<g>
			<polygon class="st1" points="102.1,124.8 104.9,131.8 102.1,130.2 99.2,131.8 			"/>
		</g>
	</g>
</g>
<g>
	<g>
		<path class="st0" d="M136.3,159.7c0-3,0-21,0-29.9"/>
		<g>
			<polygon class="st1" points="136.3,124.8 139.1,131.8 136.3,130.2 133.4,131.8 			"/>
		</g>
	</g>
</g>
<g>
	<g>
		<path class="st0" d="M170.6,159.7c0-3,0-21,0-29.9"/>
		<g>
			<polygon class="st1" points="170.6,124.9 173.4,131.8 170.6,130.2 167.7,131.8 			"/>
		</g>
	</g>
</g>
<g>
	<g>
		<path class="st0" d="M203.8,159.7c0-3,0-21,0-29.9"/>
		<g>
			<polygon class="st1" points="203.8,124.9 206.7,131.8 203.8,130.2 201,131.8 			"/>
		</g>
	</g>
</g>
<g>
	<path class="st1" d="M16.5,174.8c0.4-0.1,1-0.1,1.8-0.1c0.9,0,1.6,0.2,2,0.6c0.4,0.3,0.6,0.9,0.6,1.5c0,0.6-0.2,1.2-0.5,1.5
		c-0.5,0.5-1.3,0.8-2.2,0.8c-0.3,0-0.5,0-0.7-0.1v2.9h-0.9V174.8z M17.4,178.3c0.2,0.1,0.5,0.1,0.8,0.1c1.1,0,1.8-0.5,1.8-1.5
		c0-0.9-0.7-1.4-1.7-1.4c-0.4,0-0.7,0-0.9,0.1V178.3z"/>
	<path class="st1" d="M23.8,175.9L23.8,175.9l-1.2,0.6l-0.2-0.7l1.5-0.8h0.8v6.9h-0.9V175.9z"/>
</g>
<g>
	<path class="st1" d="M66.2,171.9l-0.8,2.4h-1l2.6-7.5h1.2l2.6,7.5h-1l-0.8-2.4H66.2z M68.7,171.2L68,169c-0.2-0.5-0.3-0.9-0.4-1.4
		h0c-0.1,0.4-0.2,0.9-0.4,1.4l-0.7,2.2H68.7z"/>
</g>
<g>
	<path class="st1" d="M100.2,171.9l-0.8,2.4h-1l2.6-7.5h1.2l2.6,7.5h-1l-0.8-2.4H100.2z M102.7,171.2L102,169
		c-0.2-0.5-0.3-0.9-0.4-1.4h0c-0.1,0.4-0.2,0.9-0.4,1.4l-0.7,2.2H102.7z"/>
</g>
<g>
	<path class="st1" d="M134.2,171.9l-0.8,2.4h-1l2.6-7.5h1.2l2.6,7.5h-1l-0.8-2.4H134.2z M136.7,171.2L136,169
		c-0.2-0.5-0.3-0.9-0.4-1.4h0c-0.1,0.4-0.2,0.9-0.4,1.4l-0.7,2.2H136.7z"/>
</g>
<g>
	<path class="st1" d="M168.2,171.9l-0.8,2.4h-1l2.6-7.5h1.2l2.6,7.5h-1l-0.8-2.4H168.2z M170.7,171.2L170,169
		c-0.2-0.5-0.3-0.9-0.4-1.4h0c-0.1,0.4-0.2,0.9-0.4,1.4l-0.7,2.2H170.7z"/>
</g>
<g>
	<path class="st1" d="M201.9,171.9l-0.8,2.4h-1l2.6-7.5h1.2l2.6,7.5h-1l-0.8-2.4H201.9z M204.4,171.2l-0.7-2.2
		c-0.2-0.5-0.3-0.9-0.4-1.4h0c-0.1,0.4-0.2,0.9-0.4,1.4l-0.7,2.2H204.4z"/>
</g>
<path class="st0" d="M218.8,137.2H7.8c-2.2,0-4-1.8-4-4v-29.2c0-2.2,1.8-4,4-4h211c2.2,0,4,1.8,4,4v29.2
	C222.8,135.4,221,137.2,218.8,137.2z"/>
<path class="st0" d="M72.1,124.4h-9.2c-2.8,0-5-2.2-5-5v-10.5c0-2.8,2.2-5,5-5h9.2c2.8,0,5,2.2,5,5v10.5
	C77.1,122.2,74.8,124.4,72.1,124.4z"/>
<path class="st0" d="M106.3,124.4h-9.2c-2.8,0-5-2.2-5-5v-10.5c0-2.8,2.2-5,5-5h9.2c2.8,0,5,2.2,5,5v10.5
	C111.3,122.2,109.1,124.4,106.3,124.4z"/>
<path class="st0" d="M140.3,124.4h-9.2c-2.8,0-5-2.2-5-5v-10.5c0-2.8,2.3-5,5-5h9.2c2.8,0,5,2.2,5,5v10.5
	C145.3,122.2,143.1,124.4,140.3,124.4z"/>
<path class="st0" d="M174.1,124.4h-9.2c-2.8,0-5-2.2-5-5v-10.5c0-2.8,2.2-5,5-5h9.2c2.8,0,5,2.2,5,5v10.5
	C179.1,122.2,176.8,124.4,174.1,124.4z"/>
<path class="st0" d="M208.1,124.4h-9.2c-2.8,0-5-2.2-5-5v-10.5c0-2.8,2.2-5,5-5h9.2c2.8,0,5,2.2,5,5v10.5
	C213.1,122.2,210.8,124.4,208.1,124.4z"/>
<g>
	<g>
		<line class="st0" x1="77.1" y1="114.7" x2="85.5" y2="114.7"/>
		<g>
			<polygon class="st1" points="91.7,114.7 83,118.2 85.1,114.7 83,111.1 			"/>
		</g>
	</g>
</g>
<g>
	<g>
		<line class="st0" x1="111.3" y1="114.7" x2="119.8" y2="114.7"/>
		<g>
			<polygon class="st1" points="125.9,114.7 117.3,118.2 119.3,114.7 117.3,111.1 			"/>
		</g>
	</g>
</g>
<g>
	<g>
		<line class="st0" x1="145.3" y1="114.7" x2="153.8" y2="114.7"/>
		<g>
			<polygon class="st1" points="159.9,114.7 151.3,118.2 153.3,114.7 151.3,111.1 			"/>
		</g>
	</g>
</g>
<g>
	<g>
		<line class="st0" x1="179.1" y1="114.7" x2="187.5" y2="114.7"/>
		<g>
			<polygon class="st1" points="193.7,114.7 185,118.2 187.1,114.7 185,111.1 			"/>
		</g>
	</g>
</g>
<g>
	<g>
		<path class="st0" d="M172.2,134c4.9,0,7.9,0,8.2,0c1.5,0,5.1,0.1,6,0c0,0,1.4,0.3,3.5-2.1c1.1-1.3,2.9-3.6,4.4-5.4"/>
		<g>
			<polygon class="st1" points="196.4,123.8 194.9,128.9 194,126.7 191.7,126.4 			"/>
		</g>
	</g>
</g>
<path class="st0" d="M138.3,134c11.7,0,22.4,0,30.2,0"/>
<path class="st0" d="M104.3,134c9.6,0,20,0,29.9,0"/>
<path class="st0" d="M70.5,134c6.2,0,17.1,0,29.7,0"/>
<path class="st0" d="M30.2,123.5c1.1,0,2.5,0,3.2,0c1.6,0,2.4,1.2,4.9,5.2c0,0,3.2,5.3,4.1,5.3c0.8,0,22.8,0,22.8,0s0.3,0,1,0"/>
<g>
	<g>
		<path class="st0" d="M145.7,134c3.6,0,5.9,0,7,0c1,0,4.2-2.1,7.4-7.1c0.1-0.1,0.1-0.2,0.2-0.3"/>
		<g>
			<polygon class="st1" points="162,123.5 161.3,128.8 160.1,126.8 157.7,126.8 			"/>
		</g>
	</g>
</g>
<g>
	<g>
		<path class="st0" d="M112,134c3.6,0,5.9,0,7,0c1,0,4.2-2.1,7.4-7.1c0.1-0.1,0.1-0.2,0.2-0.3"/>
		<g>
			<polygon class="st1" points="128.3,123.5 127.6,128.8 126.4,126.8 124.1,126.8 			"/>
		</g>
	</g>
</g>
<g>
	<g>
		<path class="st0" d="M77.1,134c3.6,0,5.9,0,7,0c1,0,4.2-2.1,7.4-7.1c0.1-0.1,0.1-0.2,0.2-0.3"/>
		<g>
			<polygon class="st1" points="93.4,123.5 92.7,128.8 91.5,126.8 89.1,126.8 			"/>
		</g>
	</g>
</g>
<g>
	<g>
		<path class="st0" d="M43.1,134c3.6,0,5.9,0,7,0c1,0,4.2-2.1,7.4-7.1c0.1-0.1,0.1-0.2,0.2-0.3"/>
		<g>
			<polygon class="st1" points="59.4,123.5 58.7,128.8 57.5,126.8 55.2,126.8 			"/>
		</g>
	</g>
</g>
<g>
	<path class="st1" d="M7.8,102.4c0.6-0.1,1.2-0.2,2-0.2c1.3,0,2.3,0.3,2.9,0.9c0.6,0.6,1,1.4,1,2.6c0,1.2-0.4,2.2-1,2.8
		c-0.7,0.7-1.8,1-3.2,1c-0.7,0-1.2,0-1.7-0.1V102.4z M8.8,108.8c0.2,0,0.6,0.1,0.9,0.1c2,0,3.1-1.1,3.1-3.1c0-1.7-1-2.8-2.9-2.8
		c-0.5,0-0.9,0-1.1,0.1V108.8z"/>
	<path class="st1" d="M15.5,107.1c0,1.3,0.8,1.8,1.8,1.8c0.7,0,1.1-0.1,1.4-0.3l0.2,0.7c-0.3,0.2-0.9,0.3-1.7,0.3
		c-1.6,0-2.6-1.1-2.6-2.6c0-1.6,0.9-2.8,2.4-2.8c1.7,0,2.2,1.5,2.2,2.5c0,0.2,0,0.3,0,0.4H15.5z M18.3,106.4c0-0.6-0.2-1.5-1.3-1.5
		c-1,0-1.4,0.9-1.5,1.5H18.3z"/>
	<path class="st1" d="M20.8,104.3l1,2.9c0.2,0.5,0.3,0.9,0.4,1.3h0c0.1-0.4,0.3-0.9,0.4-1.3l1-2.9h1l-2,5.2h-0.9l-2-5.2H20.8z"/>
	<path class="st1" d="M26.7,102.9c0,0.3-0.2,0.6-0.6,0.6c-0.3,0-0.6-0.3-0.6-0.6c0-0.3,0.2-0.6,0.6-0.6
		C26.4,102.3,26.7,102.5,26.7,102.9z M25.6,109.6v-5.2h0.9v5.2H25.6z"/>
	<path class="st1" d="M31.8,109.4c-0.2,0.1-0.8,0.3-1.5,0.3c-1.6,0-2.6-1.1-2.6-2.7c0-1.6,1.1-2.8,2.8-2.8c0.6,0,1.1,0.1,1.3,0.3
		l-0.2,0.7c-0.2-0.1-0.6-0.2-1.1-0.2c-1.2,0-1.8,0.9-1.8,2c0,1.2,0.8,2,1.8,2c0.5,0,0.9-0.1,1.2-0.3L31.8,109.4z"/>
	<path class="st1" d="M33.4,107.1c0,1.3,0.8,1.8,1.8,1.8c0.7,0,1.1-0.1,1.4-0.3l0.2,0.7c-0.3,0.2-0.9,0.3-1.7,0.3
		c-1.6,0-2.6-1.1-2.6-2.6c0-1.6,0.9-2.8,2.4-2.8c1.7,0,2.2,1.5,2.2,2.5c0,0.2,0,0.3,0,0.4H33.4z M36.2,106.4c0-0.6-0.2-1.5-1.3-1.5
		c-1,0-1.4,0.9-1.5,1.5H36.2z"/>
	<path class="st1" d="M40.3,109.6V109l0.7-0.7c1.8-1.7,2.6-2.6,2.6-3.7c0-0.7-0.3-1.4-1.4-1.4c-0.6,0-1.2,0.3-1.5,0.6l-0.3-0.7
		c0.5-0.4,1.2-0.7,2-0.7c1.5,0,2.1,1,2.1,2c0,1.3-0.9,2.3-2.4,3.8l-0.6,0.5v0h3.1v0.8H40.3z"/>
</g>
<path class="st0" d="M25.2,131h-7c-2.8,0-5-2.2-5-5v-8.2c0-2.8,2.2-5,5-5h7c2.8,0,5,2.2,5,5v8.2C30.2,128.8,27.9,131,25.2,131z"/>
<g>
	<g>
		<path class="st0" d="M68,103.9c0-3,0-21,0-29.9"/>
		<g>
			<polygon class="st1" points="68,69.1 70.9,76.1 68,74.4 65.2,76.1 			"/>
		</g>
	</g>
</g>
<g>
	<g>
		<path class="st0" d="M102.1,103.9c0-3,0-21,0-29.9"/>
		<g>
			<polygon class="st1" points="102.1,69.1 104.9,76.1 102.1,74.4 99.2,76.1 			"/>
		</g>
	</g>
</g>
<g>
	<g>
		<path class="st0" d="M136.3,103.9c0-3,0-21,0-29.9"/>
		<g>
			<polygon class="st1" points="136.3,69.1 139.1,76.1 136.3,74.4 133.4,76.1 			"/>
		</g>
	</g>
</g>
<g>
	<g>
		<path class="st0" d="M170.6,104c0-3,0-21,0-29.9"/>
		<g>
			<polygon class="st1" points="170.6,69.1 173.4,76.1 170.6,74.4 167.7,76.1 			"/>
		</g>
	</g>
</g>
<g>
	<g>
		<path class="st0" d="M203.8,104c0-3,0-21,0-29.9"/>
		<g>
			<polygon class="st1" points="203.8,69.1 206.7,76.1 203.8,74.4 201,76.1 			"/>
		</g>
	</g>
</g>
<g>
	<path class="st1" d="M16.5,119.1c0.4-0.1,1-0.1,1.8-0.1c0.9,0,1.6,0.2,2,0.6c0.4,0.3,0.6,0.9,0.6,1.5c0,0.6-0.2,1.2-0.5,1.5
		c-0.5,0.5-1.3,0.8-2.2,0.8c-0.3,0-0.5,0-0.7-0.1v2.9h-0.9V119.1z M17.4,122.5c0.2,0.1,0.5,0.1,0.8,0.1c1.1,0,1.8-0.5,1.8-1.5
		c0-0.9-0.7-1.4-1.7-1.4c-0.4,0-0.7,0-0.9,0.1V122.5z"/>
	<path class="st1" d="M21.8,126.1v-0.6l0.7-0.7c1.8-1.7,2.5-2.6,2.6-3.6c0-0.7-0.3-1.3-1.4-1.3c-0.6,0-1.1,0.3-1.5,0.6l-0.3-0.7
		c0.5-0.4,1.2-0.7,1.9-0.7c1.5,0,2.1,1,2.1,2c0,1.3-0.9,2.3-2.4,3.7l-0.5,0.5v0h3.1v0.8H21.8z"/>
</g>
<g>
	<path class="st1" d="M65.5,111.1c0.4-0.1,1.1-0.2,1.8-0.2c1,0,1.6,0.2,2.1,0.5c0.4,0.3,0.6,0.7,0.6,1.3c0,0.7-0.5,1.4-1.3,1.7v0
		c0.7,0.2,1.6,0.8,1.6,1.9c0,0.6-0.3,1.1-0.6,1.5c-0.5,0.5-1.4,0.7-2.6,0.7c-0.7,0-1.2,0-1.5-0.1V111.1z M66.5,114.2h0.9
		c1,0,1.6-0.5,1.6-1.3c0-0.9-0.7-1.2-1.7-1.2c-0.4,0-0.7,0-0.9,0.1V114.2z M66.5,117.8c0.2,0,0.5,0,0.8,0c1,0,1.9-0.4,1.9-1.5
		c0-1-0.9-1.5-1.9-1.5h-0.8V117.8z"/>
</g>
<g>
	<path class="st1" d="M99.5,111.1c0.4-0.1,1.1-0.2,1.8-0.2c1,0,1.6,0.2,2.1,0.5c0.4,0.3,0.6,0.7,0.6,1.3c0,0.7-0.5,1.4-1.3,1.7v0
		c0.7,0.2,1.6,0.8,1.6,1.9c0,0.6-0.3,1.1-0.6,1.5c-0.5,0.5-1.4,0.7-2.6,0.7c-0.7,0-1.2,0-1.5-0.1V111.1z M100.5,114.2h0.9
		c1,0,1.6-0.5,1.6-1.3c0-0.9-0.7-1.2-1.7-1.2c-0.4,0-0.7,0-0.9,0.1V114.2z M100.5,117.8c0.2,0,0.5,0,0.8,0c1,0,1.9-0.4,1.9-1.5
		c0-1-0.9-1.5-1.9-1.5h-0.8V117.8z"/>
</g>
<g>
	<path class="st1" d="M133.5,111.1c0.4-0.1,1.1-0.2,1.8-0.2c1,0,1.6,0.2,2.1,0.5c0.4,0.3,0.6,0.7,0.6,1.3c0,0.7-0.5,1.4-1.3,1.7v0
		c0.7,0.2,1.6,0.8,1.6,1.9c0,0.6-0.3,1.1-0.6,1.5c-0.5,0.5-1.4,0.7-2.6,0.7c-0.7,0-1.2,0-1.5-0.1V111.1z M134.5,114.2h0.9
		c1,0,1.6-0.5,1.6-1.3c0-0.9-0.7-1.2-1.7-1.2c-0.4,0-0.7,0-0.9,0.1V114.2z M134.5,117.8c0.2,0,0.5,0,0.8,0c1,0,1.9-0.4,1.9-1.5
		c0-1-0.9-1.5-1.9-1.5h-0.8V117.8z"/>
</g>
<g>
	<path class="st1" d="M167.6,111.1c0.4-0.1,1.1-0.2,1.8-0.2c1,0,1.6,0.2,2.1,0.5c0.4,0.3,0.6,0.7,0.6,1.3c0,0.7-0.5,1.4-1.3,1.7v0
		c0.7,0.2,1.6,0.8,1.6,1.9c0,0.6-0.3,1.1-0.6,1.5c-0.5,0.5-1.4,0.7-2.6,0.7c-0.7,0-1.2,0-1.5-0.1V111.1z M168.6,114.2h0.9
		c1,0,1.6-0.5,1.6-1.3c0-0.9-0.7-1.2-1.7-1.2c-0.4,0-0.7,0-0.9,0.1V114.2z M168.6,117.8c0.2,0,0.5,0,0.8,0c1,0,1.9-0.4,1.9-1.5
		c0-1-0.9-1.5-1.9-1.5h-0.8V117.8z"/>
</g>
<g>
	<path class="st1" d="M201.5,111.1c0.4-0.1,1.1-0.2,1.8-0.2c1,0,1.6,0.2,2.1,0.5c0.4,0.3,0.6,0.7,0.6,1.3c0,0.7-0.5,1.4-1.3,1.7v0
		c0.7,0.2,1.6,0.8,1.6,1.9c0,0.6-0.3,1.1-0.6,1.5c-0.5,0.5-1.4,0.7-2.6,0.7c-0.7,0-1.2,0-1.5-0.1V111.1z M202.5,114.2h0.9
		c1,0,1.6-0.5,1.6-1.3c0-0.9-0.7-1.2-1.7-1.2c-0.4,0-0.7,0-0.9,0.1V114.2z M202.5,117.8c0.2,0,0.5,0,0.8,0c1,0,1.9-0.4,1.9-1.5
		c0-1-0.9-1.5-1.9-1.5h-0.8V117.8z"/>
</g>
<path class="st0" d="M218.8,80.4H7.8c-2.2,0-4-1.8-4-4V47.2c0-2.2,1.8-4,4-4h211c2.2,0,4,1.8,4,4v29.3
	C222.8,78.6,221,80.4,218.8,80.4z"/>
<path class="st0" d="M72.1,67.7h-9.2c-2.8,0-5-2.2-5-5V52.2c0-2.8,2.2-5,5-5h9.2c2.8,0,5,2.2,5,5v10.5
	C77.1,65.4,74.8,67.7,72.1,67.7z"/>
<path class="st0" d="M106.3,67.7h-9.2c-2.8,0-5-2.2-5-5V52.2c0-2.8,2.2-5,5-5h9.2c2.8,0,5,2.2,5,5v10.5
	C111.3,65.4,109.1,67.7,106.3,67.7z"/>
<path class="st0" d="M140.3,67.7h-9.2c-2.8,0-5-2.2-5-5V52.2c0-2.8,2.3-5,5-5h9.2c2.8,0,5,2.2,5,5v10.5
	C145.3,65.4,143.1,67.7,140.3,67.7z"/>
<path class="st0" d="M174.1,67.7h-9.2c-2.8,0-5-2.2-5-5V52.2c0-2.8,2.2-5,5-5h9.2c2.8,0,5,2.2,5,5v10.5
	C179.1,65.4,176.8,67.7,174.1,67.7z"/>
<path class="st0" d="M208.1,67.7h-9.2c-2.8,0-5-2.2-5-5V52.2c0-2.8,2.2-5,5-5h9.2c2.8,0,5,2.2,5,5v10.5
	C213.1,65.4,210.8,67.7,208.1,67.7z"/>
<g>
	<g>
		<line class="st0" x1="77.1" y1="57.9" x2="85.5" y2="57.9"/>
		<g>
			<polygon class="st1" points="91.7,57.9 83,61.5 85.1,57.9 83,54.4 			"/>
		</g>
	</g>
</g>
<g>
	<g>
		<line class="st0" x1="111.3" y1="57.9" x2="119.8" y2="57.9"/>
		<g>
			<polygon class="st1" points="125.9,57.9 117.3,61.5 119.3,57.9 117.3,54.4 			"/>
		</g>
	</g>
</g>
<g>
	<g>
		<line class="st0" x1="145.3" y1="57.9" x2="153.8" y2="57.9"/>
		<g>
			<polygon class="st1" points="159.9,57.9 151.3,61.5 153.3,57.9 151.3,54.4 			"/>
		</g>
	</g>
</g>
<g>
	<g>
		<line class="st0" x1="179.1" y1="57.9" x2="187.5" y2="57.9"/>
		<g>
			<polygon class="st1" points="193.7,57.9 185,61.5 187.1,57.9 185,54.4 			"/>
		</g>
	</g>
</g>
<g>
	<g>
		<path class="st0" d="M172.2,77.3c4.9,0,7.9,0,8.2,0c1.5,0,5.1,0.1,6,0c0,0,1.4,0.3,3.5-2.1c1.1-1.3,2.9-3.6,4.4-5.4"/>
		<g>
			<polygon class="st1" points="196.4,67 194.9,72.2 194,70 191.7,69.6 			"/>
		</g>
	</g>
</g>
<path class="st0" d="M138.3,77.3c11.7,0,22.4,0,30.2,0"/>
<path class="st0" d="M104.3,77.3c9.6,0,20,0,29.9,0"/>
<path class="st0" d="M70.5,77.3c6.2,0,17.1,0,29.7,0"/>
<path class="st0" d="M30.2,66.8c1.1,0,2.5,0,3.2,0c1.6,0,2.4,1.2,4.9,5.2c0,0,3.2,5.3,4.1,5.3c0.8,0,22.8,0,22.8,0s0.3,0,1,0"/>
<g>
	<g>
		<path class="st0" d="M145.7,77.3c3.6,0,5.9,0,7,0c1,0,4.2-2.1,7.4-7.1c0.1-0.1,0.1-0.2,0.2-0.3"/>
		<g>
			<polygon class="st1" points="162,66.8 161.3,72.1 160.1,70 157.7,70.1 			"/>
		</g>
	</g>
</g>
<g>
	<g>
		<path class="st0" d="M112,77.3c3.6,0,5.9,0,7,0c1,0,4.2-2.1,7.4-7.1c0.1-0.1,0.1-0.2,0.2-0.3"/>
		<g>
			<polygon class="st1" points="128.3,66.8 127.6,72.1 126.4,70 124.1,70.1 			"/>
		</g>
	</g>
</g>
<g>
	<g>
		<path class="st0" d="M77.1,77.3c3.6,0,5.9,0,7,0c1,0,4.2-2.1,7.4-7.1c0.1-0.1,0.1-0.2,0.2-0.3"/>
		<g>
			<polygon class="st1" points="93.4,66.8 92.7,72.1 91.5,70 89.1,70.1 			"/>
		</g>
	</g>
</g>
<g>
	<g>
		<path class="st0" d="M43.1,77.3c3.6,0,5.9,0,7,0c1,0,4.2-2.1,7.4-7.1c0.1-0.1,0.1-0.2,0.2-0.3"/>
		<g>
			<polygon class="st1" points="59.4,66.8 58.7,72.1 57.5,70 55.2,70.1 			"/>
		</g>
	</g>
</g>
<g>
	<path class="st1" d="M7.8,45.6c0.6-0.1,1.2-0.2,2-0.2c1.3,0,2.3,0.3,2.9,0.9c0.6,0.6,1,1.4,1,2.6c0,1.2-0.4,2.2-1,2.8
		c-0.7,0.7-1.8,1-3.2,1c-0.7,0-1.2,0-1.7-0.1V45.6z M8.8,52.1c0.2,0,0.6,0.1,0.9,0.1c2,0,3.1-1.1,3.1-3.1c0-1.7-1-2.8-2.9-2.8
		c-0.5,0-0.9,0-1.1,0.1V52.1z"/>
	<path class="st1" d="M15.5,50.4c0,1.3,0.8,1.8,1.8,1.8c0.7,0,1.1-0.1,1.4-0.3l0.2,0.7c-0.3,0.2-0.9,0.3-1.7,0.3
		c-1.6,0-2.6-1.1-2.6-2.6s0.9-2.8,2.4-2.8c1.7,0,2.2,1.5,2.2,2.5c0,0.2,0,0.3,0,0.4H15.5z M18.3,49.7c0-0.6-0.2-1.5-1.3-1.5
		c-1,0-1.4,0.9-1.5,1.5H18.3z"/>
	<path class="st1" d="M20.8,47.6l1,2.9c0.2,0.5,0.3,0.9,0.4,1.3h0c0.1-0.4,0.3-0.9,0.4-1.3l1-2.9h1l-2,5.2h-0.9l-2-5.2H20.8z"/>
	<path class="st1" d="M26.7,46.1c0,0.3-0.2,0.6-0.6,0.6c-0.3,0-0.6-0.3-0.6-0.6c0-0.3,0.2-0.6,0.6-0.6
		C26.4,45.5,26.7,45.8,26.7,46.1z M25.6,52.8v-5.2h0.9v5.2H25.6z"/>
	<path class="st1" d="M31.8,52.6c-0.2,0.1-0.8,0.3-1.5,0.3c-1.6,0-2.6-1.1-2.6-2.7c0-1.6,1.1-2.8,2.8-2.8c0.6,0,1.1,0.1,1.3,0.3
		l-0.2,0.7c-0.2-0.1-0.6-0.2-1.1-0.2c-1.2,0-1.8,0.9-1.8,2c0,1.2,0.8,1.9,1.8,1.9c0.5,0,0.9-0.1,1.2-0.3L31.8,52.6z"/>
	<path class="st1" d="M33.4,50.4c0,1.3,0.8,1.8,1.8,1.8c0.7,0,1.1-0.1,1.4-0.3l0.2,0.7c-0.3,0.2-0.9,0.3-1.7,0.3
		c-1.6,0-2.6-1.1-2.6-2.6s0.9-2.8,2.4-2.8c1.7,0,2.2,1.5,2.2,2.5c0,0.2,0,0.3,0,0.4H33.4z M36.2,49.7c0-0.6-0.2-1.5-1.3-1.5
		c-1,0-1.4,0.9-1.5,1.5H36.2z"/>
	<path class="st1" d="M40.5,51.7c0.3,0.2,0.9,0.4,1.6,0.4c1.2,0,1.6-0.8,1.6-1.4c0-1-0.9-1.4-1.8-1.4h-0.5v-0.7h0.5
		c0.7,0,1.6-0.4,1.6-1.2c0-0.6-0.4-1.1-1.2-1.1c-0.6,0-1.1,0.2-1.4,0.5l-0.2-0.7c0.4-0.3,1.1-0.5,1.8-0.5c1.4,0,2,0.8,2,1.7
		c0,0.7-0.4,1.3-1.3,1.6v0c0.9,0.2,1.6,0.8,1.6,1.8c0,1.1-0.9,2.1-2.6,2.1c-0.8,0-1.5-0.2-1.8-0.5L40.5,51.7z"/>
</g>
<path class="st0" d="M25.2,74.3h-7c-2.8,0-5-2.2-5-5V61c0-2.8,2.2-5,5-5h7c2.8,0,5,2.2,5,5v8.3C30.2,72,27.9,74.3,25.2,74.3z"/>
<g>
	<path class="st1" d="M16.5,62.3c0.4-0.1,1-0.1,1.8-0.1c0.9,0,1.6,0.2,2,0.6c0.4,0.3,0.6,0.9,0.6,1.5c0,0.6-0.2,1.2-0.5,1.5
		c-0.5,0.5-1.3,0.8-2.2,0.8c-0.3,0-0.5,0-0.7-0.1v2.9h-0.9V62.3z M17.4,65.8c0.2,0.1,0.5,0.1,0.8,0.1c1.1,0,1.8-0.5,1.8-1.5
		c0-0.9-0.7-1.4-1.7-1.4c-0.4,0-0.7,0-0.9,0.1V65.8z"/>
	<path class="st1" d="M22,68.3c0.3,0.2,0.9,0.4,1.5,0.4c1.2,0,1.6-0.8,1.6-1.3c0-1-0.9-1.4-1.8-1.4h-0.5v-0.7h0.5
		c0.7,0,1.5-0.3,1.5-1.2c0-0.5-0.3-1-1.2-1c-0.5,0-1.1,0.2-1.4,0.5L22,62.9c0.4-0.3,1.1-0.5,1.8-0.5c1.4,0,2,0.8,2,1.6
		c0,0.7-0.4,1.3-1.3,1.6v0c0.8,0.2,1.5,0.8,1.5,1.8c0,1.1-0.9,2.1-2.5,2.1c-0.8,0-1.4-0.2-1.8-0.5L22,68.3z"/>
</g>
<g>
	<path class="st1" d="M70.5,61.6c-0.4,0.2-1.1,0.4-2,0.4c-2.1,0-3.7-1.3-3.7-3.8c0-2.4,1.6-4,3.9-4c0.9,0,1.5,0.2,1.8,0.3l-0.2,0.8
		c-0.4-0.2-0.9-0.3-1.5-0.3c-1.8,0-2.9,1.1-2.9,3.1c0,1.8,1.1,3,2.9,3c0.6,0,1.2-0.1,1.6-0.3L70.5,61.6z"/>
</g>
<g>
	<path class="st1" d="M104.5,61.6c-0.4,0.2-1.1,0.4-2,0.4c-2.1,0-3.7-1.3-3.7-3.8c0-2.4,1.6-4,3.9-4c0.9,0,1.5,0.2,1.8,0.3l-0.2,0.8
		c-0.4-0.2-0.9-0.3-1.5-0.3c-1.8,0-2.9,1.1-2.9,3.1c0,1.8,1.1,3,2.9,3c0.6,0,1.2-0.1,1.6-0.3L104.5,61.6z"/>
</g>
<g>
	<path class="st1" d="M138.5,61.6c-0.4,0.2-1.1,0.4-2,0.4c-2.1,0-3.7-1.3-3.7-3.8c0-2.4,1.6-4,3.9-4c0.9,0,1.5,0.2,1.8,0.3l-0.2,0.8
		c-0.4-0.2-0.9-0.3-1.5-0.3c-1.8,0-2.9,1.1-2.9,3.1c0,1.8,1.1,3,2.9,3c0.6,0,1.2-0.1,1.6-0.3L138.5,61.6z"/>
</g>
<g>
	<path class="st1" d="M172.5,61.6c-0.4,0.2-1.1,0.4-2,0.4c-2.1,0-3.7-1.3-3.7-3.8c0-2.4,1.6-4,3.9-4c0.9,0,1.5,0.2,1.8,0.3l-0.2,0.8
		c-0.4-0.2-0.9-0.3-1.5-0.3c-1.8,0-2.9,1.1-2.9,3.1c0,1.8,1.1,3,2.9,3c0.6,0,1.2-0.1,1.6-0.3L172.5,61.6z"/>
</g>
<g>
	<path class="st1" d="M206.1,61.6c-0.4,0.2-1.1,0.4-2,0.4c-2.1,0-3.7-1.3-3.7-3.8c0-2.4,1.6-4,3.9-4c0.9,0,1.5,0.2,1.8,0.3l-0.2,0.8
		c-0.4-0.2-0.9-0.3-1.5-0.3c-1.8,0-2.9,1.1-2.9,3.1c0,1.8,1.1,3,2.9,3c0.6,0,1.2-0.1,1.6-0.3L206.1,61.6z"/>
</g>
<path class="st0" d="M156.9,23h-44.2c-1.7,0-3-1.4-3-3V6.3c0-1.7,1.3-3,3-3h44.2c1.6,0,3,1.3,3,3V20C159.9,21.7,158.6,23,156.9,23z"
	/>
<g>
	<path class="st1" d="M126.4,16.5c-0.4,0.2-1.1,0.4-2,0.4c-2.1,0-3.7-1.3-3.7-3.8c0-2.4,1.6-4,4-4c0.9,0,1.5,0.2,1.8,0.3l-0.2,0.8
		c-0.4-0.2-0.9-0.3-1.5-0.3c-1.8,0-3,1.1-3,3.1c0,1.9,1.1,3,2.9,3c0.6,0,1.2-0.1,1.6-0.3L126.4,16.5z"/>
	<path class="st1" d="M127.6,8.7h1v8h-1V8.7z"/>
	<path class="st1" d="M131.4,9.7c0,0.3-0.2,0.6-0.6,0.6c-0.3,0-0.6-0.3-0.6-0.6c0-0.3,0.3-0.6,0.6-0.6
		C131.1,9.1,131.4,9.4,131.4,9.7z M130.3,16.7v-5.4h1v5.4H130.3z"/>
	<path class="st1" d="M133.5,14.2c0,1.3,0.9,1.9,1.9,1.9c0.7,0,1.1-0.1,1.5-0.3l0.2,0.7c-0.3,0.2-0.9,0.3-1.8,0.3
		c-1.7,0-2.7-1.1-2.7-2.7s1-2.9,2.5-2.9c1.8,0,2.2,1.6,2.2,2.6c0,0.2,0,0.4,0,0.5H133.5z M136.4,13.5c0-0.6-0.3-1.6-1.4-1.6
		c-1,0-1.4,0.9-1.5,1.6H136.4z"/>
	<path class="st1" d="M138.5,12.7c0-0.6,0-1,0-1.5h0.9l0.1,0.9h0c0.3-0.5,0.9-1,1.8-1c0.8,0,1.9,0.4,1.9,2.3v3.2h-1v-3.1
		c0-0.9-0.3-1.6-1.3-1.6c-0.7,0-1.2,0.5-1.3,1c0,0.1-0.1,0.3-0.1,0.5v3.3h-1V12.7z"/>
	<path class="st1" d="M145.9,9.7v1.6h1.4V12h-1.4v2.9c0,0.7,0.2,1.1,0.7,1.1c0.3,0,0.4,0,0.6-0.1l0,0.7c-0.2,0.1-0.5,0.1-0.9,0.1
		c-0.5,0-0.8-0.1-1.1-0.4c-0.3-0.3-0.4-0.8-0.4-1.4v-3h-0.8v-0.8h0.8V10L145.9,9.7z"/>
</g>
<g>
	<g>
		<line class="st0" x1="136.3" y1="47.2" x2="136.3" y2="28.6"/>
		<g>
			<polygon class="st1" points="136.3,23 139.5,30.9 136.3,29 133.1,30.9 			"/>
		</g>
	</g>
</g>
<path class="st0" d="M102.1,47.2c0-1.8-0.1-5.4,15.4-7.1s18.8-4.4,18.8-6.5"/>
<path class="st0" d="M136.3,33.5c0,2.1,2.7,4.8,18.2,6.5s15.4,5.4,15.4,7.1"/>
<path class="st0" d="M67.5,47.2c1.9-2.2,5.4-8.8,38.7-8.8c0,0,23-0.9,26-1.9c0,0,4.1-1.1,4.1-3.8"/>
<path class="st0" d="M204.7,47.2c-1.9-2.2-5.4-8.8-38.7-8.8c0,0-23-0.9-26-1.9c0,0-3.7-1.1-3.7-3.8"/>
</svg>
