<?xml version="1.0" encoding="utf-8"?>
<!-- Generator: Adobe Illustrator 19.1.0, SVG Export Plug-In . SVG Version: 6.00 Build 0)  -->
<svg version="1.1" id="Layer_1" xmlns="http://www.w3.org/2000/svg" xmlns:xlink="http://www.w3.org/1999/xlink" x="0px" y="0px"
	 viewBox="0 0 245.8 149" style="enable-background:new 0 0 245.8 149;" xml:space="preserve">
<style type="text/css">
	.st0{fill:none;stroke:#231F20;stroke-miterlimit:10;}
	.st1{fill:#231F20;}
	.st2{font-family:'MyriadPro-Regular';}
	.st3{font-size:11.7371px;}
	.st4{font-size:11.6429px;}
	.st5{font-size:11.2951px;}
	.st6{font-size:8.4844px;}
	.st7{font-size:12px;}
</style>
<path class="st0" d="M84.4,75.4H52.6c-2.8,0-5-2.2-5-5v-5.2c0-2.8,2.2-5,5-5h31.8c2.8,0,5,2.2,5,5v5.2
	C89.4,73.2,87.2,75.4,84.4,75.4z"/>
<path class="st0" d="M239,147.5H6.8c-2.8,0-5-2.2-5-5V42c0-2.8,2.2-5,5-5H239c2.8,0,5,2.2,5,5v100.5
	C244,145.2,241.8,147.5,239,147.5z"/>
<path class="st0" d="M93.1,134.2H76.6c-2.8,0-5-2.2-5-5v-1c0-2.8,2.2-5,5-5h16.5c2.8,0,5,2.2,5,5v1C98.1,132,95.8,134.2,93.1,134.2z
	"/>
<path class="st0" d="M18.6,109.8h-6.8c-2.8,0-5-2.2-5-5v-8.7c0-2.8,2.2-5,5-5h6.8c2.8,0,5,2.2,5,5v8.7
	C23.6,107.5,21.3,109.8,18.6,109.8z"/>
<polygon class="st0" points="48.4,89.8 88.3,89.8 90.4,92.2 87.1,93.9 90.4,96.3 87.2,98.5 89.9,100.3 87.5,102.6 90.4,104.7 
	87.1,106.7 90.4,108.6 88.2,110.9 48.4,110.9 46,109.1 48.9,106.9 46,104.7 49,102.5 46,100.4 49.1,98 46,96.4 49.2,93.8 46,91.7 
	"/>
<path class="st0" d="M159.2,15.8h-40c-1.1,0-2-0.9-2-2V3.6c0-1.1,0.9-2,2-2h40c1.1,0,2,0.9,2,2v10.1
	C161.2,14.9,160.4,15.8,159.2,15.8z"/>
<text transform="matrix(1 0 0 1 49.75 71.3155)" class="st1 st2 st3">Update</text>
<text transform="matrix(1 0 0 1 52.1255 104.2148)" class="st1 st2 st4">model</text>
<text transform="matrix(1 0 0 1 11.8755 105.1768)" class="st1 st2 st5">P</text>
<text transform="matrix(1 0 0 1 75.2503 131.0044)" class="st1 st2 st6">input</text>
<text transform="matrix(1 0 0 1 124.75 12.25)" class="st1 st2 st7">Client</text>
<g>
	<g>
		<line class="st0" x1="69.3" y1="89.8" x2="69.3" y2="82"/>
		<g>
			<polygon class="st1" points="69.3,75.4 73.1,84.7 69.3,82.5 65.6,84.7 			"/>
		</g>
	</g>
</g>
<g>
	<g>
		<line class="st0" x1="85.9" y1="123.2" x2="82.8" y2="116.2"/>
		<g>
			<polygon class="st1" points="80.9,111.9 86,116.9 82.9,116.5 81.1,119 			"/>
		</g>
	</g>
</g>
<path class="st0" d="M156.4,75.4h-31.8c-2.8,0-5-2.2-5-5v-5.2c0-2.8,2.2-5,5-5h31.8c2.8,0,5,2.2,5,5v5.2
	C161.4,73.2,159.2,75.4,156.4,75.4z"/>
<path class="st0" d="M165.1,134.2h-16.5c-2.8,0-5-2.2-5-5v-1c0-2.8,2.2-5,5-5h16.5c2.8,0,5,2.2,5,5v1
	C170.1,132,167.8,134.2,165.1,134.2z"/>
<polygon class="st0" points="120.4,89.8 160.3,89.8 162.4,92.2 159.1,93.9 162.4,96.3 159.2,98.5 161.9,100.3 159.5,102.6 
	162.4,104.7 159.1,106.7 162.4,108.6 160.2,110.9 120.4,110.9 118,109.1 120.9,106.9 118,104.7 121,102.5 118,100.4 121.1,98 
	118,96.4 121.2,93.8 118,91.7 "/>
<text transform="matrix(1 0 0 1 121.75 71.3155)" class="st1 st2 st3">Update</text>
<text transform="matrix(1 0 0 1 124.1255 104.2148)" class="st1 st2 st4">model</text>
<text transform="matrix(1 0 0 1 147.2503 131.0044)" class="st1 st2 st6">input</text>
<g>
	<g>
		<line class="st0" x1="141.3" y1="89.8" x2="141.3" y2="82"/>
		<g>
			<polygon class="st1" points="141.3,75.4 145.1,84.7 141.3,82.5 137.6,84.7 			"/>
		</g>
	</g>
</g>
<g>
	<g>
		<line class="st0" x1="157.9" y1="123.2" x2="154.8" y2="116.2"/>
		<g>
			<polygon class="st1" points="152.9,111.9 158,116.9 154.9,116.5 153.1,119 			"/>
		</g>
	</g>
</g>
<path class="st0" d="M225.4,75.4h-31.8c-2.8,0-5-2.2-5-5v-5.2c0-2.8,2.2-5,5-5h31.8c2.8,0,5,2.2,5,5v5.2
	C230.4,73.2,228.1,75.4,225.4,75.4z"/>
<path class="st0" d="M234,134.2h-16.5c-2.8,0-5-2.2-5-5v-1c0-2.8,2.2-5,5-5H234c2.8,0,5,2.2,5,5v1C239,132,236.8,134.2,234,134.2z"
	/>
<polygon class="st0" points="189.4,89.8 229.3,89.8 231.4,92.2 228,93.9 231.4,96.3 228.1,98.5 230.9,100.3 228.4,102.6 
	231.4,104.7 228,106.7 231.4,108.6 229.2,110.9 189.4,110.9 186.9,109.1 189.9,106.9 186.9,104.7 189.9,102.5 186.9,100.4 190,98 
	186.9,96.4 190.1,93.8 186.9,91.7 "/>
<text transform="matrix(1 0 0 1 190.6859 71.3155)" class="st1 st2 st3">Update</text>
<text transform="matrix(1 0 0 1 193.0614 104.2148)" class="st1 st2 st4">model</text>
<text transform="matrix(1 0 0 1 216.1862 131.0044)" class="st1 st2 st6">input</text>
<g>
	<g>
		<line class="st0" x1="210.3" y1="89.8" x2="210.3" y2="82"/>
		<g>
			<polygon class="st1" points="210.3,75.4 214.1,84.7 210.3,82.5 206.5,84.7 			"/>
		</g>
	</g>
</g>
<g>
	<g>
		<line class="st0" x1="226.8" y1="123.2" x2="223.7" y2="116.2"/>
		<g>
			<polygon class="st1" points="221.8,111.9 226.9,116.9 223.8,116.5 222,119 			"/>
		</g>
	</g>
</g>
<g>
	<g>
		<path class="st0" d="M19.1,109.8c0.2,2.9,0.8,21.5,4.5,23.6c3.7,2.1,13.2,2.4,16.2,2.4s18.5,0.4,21.5-3.4
			c2.7-3.3,2.8-4.7,3.7-15.7"/>
		<g>
			<polygon class="st1" points="65.4,111.9 67.5,118.9 64.9,117.1 62,118.4 			"/>
		</g>
	</g>
</g>
<g>
	<g>
		<path class="st0" d="M15.2,109.8c0.2,3.6,1,22.1,3.6,25.4s5.8,4.4,12.9,4.4s49.2,0,49.2,0s32.4,0,37.1,0s11.9-0.4,14.9-4.5
			c2.6-3.5,3.2-9.6,3.6-18.3"/>
		<g>
			<polygon class="st1" points="136.7,111.9 139.1,118.8 136.4,117.1 133.6,118.6 			"/>
		</g>
	</g>
</g>
<g>
	<g>
		<path class="st0" d="M11.1,109.8c0.1,4,0.4,21.4,2.4,26.3c2,4.9,4.5,7.7,10.8,7.7c6.3,0,42.8,0,42.8,0H192c0,0,6.1,0,8.6-3.9
			c2.3-3.5,3.5-8.3,4-23.1"/>
		<g>
			<polygon class="st1" points="204.7,111.9 207.2,118.8 204.5,117.1 201.7,118.6 			"/>
		</g>
	</g>
</g>
<g>
	<g>
		<path class="st0" d="M57.2,60.2c-0.6-4-1.1-6.9-1.7-7.7c-0.6-0.8-0.2-2.8-12.3-2.8s-12.8-0.4-15.2,0.8c-2.4,1.2-4.8,2.5-5.4,10
			c0,0-1.1,7.1-1.3,24.1"/>
		<g>
			<path class="st1" d="M21.5,83.1l2.9-1.7l0.1,0.1l-1.9,4.7c-0.4,1.6-0.8,3.3-1.2,4.9c-0.3-1.6-0.7-3.3-1-4.9l-1.8-4.7l0.1-0.1
				L21.5,83.1z"/>
		</g>
	</g>
</g>
<g>
	<g>
		<path class="st0" d="M64.1,46.6c-20.7,0-34.8,0-36.8,0s-5.5,0-8.1,4c-1.4,2.2-2.8,11.7-2.8,15.5c0,2.6-0.6,11.9-0.9,18.5"/>
		<g>
			<path class="st1" d="M15.5,83.1l2.9-1.6l0.1,0.1l-2,4.6c-0.4,1.6-0.8,3.2-1.3,4.9c-0.3-1.7-0.6-3.3-0.9-5l-1.7-4.8l0.1-0.1
				L15.5,83.1z"/>
		</g>
	</g>
</g>
<g>
	<g>
		<path class="st0" d="M64.1,43.6c-20.7,0-40.8,0-42.8,0s-6.1,0.9-8.1,4c-2.1,3.2-2,7.2-2.8,14.7c-0.3,2.7-0.8,14.6-1.1,22.3"/>
		<g>
			<path class="st1" d="M9.3,83.1l2.9-1.7l0.1,0.1l-2,4.7c-0.4,1.6-0.8,3.3-1.2,4.9c-0.3-1.6-0.7-3.3-1-4.9l-1.8-4.7l0.1-0.1
				L9.3,83.1z"/>
		</g>
	</g>
</g>
<path class="st0" d="M129.8,60.2c-0.2-3.6-0.5-7.5-1-8.8s-1.7-3.2-7-4.2c-3.5-0.7-7.8-0.7-13.4-0.7s-37.2,0-37.2,0"/>
<line class="st0" x1="136.7" y1="43.6" x2="71.1" y2="43.6"/>
<path class="st0" d="M198.2,60.2c0-1.9,0.2-10.3-0.9-12.2s-3.2-4.4-12.2-4.4c-8.9,0-42.2,0-42.2,0"/>
<g>
	<g>
		<path class="st0" d="M139.8,15.8c0,2.9,0,26,0,37.7"/>
		<g>
			<path class="st1" d="M139.8,52l3-1.8l0.1,0.1l-1.9,4.9c-0.4,1.7-0.7,3.4-1.1,5.1c-0.4-1.7-0.7-3.4-1.1-5.1l-1.9-4.9l0.1-0.1
				L139.8,52z"/>
		</g>
	</g>
</g>
<g>
	<g>
		<path class="st0" d="M67.7,53.5c0.1-7.6,0.4-15.7,0.8-17.6c0.6-2.5,2.2-7.4,11.9-7.6s37.9-0.4,42.8-0.8s11.5-1.5,13.6-3.5
			s3-5.1,3-7.6"/>
		<g>
			<path class="st1" d="M67.7,52l-3-1.9l-0.1,0.1l1.9,4.9c0.3,1.7,0.7,3.4,1,5.1c0.4-1.7,0.8-3.4,1.2-5.1l2-4.8l0-0.1L67.7,52z"/>
		</g>
	</g>
</g>
<g>
	<g>
		<path class="st0" d="M210.2,53.2c-0.1-7.6-0.4-15.7-0.8-17.6c-0.6-2.5-2.2-7.4-11.9-7.6s-36.3-0.4-41.1-0.8s-11.5-1.5-13.6-3.5
			s-3-5.1-3-7.6"/>
		<g>
			<path class="st1" d="M210.2,51.7l-3-1.8l-0.1,0.1l2,4.8c0.4,1.7,0.8,3.4,1.2,5.1c0.3-1.7,0.7-3.4,1-5.1l1.9-4.9l-0.1-0.1
				L210.2,51.7z"/>
		</g>
	</g>
</g>
</svg>
