<?xml version="1.0" encoding="utf-8"?>
<!-- Generator: Adobe Illustrator 19.1.0, SVG Export Plug-In . SVG Version: 6.00 Build 0)  -->
<svg version="1.1" id="Layer_1" xmlns="http://www.w3.org/2000/svg" xmlns:xlink="http://www.w3.org/1999/xlink" x="0px" y="0px"
	 viewBox="0 0 304.5 142.1" style="enable-background:new 0 0 304.5 142.1;" xml:space="preserve">
<style type="text/css">
	.st0{fill:none;stroke:#000000;stroke-miterlimit:10;}
	.st1{font-family:'MyriadPro-Regular';}
	.st2{font-size:12.6019px;}
	.st3{font-size:12.6px;}
	.st4{font-family:'MyriadPro-Bold';}
	.st5{font-size:9.347px;}
	.st6{font-size:9.5335px;}
	.st7{fill:none;stroke:#000000;stroke-width:3;stroke-miterlimit:10;}
	.st8{fill:none;stroke:#000000;stroke-miterlimit:10;stroke-dasharray:2.1182,2.1182;}
</style>
<circle class="st0" cx="15.9" cy="25.6" r="8.2"/>
<circle class="st0" cx="50.1" cy="25.6" r="8.2"/>
<circle class="st0" cx="105.1" cy="25.6" r="8.2"/>
<circle class="st0" cx="78.2" cy="46.4" r="8.2"/>
<circle class="st0" cx="32.9" cy="116.5" r="8.2"/>
<circle class="st0" cx="104.9" cy="116.5" r="8.2"/>
<circle class="st0" cx="187" cy="25.6" r="8.2"/>
<circle class="st0" cx="221.2" cy="25.6" r="8.2"/>
<circle class="st0" cx="275.3" cy="25.6" r="8.2"/>
<circle class="st0" cx="248.6" cy="46.3" r="8.2"/>
<circle class="st0" cx="204" cy="116.5" r="8.2"/>
<circle class="st0" cx="275.8" cy="116.5" r="8.2"/>
<path class="st0" d="M124.3,63H8.8c-2.8,0-5-2.2-5-5V10.5c0-2.8,2.3-5,5-5h115.5c2.8,0,5,2.2,5,5V58C129.3,60.7,127,63,124.3,63z"/>
<path class="st0" d="M124.3,137H8.8c-2.8,0-5-2.2-5-5V86.2c0-2.8,2.3-5,5-5h115.5c2.8,0,5,2.2,5,5V132
	C129.3,134.8,127,137,124.3,137z"/>
<path class="st0" d="M296,63H180.5c-2.8,0-5-2.2-5-5V10.5c0-2.8,2.2-5,5-5H296c2.8,0,5,2.2,5,5V58C301,60.7,298.7,63,296,63z"/>
<path class="st0" d="M296,137H180.5c-2.8,0-5-2.2-5-5V86.2c0-2.8,2.2-5,5-5H296c2.8,0,5,2.2,5,5V132C301,134.8,298.7,137,296,137z"
	/>
<text transform="matrix(1 0 0 1 12.3789 28.8478)" class="st1 st2">b</text>
<text transform="matrix(1 0 0 1 46.4627 28.8478)" class="st1 st3">c</text>
<text transform="matrix(1 0 0 1 101.9624 28.8478)" class="st1 st3">y</text>
<text transform="matrix(1 0 0 1 72.6294 51.2846)" class="st1 st3">W</text>
<text transform="matrix(1 0 0 1 29.9625 119.7848)" class="st1 st3">a</text>
<text transform="matrix(1 0 0 1 101.9624 119.7848)" class="st1 st3">x</text>
<text transform="matrix(1 0 0 1 183.6289 28.8478)" class="st1 st2">b</text>
<text transform="matrix(1 0 0 1 217.7127 28.8478)" class="st1 st3">c</text>
<text transform="matrix(1 0 0 1 272.3374 28.8477)" class="st1 st3">y</text>
<text transform="matrix(1 0 0 1 243.0044 51.2845)" class="st1 st3">W</text>
<text transform="matrix(1 0 0 1 201.2125 119.7848)" class="st1 st3">a</text>
<text transform="matrix(1 0 0 1 272.3374 119.7847)" class="st1 st3">x</text>
<text transform="matrix(1 0 0 1 7.0047 14.1678)" class="st4 st5">Device B</text>
<text transform="matrix(1 0 0 1 7.6292 134.1678)" class="st4 st5">Device A</text>
<text transform="matrix(1 0 0 1 178.4083 14.1678)" class="st4 st5">Device B</text>
<text transform="matrix(1 0 0 1 179.0328 134.1678)" class="st4 st5">Device A</text>
<rect x="192.1" y="48.3" class="st0" width="23.3" height="11"/>
<rect x="192.1" y="84.8" class="st0" width="23.3" height="11"/>
<rect x="264.1" y="48.3" class="st0" width="23.3" height="11"/>
<rect x="263.6" y="84.8" class="st0" width="23.3" height="11"/>
<text transform="matrix(1 0 0 1 195.2208 56.8845)" class="st1 st6">recv</text>
<text transform="matrix(1 0 0 1 194.5537 93.0512)" class="st1 st6">send</text>
<text transform="matrix(1 0 0 1 266.2203 93.0512)" class="st1 st6">send</text>
<text transform="matrix(1 0 0 1 267.0464 56.8845)" class="st1 st6">recv</text>
<g>
	<g>
		<path class="st0" d="M32.9,108.3c0-14.3-3.8-21.4-8.3-34.4c-3.8-11-7.7-24.5-9.1-33.8"/>
		<g>
			<polygon points="15,35.5 18.5,41.5 15.7,40.3 13.2,42.2 			"/>
		</g>
	</g>
</g>
<g>
	<g>
		<path class="st0" d="M32.9,108.3c0-14.3,3.8-21.4,8.3-34.4c3.8-11,7.7-24.5,9.1-33.8"/>
		<g>
			<polygon points="50.8,35.5 52.6,42.2 50.2,40.3 47.3,41.5 			"/>
		</g>
	</g>
</g>
<g>
	<g>
		<line class="st0" x1="84.7" y1="41.4" x2="93.4" y2="33.4"/>
		<g>
			<polygon points="96.8,30.3 93.8,36.6 93.2,33.6 90.3,32.7 			"/>
		</g>
	</g>
</g>
<g>
	<g>
		<line class="st0" x1="104.9" y1="108.3" x2="104.9" y2="40.4"/>
		<g>
			<polygon points="104.9,35.8 107.5,42.3 104.9,40.8 102.2,42.3 			"/>
		</g>
	</g>
</g>
<g>
	<g>
		<line class="st0" x1="204" y1="108.3" x2="204" y2="101.2"/>
		<g>
			<polygon points="204,96.6 206.6,103.1 204,101.6 201.4,103.1 			"/>
		</g>
	</g>
</g>
<g>
	<g>
		<line class="st0" x1="275.8" y1="108.3" x2="275.8" y2="101.2"/>
		<g>
			<polygon points="275.8,96.6 278.4,103.1 275.8,101.6 273.1,103.1 			"/>
		</g>
	</g>
</g>
<g>
	<g>
		<line class="st0" x1="275.3" y1="48.3" x2="275.3" y2="39.5"/>
		<g>
			<polygon points="275.3,35 277.9,41.4 275.3,39.9 272.7,41.4 			"/>
		</g>
	</g>
</g>
<g>
	<g>
		<path class="st0" d="M203.8,48.3c0,0,4.4-6.2,8.5-10.8"/>
		<g>
			<polygon points="215.5,34.2 212.9,40.7 212,37.7 209.1,37 			"/>
		</g>
	</g>
</g>
<g>
	<g>
		<path class="st0" d="M203.8,48.3c0,0-4.4-6.2-8.5-10.8"/>
		<g>
			<polygon points="192.1,34.2 198.5,37 195.6,37.7 194.7,40.7 			"/>
		</g>
	</g>
</g>
<g>
	<g>
		<path class="st0" d="M255.1,41.2c0,0,4.9-4.7,8.8-8.1"/>
		<g>
			<polygon points="267.5,30.3 264.2,36.4 263.7,33.4 260.8,32.3 			"/>
		</g>
	</g>
</g>
<g>
	<g>
		<line class="st7" x1="144.3" y1="71.7" x2="154.5" y2="71.7"/>
		<g>
			<polygon points="152.7,78.1 163.8,71.7 152.7,65.2 			"/>
		</g>
	</g>
</g>
<g>
	<g>
		<line class="st0" x1="204" y1="59.3" x2="204" y2="60.4"/>
		<line class="st8" x1="204" y1="62.5" x2="204" y2="82.6"/>
		<line class="st0" x1="204" y1="83.7" x2="204" y2="84.8"/>
	</g>
</g>
<g>
	<g>
		<line class="st0" x1="275.3" y1="59" x2="275.3" y2="60.1"/>
		<line class="st8" x1="275.3" y1="62.2" x2="275.3" y2="82.4"/>
		<line class="st0" x1="275.3" y1="83.4" x2="275.3" y2="84.5"/>
	</g>
</g>
</svg>
